<?xml version="1.0" encoding="UTF-8"?>
<svg id="b" data-name="Layer 2" xmlns="http://www.w3.org/2000/svg" width="482.916" height="187.472" viewBox="0 0 482.916 187.472">
  <defs>
    <style>
      .d {
        fill: red;
      }

      .d, .e {
        stroke-width: 0px;
      }

      .e {
        fill: blue;
      }
    </style>
  </defs>
  <g id="c" data-name="Layer 1">
    <path class="d" d="m200.516,113.316c-1.6,1-2.7,1.9-4.1,2.4-1.3.5-2.7,0-3.2-1.3-.4-.9-.5-2.1-.2-3,.4-1.3,1.8-1.9,3.1-1.6,7.3,1.9,14.7-.5,22,.8,1.4.3,3.1-.5,3.8,1.2.3.6.1,1.8-.3,2.3-1.1,1.4-2.6,1.3-3.9.2-.5-.4-.9-.9-1.3-1.4-2.3,2.9-4.5,3.3-8.1,1.3-1.9-.8-5.5,2.5-7.8-.9h0Z"/>
    <path class="d" d="m206.616,46.716c1.4,2.8,2.9,6.5,5,9.9.7,1.2,2.4,2.4,1.8,3.7-1.1,2.4,3.7,5.7.1,6.4-2.7.5-6.8-4.2-6.1-6.5,1.6-5.9-3.6-8.6-4.7-13-.4-1.6-1.5-3-.4-4.7.7-.9,1.7-1.4,2.8-1,2.1.8,2.3,2.4,1.5,5.2h0Z"/>
    <path class="d" d="m320.016,97.716c-3.5,3.5-7.1-.7-10.3,1.8-1.1.9-2.8-.7-2.7-2.5,0-1.8,1.1-3,2.9-2.6,6.6,1.3,13.3.4,20,1,1.8.2,3.8.2,3.5,2.6-.3,2.8-2.4,2.7-4.3,1.9-3.2-1.5-6.9,1.2-9.1-2.2h0Z"/>
    <path class="d" d="m402.716,95.316c1-3.1,3.5-4,5.8-2.1,2,1.7,2.7,1.5,5,.4,4.2-2,8.6,1.6,13.2.8.9-.2,1.8,1.8,1.2,3.1-.7,1.6-2.2,2-3.8,1.6-5.8-1.6-11.6-1.6-17.5-.6-2,.4-3.6-.7-3.9-3.2Z"/>
    <path class="d" d="m289.016,94.416h10.5c2.3,0,3.9,1,3.5,3.4-.4,2.1-2.2,2.2-4.1,1.6-3.7-1.1-7.5-1.1-11.2-.1-1.6.4-3,.4-4-.9-.7-.9-.8-1.9-.2-3,.9-1.6,2.3-1.6,5.5-1h0Z"/>
    <path class="e" d="m348.316,174.716c3,.8,5.9,1.5,6,5.4.1,2.7-.9,4.8-4,4.5-3.3-.3-6.6-1.7-7.2-5.3-.4-3.2,2.9-3.6,5.2-4.6h0Z"/>
    <path class="d" d="m114.116,34.016c1.7,3.6,5.1,3.4,8.6,3.1.9-.1,1.4,1.4,1.4,2.6,0,1.5-.9,2.6-2.3,2.7-3.8.4-7-2.1-10.6-2.9-1.1-.3-1.2-2.2-.7-3.5.6-1.4,1.7-2,3.6-2Z"/>
    <path class="d" d="m390.116,98.016c-2.2-.1-4-.8-3.9-3.2.1-2.4,2-3.5,4-2.8,2.3.8,4.3,1,6.7.8,1.8-.2,3.4,1,3.3,3-.2,2.5-2.3,3.1-4.2,2.2-2.2-1-4-1-5.9,0h0Z"/>
    <path class="e" d="m443.716,177.216c3.7,0,5.2,2.4,5.2,5,.1,3.2-2.4,5.1-5.5,4.9-2.8-.1-5-1.9-4.9-4.9.1-3.2,2.7-4.4,5.2-5h0Z"/>
    <path class="e" d="m61.316,182.316c-3.4.2-5.2-1.2-5.1-4.8.1-2.9,1.7-4.2,4.5-4.1,3.2.1,5.4,1.6,5.6,4.8.4,3.4-2.1,4.2-5,4.1h0Z"/>
    <path class="d" d="m275.916,161.516c-2.4-.4-4.1-2.5-2.9-3.4,3.7-2.9-4.4-8.8,2.9-10.3,1.1-.2,2.4.5,2.5,1.5.4,3.7-1.4,7.3-.7,11.1,0,.3-1.3.8-1.8,1.1h0Z"/>
    <path class="e" d="m172.516,181.016c-4.2.1-7.1-.2-6.8-4.2.2-3.1,2.5-3.5,5-3.5,3.1,0,5.8,1.1,6,4.3.2,3.7-3,3.3-4.2,3.4h0Z"/>
    <path class="e" d="m287.616,187.416c-3,.4-4.8-1.4-4.9-4.3-.1-3,2.1-4.7,5-4.5,2.9.1,4.7,2,4.8,5,.1,3.1-2,3.9-4.9,3.8h0Z"/>
    <path class="d" d="m278.416,49.416c-1.2,1.8.6,3,1.1,4.5s.3,3-1.1,4c-.9.7-1.9.9-3,.3-1.5-.8-2-2.2-1.6-3.8.3-1.6,1.8-2.9.4-4.7-1-1.3-1-2.8.3-4,.8-.8,2-.8,3-.3,1.7.9,1.5,2.4.9,4h0Z"/>
    <path class="e" d="m220.916,183.616c-2.9.1-5.3-.6-5.1-4.1.1-2.6,1.8-4.7,4.4-4.6,2.7.2,5.6,1.3,5.6,4.9-.1,3.2-2.3,3.8-4.9,3.8h0Z"/>
    <path class="e" d="m405.916,180.616c.5-3,2.8-4.3,5.4-4.1,2.8.2,4.6,2.5,4.5,5.3-.2,2.8-2.7,4-5,3.8-2.6-.2-5-1.6-4.9-5h0Z"/>
    <path class="e" d="m10.916,154.116c-.7,2.8-2.3,4.9-5.2,4.6-2.5-.3-4.4-2.2-4.1-4.8.3-2.5,1.5-5,4.8-4.8,3.1,0,3.8,2.6,4.5,5h0Z"/>
    <path class="e" d="m377.316,12.516c-1,3-3.1,4.3-6.3,4-2.8-.3-5.2-1.8-4.7-4.8.6-3.8,4.1-2.7,6.7-2.8,2.4-.1,4.2.8,4.3,3.6h0Z"/>
    <path class="e" d="m360.816,12.416c-.1,2.9-1.7,4.1-4.5,4.1-3.1-.1-5.7-1.5-5.4-4.8.2-2.9,3.2-3.9,5.7-3.8,2.5.1,4.4,1.5,4.2,4.5h0Z"/>
    <path class="e" d="m420.616,7.616c3,0,4.3,1.4,4.4,4,.2,3.1-1.1,4.9-4.4,4.9-2.6,0-5.2-1.1-5.2-3.6.1-3,2.7-4.5,5.2-5.3h0Z"/>
    <path class="e" d="m386.416,179.716c-.1,3.2-2.4,4.5-5,4.6-2.3.1-4.9-1-4.9-3.8,0-2.9,2.2-4.4,5.1-4.5,2.7-.2,4.6.6,4.8,3.7Z"/>
    <path class="e" d="m482.916,42.216c-.4,2.9-1.9,4.8-4.8,5-3,.2-4.1-1.6-4.1-4.4s1.3-4.3,4.2-4.4c2.6-.1,4.4.9,4.7,3.8h0Z"/>
    <path class="e" d="m276.016,11.916c0,3.4-2.4,4.3-5.1,4.5-2.6.1-3.7-1.5-3.9-4-.2-3.1,1.8-4.4,4.3-4.5s4.6,1,4.7,4Z"/>
    <path class="e" d="m404.716,8.916c2.6.4,4.6,1.8,4.7,4.4.1,2.9-2.5,3.9-4.8,4-2.6.1-4.6-1.8-4.6-4.3-.1-2.8,2.1-3.8,4.7-4.1Z"/>
    <path class="e" d="m110.216,181.816c0,2.7-1.7,4.1-4,3.8-2.6-.2-5-1.5-4.8-4.8.1-3.1,2.2-3.7,4.8-3.6,2.9.1,4.1,1.8,4,4.6h0Z"/>
    <path class="e" d="m478.216,56.516c2.8.7,4.5,2.2,4.6,4.8.2,2.9-1.6,4.1-4.4,4.1s-4.5-1.2-4.4-4.1c.2-2.8,2.1-4,4.2-4.8h0Z"/>
    <path class="e" d="m241.816,6.316c2.7,0,4.6,1,4.5,4-.1,2.6-1.7,4.6-4.2,4.7-2.6.1-4.2-1.8-4.5-4.4-.3-2.9,1.4-4.2,4.2-4.3h0Z"/>
    <path class="e" d="m478.716,28.116c-2.7,0-4.6-.9-4.6-3.9,0-2.6,1.6-4.6,4.1-4.8,2.7-.2,4.2,1.8,4.6,4.3.3,2.9-1.3,4.3-4.1,4.4h0Z"/>
    <path class="e" d="m387.816,8.916c2.6-.3,4.7,1,4.5,3.8-.1,2.7-2.4,3.8-5,3.9-2.7.1-4.7-.8-4.6-3.9.2-3.2,2.3-3.9,5.1-3.8h0Z"/>
    <path class="e" d="m44.616,175.716c.1,3.1-.8,5.1-3.8,5.1-2.6,0-4.6-1.5-4.8-4.1-.3-2.7,1.7-4.2,4.2-4.6,2.9-.3,4.3,1.3,4.4,3.6h0Z"/>
    <path class="e" d="m305.216,8.916c2.6.2,5,1.2,4.9,3.9-.1,2.6-2.5,3.7-5.1,3.7-2.4,0-4.3-.7-4.4-3.4-.2-3.2,2.3-3.6,4.6-4.2h0Z"/>
    <path class="e" d="m481.616,114.816c.1,2.7-1.6,4.1-3.8,4-2.8-.1-4.7-2-4.6-4.9.1-2.3,1.7-3.7,4.3-3.5,2.9.1,4.1,1.7,4.1,4.4h0Z"/>
    <path class="e" d="m26.616,175.916c-.2,3.1-2.2,3.9-4.8,3.8-2.5-.1-4-1.3-4-3.9.1-3.1,2.1-3.8,4.8-3.7,2.5.1,3.9,1.2,4,3.8h0Z"/>
    <path class="e" d="m477.516,92.716c2.5.7,4,2.3,4,4.9,0,2.3-1.3,3.6-3.6,3.6-2.7,0-4.6-1.5-4.9-4-.4-3.1,2.3-3.5,4.5-4.5Z"/>
    <path class="d" d="m279.616,91.016c0,2.8,1.3,6.1-2.4,6-3.7-.1-2.2-3.3-2.2-5.5s-1.3-5.6,2.1-5.7c4.2-.2,2,3.7,2.5,5.2h0Z"/>
    <path class="e" d="m4.116,114.216c-2.6.2-3.8-1.7-4.1-4.2-.2-2.4,1.5-3.3,3.7-3.4,2.6-.1,4.8.6,4.9,3.7,0,2.6-1.5,3.7-4.5,3.9h0Z"/>
    <path class="e" d="m199.616,15.216c-2.3-.5-4.3-1.8-4.3-4.5s2.3-3.2,4.5-3.1c2.5.1,4,1.2,4,3.8.1,2.6-1.5,3.8-4.2,3.8Z"/>
    <path class="e" d="m290.116,10.316c0,2.9-.9,4.7-3.5,4.8s-4.8-1.2-4.9-3.8c-.1-2.3,1.5-3.8,4.1-3.7,2.3,0,4.4.1,4.3,2.7h0Z"/>
    <path class="e" d="m227.716,15.216c-3.1-.2-4.4-1.6-4.2-4.1.2-2.7,2-3.5,4.4-3.4,2.3,0,4.5.7,4.2,3.5-.4,2.5-2.5,3.6-4.4,4h0Z"/>
    <path class="e" d="m193.216,182.216c-2.3-.5-4.3-1.8-4.3-4.4,0-2.7,2.3-3.2,4.6-3.1,2.5.1,4,1.2,4,3.8-.1,2.6-1.6,3.7-4.3,3.7h0Z"/>
    <path class="e" d="m257.616,15.216c-2.5-.5-4.5-1.9-4.5-4.5,0-2.7,2.3-3.2,4.6-3.1,2.5.1,4,1.2,4,3.8,0,2.7-1.6,3.7-4.1,3.8h0Z"/>
    <path class="e" d="m8.716,174.216c0,2.1-.8,4.1-3.1,4-2.9-.1-4.5-2.2-4.5-5.1,0-2.3,1.4-3.5,3.6-3.5,3.1,0,4,1.9,4,4.6h0Z"/>
    <path class="e" d="m482.816,7.116c-.8,2.4-1.5,4.5-4.3,4.2-2.3-.3-4.2-1.6-4.1-4,.1-2.5,2-4.4,4.6-4.3,2.4,0,3.4,2.1,3.8,4.1h0Z"/>
    <path class="e" d="m476.416,183.016c-.7,2.5-2.2,4.2-4.8,4.3-2.6.1-4-1.3-3.9-3.9s1.7-3.6,4.2-3.7c2.2,0,4,.6,4.5,3.3h0Z"/>
    <path class="e" d="m316.416,183.616c-2.4,0-4.2-1-4.3-3.6-.1-2.6,1.2-4,3.8-3.9,2.6.1,4.6,1.6,4.8,4.2.2,2.7-2,3.2-4.3,3.3h0Z"/>
    <path class="e" d="m85.716,178.316c-.1,2.5-1.4,3.7-3.9,3.9-2.9.2-4.5-1.3-4.5-4,.1-2.3,1.6-3.8,4.2-3.7,2.5.2,4,1.2,4.2,3.8h0Z"/>
    <path class="e" d="m130.416,179.816c-.6,2.5-1.8,3.9-4.4,3.7-2.5-.2-4.1-1.2-4-3.9,0-2.6,1.6-3.9,4.1-3.7,2.3.3,3.8,1.7,4.3,3.9h0Z"/>
    <path class="d" d="m240.116,141.516c2.3.2,4,1.3,4,3.8,0,2.2-1.3,3.5-3.6,3.5-2.2,0-3.6-1.2-3.8-3.4-.1-2.2,1.1-3.6,3.4-3.9h0Z"/>
    <path class="e" d="m269.516,181.116c-.3,1.8-.8,3.8-3.4,3.1-2.3-.6-4.4-1.9-4.1-4.9.2-2.3,1.6-3.4,3.9-3.3,3.1.2,3.7,2.3,3.6,5.1h0Z"/>
    <path class="e" d="m476.816,150.016c-2.3-.6-4.3-1.5-4.2-4.5.1-2.4,1.5-3.7,3.5-3.7,2.7,0,4,2,4.1,4.6.1,2.1-1,3.4-3.4,3.6h0Z"/>
    <path class="e" d="m9.816,90.516c-.5,2.3-1.2,4.3-4.2,4.5-2.3.1-3.8-1.2-4-3.1-.4-2.8,1.7-4.1,4.2-4.4,2.1-.4,3.6.6,4,3Z"/>
    <path class="e" d="m162.916,15.216c-2.3-.2-3.9-1.2-3.5-3.6.3-2.1,1.3-4.3,4-3.9,2,.3,4.6.7,4.3,3.5-.3,2.5-2.3,3.8-4.8,4Z"/>
    <path class="e" d="m478.716,84.616c-3.2-.1-4.7-1.3-4.6-3.9s1.6-3.8,4.1-3.7c2.7.2,3.5,2,3.5,4.4-.1,2.5-1.4,3.4-3,3.2h0Z"/>
    <path class="e" d="m338.916,8.916c2.3.1,4.3,1.2,4.5,3.5.3,2.4-1.7,3.9-4,3.9-2.1-.1-4.2-1-4.2-3.8.1-2.3,1.4-3.4,3.7-3.6Z"/>
    <path class="d" d="m236.116,131.816c2.6.4,3.9,1.5,3.8,3.8-.1,2.2-1.2,3.7-3.5,3.6-2.1-.1-3.5-1.7-3.6-3.8,0-2.1,1.5-3.2,3.3-3.6h0Z"/>
    <path class="e" d="m481.616,131.816c.1,1.8-.8,3-3.3,3-2.4,0-4.1-.9-4.3-3.6-.1-2.5,1.2-4,3.8-4s3.7,1.5,3.8,4.6h0Z"/>
    <path class="d" d="m388.516,44.116c-1.9-.2-3.4-1-3.4-3.1,0-2.4,1.8-3.3,3.8-3.4,2.2-.1,3.9.9,3.7,3.3-.1,2.5-2.2,2.9-4.1,3.2h0Z"/>
    <path class="e" d="m5.316,128.416c2.5.7,4.3,2,4.3,4.4,0,2.8-2.1,3.3-4.4,3.3-2.4,0-3.6-1.5-3.7-3.5-.1-2.6,2-3.5,3.8-4.2h0Z"/>
    <path class="d" d="m45.816,95.016c-.3,2.3-1.7,3.5-4,3.3-2-.1-3.2-1.4-3.1-3.4.1-2.2,1.3-3.7,3.6-3.7,2.5,0,3.4,1.6,3.5,3.8h0Z"/>
    <path class="e" d="m400.616,181.216c-.6,2.6-1.7,4.5-4.2,4.4-2-.1-3.4-1.4-3.5-3.8,0-2.4,1.3-3.8,3.3-4.1,2.7-.4,3.5,1.9,4.4,3.5h0Z"/>
    <path class="e" d="m436.516,7.716c2.3,0,3.7,1.1,3.9,3.3.2,2.5-1,4.1-3.6,4.2-2.2.1-3.7-1-3.9-3.3-.2-2.5,1-4,3.6-4.2h0Z"/>
    <path class="e" d="m67.916,13.916c-2.3-.2-4-1.1-3.7-3.5.3-2.3,1.9-4,4.4-3.8,2,.1,3.9,1.5,3.7,3.6-.1,2.4-2.1,3.5-4.4,3.7h0Z"/>
    <path class="d" d="m412.016,40.516c0,2.2-.9,3.6-2.8,3.8-2.4.3-4.1-.8-4.3-3.4-.1-2,1.3-3.1,3.1-3.2,2.2-.2,3.5,1,4,2.8h0Z"/>
    <path class="e" d="m453.916,13.916c-2.1-.6-4.1-1.7-3.9-4.1.2-2.3,1.7-3.7,4.3-3.5,1.8.2,3.7.5,3.6,2.6-.1,2.3-1.1,4.5-4,5h0Z"/>
    <path class="e" d="m8.716,50.016c0,3.1-.9,4.8-3.6,5-2.2.1-3.9-.9-3.8-3.2.1-2.2,1.1-4.1,3.8-4.3,2.3-.2,3.7.6,3.6,2.5h0Z"/>
    <path class="e" d="m218.116,11.116c0,2.3-1,3.8-3.3,4-2.5.2-4.1-1-4.2-3.6,0-2.4,1.9-3.3,3.7-3.6,2.4-.4,3.5,1.1,3.8,3.2h0Z"/>
    <path class="d" d="m49.616,117.916c-.3,2.2-1.8,3.3-3.8,3.4s-3.2-1.2-3.2-3.1c0-2.5,1.6-3.8,4.1-3.7,1.9,0,2.8,1.4,2.9,3.4h0Z"/>
    <path class="e" d="m365.416,184.716c-2.4-.3-3.3-1.8-3.2-3.9.1-2.3,1.4-3.4,3.7-3.5,2.2,0,3.8,1,3.6,3.3-.2,2.3-1.9,3.6-4.1,4.1h0Z"/>
    <path class="e" d="m465.116,7.616c2.1.2,3.8,1.2,3.4,3.6-.4,2.2-2,3.8-4.4,3.8-2,0-2.9-1.5-2.9-3.4-.1-2.6,1.3-3.9,3.9-4h0Z"/>
    <path class="e" d="m427.716,178.816c2,.7,3.5,1.9,3.5,4,0,2.8-2.1,3.3-4.4,3.3-2.7,0-3.1-1.7-2.9-3.8.1-2.4,1.9-3,3.8-3.5h0Z"/>
    <path class="d" d="m276.316,126.316c-2.1-.2-3.7-1.1-3.7-3.5,0-1.9,1.2-3.2,3.2-3.3,2.3-.1,3.6,1.2,3.7,3.4.1,2.1-1.4,2.9-3.2,3.4h0Z"/>
    <path class="d" d="m93.416,39.216c-2.3-.1-3.7-1.1-4-3-.3-2,1-3.3,2.8-3.6,2.2-.3,3.8.8,4,3.1.2,2.2-1.4,2.9-2.8,3.5h0Z"/>
    <path class="d" d="m419.416,37.816c2.1.5,3.8,1.4,4,3.5s-1.4,3-3.2,3c-2.1,0-3.6-1.1-3.8-3.3-.1-2,1.2-2.9,3-3.2h0Z"/>
    <path class="d" d="m189.816,112.616c-.2,2.1-1.5,2.9-3.5,2.9-2.3-.1-3.7-1.3-3.4-3.6.2-1.8,1.5-3.2,3.5-3,2.2,0,3.5,1.3,3.4,3.7Z"/>
    <path class="e" d="m150.016,180.016c-.2,2.2-1.4,3.4-3.6,3.4-2.6,0-4-1.3-3.8-3.9.1-2.4,2-3.3,3.9-3.2,1.8.2,3.5,1.2,3.5,3.7Z"/>
    <path class="d" d="m157.816,137.316c.1,2.7,2.3,6-2.1,7.3-1.6.5-3.1-.3-3.4-2-.7-4.3,2.8-4.4,5.5-5.3h0Z"/>
    <path class="d" d="m175.816,95.816c-2.3-.1-3.6-1-3.7-3-.2-2.2,1-3.7,3.2-4,2.2-.2,3.8.8,3.8,3.2,0,2.2-1.6,3.2-3.3,3.8h0Z"/>
    <path class="d" d="m371.516,49.216c-.4,1.9-1.4,3.3-3.5,3.1-2.3-.3-3.3-1.8-3.1-4,.2-1.7,1.3-2.8,3-2.7,2.2.1,3.5,1.4,3.6,3.6h0Z"/>
    <path class="d" d="m73.816,40.516c2,.1,3.4,1.1,3.4,3,0,2.1-1.1,3.6-3.4,3.7-2,.1-3.2-.9-3.3-3-.2-2.3,1.3-3.3,3.3-3.7h0Z"/>
    <path class="e" d="m95.916,10.316c0,2.1-1,3.3-3,3.5-2.5.3-4.2-.7-4.4-3.3-.2-2.5,1.5-3.5,3.5-3.7,2.2-.1,3.2,1.7,3.9,3.5h0Z"/>
    <path class="d" d="m86.816,38.916c-.2,2.2-1.4,3.6-3.6,3.7-1.8,0-3.4-.8-3.5-2.9,0-2.3,1.3-3.6,3.5-3.7,2-.2,3.2.9,3.6,2.9h0Z"/>
    <path class="e" d="m176.316,9.016c2.4.3,3.3,1.8,3.2,4-.1,2.3-1.5,3.5-3.8,3.4-2.4-.1-3.4-1.9-3.3-3.8.2-2.1,1.9-3.2,3.9-3.6h0Z"/>
    <path class="d" d="m187.616,64.816c-2-.1-3.4-.9-3.4-3,0-1.7,1.1-2.9,2.7-3,1.8-.2,3.5.4,3.6,2.6.3,2-1,3.1-2.9,3.4h0Z"/>
    <path class="d" d="m130.516,148.216c-.1,2.3-1.3,3.5-3.2,3.6-2.3.2-3.6-1.3-3.6-3.5,0-2,1.5-3,3.4-3,2,.1,3,1.3,3.4,2.9h0Z"/>
    <path class="e" d="m140.316,6.416c3,0,3.4,1.6,3.3,3.5-.1,2.1-.8,3.9-3.3,3.9-2.1-.1-3.8-1.5-3.8-3.6.1-2.5,2.2-3.4,3.8-3.8h0Z"/>
    <path class="d" d="m247.016,154.716c-.2,1.8-1,3.3-3,3.4-2.2.1-3.7-1-3.6-3.3.1-1.9,1.3-3,3.2-3.1,2.1-.1,3.1,1.1,3.4,3h0Z"/>
    <path class="d" d="m154.716,151.116c-.6,1.8-1,3.8-3.4,3.9-2,0-3.1-1.3-2.9-3.3.2-2.1,1.7-3.4,3.8-3.6,1.7-.1,2.5,1.1,2.5,3h0Z"/>
    <path class="d" d="m174.816,102.416c-.4,2.3-1.6,3.7-3.8,3.6-2-.1-3-1.6-2.7-3.5.2-1.9,1.5-3,3.4-3.1,2.3-.2,2.8,1.4,3.1,3h0Z"/>
    <path class="d" d="m182.516,81.816c-.4,2.4-1.6,3.8-3.8,3.6-1.8-.1-2.5-1.5-2.3-3.2.3-1.7.9-3.4,3-3.5,2.3-.1,2.8,1.6,3.1,3.1h0Z"/>
    <path class="d" d="m58.416,136.416c1.9.4,3.2,1.4,3.2,3.4,0,2.3-1.6,3.5-3.8,3.3-2-.1-3-1.6-2.8-3.6.3-1.9,1.4-3,3.4-3.1h0Z"/>
    <path class="d" d="m275.816,142.816c-2-.3-3.1-1.6-3-3.4.1-2.2,1.5-3.4,3.8-3.1,2,.2,3,1.6,2.6,3.5-.3,1.7-1.4,2.9-3.4,3h0Z"/>
    <path class="d" d="m68.116,151.416c-2.1-.2-3-1.5-2.8-3.5.2-2.2,1.5-3.6,3.8-3.3,2.2.2,2.4,2.1,2.4,3.9-.1,2.1-1.4,2.9-3.4,2.9h0Z"/>
    <path class="e" d="m120.316,12.416c-.5,2.4-2.3,2.9-4.3,2.9-2.6,0-3.2-1.5-3-3.8.2-2.4,1.8-2.6,3.7-2.5,2,0,3.5.9,3.6,3.4h0Z"/>
    <path class="d" d="m68.316,48.216c-.3,2.3-1.7,3.6-3.9,3.6-1.7,0-2.8-1.2-2.5-3,.3-1.9,1.6-3,3.5-3.2,1.9-.1,2.7,1,2.9,2.6Z"/>
    <path class="d" d="m51.316,125.916c1.9.1,3.3,1.1,3.3,3,.1,2.2-1.3,3.6-3.5,3.6s-3.5-1.5-3.3-3.7c.1-1.9,1.5-2.9,3.5-2.9h0Z"/>
    <path class="e" d="m127.116,15.216c-2.1,0-3.8-.9-3.7-3.2.1-2.3,1.9-3,4-3.1,1.9,0,3.4.5,3.3,2.7-.1,2.3-1.4,3.4-3.6,3.6h0Z"/>
    <path class="d" d="m298.816,38.516c-.1,2.2-1.2,3.5-3.5,3.6-1.9,0-3.4-.7-3.6-2.7-.2-2.4,1.5-3.3,3.6-3.5,1.9-.3,3.3.5,3.5,2.6h0Z"/>
    <path class="d" d="m279.716,103.716c0,2.3-1.1,3.5-3.1,3.6-1.9,0-3.3-1.1-3.4-3-.2-2,1.1-3.2,3.1-3.2,1.8-.1,3.2.8,3.4,2.6h0Z"/>
    <path class="e" d="m302.116,177.416c2.4.1,3.3,1.5,3.4,3.7.1,1.7,0,3.5-2.3,3.7-2.2.2-3.7-.9-3.9-3.1-.3-2.2.5-3.8,2.8-4.3h0Z"/>
    <path class="e" d="m94.716,175.916c2.2.2,3.7,1.1,3.7,3,0,2.8-2.1,3.3-4.4,3.3-2.1,0-3.1-1-2.9-3.1.2-2.3,1.8-3.1,3.6-3.2h0Z"/>
    <path class="e" d="m477.816,175.516c-2-.6-3.5-1.8-3.6-3.9-.2-2.4,1.4-3.3,3.6-3.3,2.1,0,3.1,1.6,3.3,3.2.3,2.2-1.4,3.3-3.3,4Z"/>
    <path class="e" d="m480.316,160.816c0,1.8-.3,3.4-2.6,3.4-2.2,0-3.5-1.2-3.6-3.4-.1-2.2.8-3.9,3.1-3.8,2.3-.1,3,1.6,3.1,3.8h0Z"/>
    <path class="d" d="m399.916,153.016c1.9.3,3,1.6,3,3.5,0,2-1.1,3.3-3.1,3.2-2-.1-2.9-1.4-2.9-3.4,0-2.1.8-3.3,3-3.3h0Z"/>
    <path class="d" d="m44.316,86.516c-1.9,0-3.2-1-3.3-3-.1-2.2.9-3.8,3.3-3.8,2.1-.1,3,1.3,3,3.3s-1,3.1-3,3.5h0Z"/>
    <path class="d" d="m276.916,36.616c1.7.3,2.7,1.3,2.7,3,0,2-1,3.3-3.1,3.1-1.7-.2-2.5-1.6-2.4-3.3,0-1.7.9-2.7,2.8-2.8h0Z"/>
    <path class="d" d="m190.816,55.716c-2-.1-3.2-1-3.3-3-.1-2,.9-3.3,2.8-3.5,2-.2,3.1,1,3.3,3,.1,1.9-.9,3-2.8,3.5h0Z"/>
    <path class="d" d="m183.216,76.516c-2.2,0-3.2-1.2-3.4-3-.2-1.8.5-3.4,2.4-3.8,2-.4,3.3.7,3.6,2.6.4,2.1-.5,3.6-2.6,4.2h0Z"/>
    <path class="e" d="m108.716,10.816c-.2,2-1.4,3-3.3,3.1-2.2.1-3.8-.8-3.9-3.1-.1-2,1.4-3,3.3-3.1,2.1-.1,3.6.8,3.9,3.1h0Z"/>
    <path class="d" d="m81.816,152.716c-.1,1.9-.9,3.1-2.7,3-2.2-.1-3.6-1.3-3.5-3.7.1-1.7.7-3,2.6-2.9,2.3.1,3.3,1.6,3.6,3.6Z"/>
    <path class="d" d="m157.916,137.416c-.1-.4-.1-.9-.3-1.2-1.3-2.5-2-4.9,1.3-6.4,1.2-.5,2.8-.2,3.3,1.1,1.2,3.1-.4,4.8-3.2,5.8-.5.1-.9.4-1.1.7h0Z"/>
    <path class="d" d="m381.116,94.916c-.1,2-1.3,3.1-3.2,3.2-1.6,0-2.8-1-2.8-2.7,0-1.9.8-3.3,2.8-3.5,2.1-.1,3.1,1.1,3.2,3h0Z"/>
    <path class="d" d="m180.416,111.916c-.1,2-1.1,3.1-3.1,3.3-2,.2-3.3-.8-3.5-2.8-.1-1.9,1-3.2,3-3.3,2-.1,3.2.9,3.6,2.8h0Z"/>
    <path class="e" d="m35.816,6.316c2,.2,3.5,1,3.5,3,0,2.4-1.6,3.3-3.8,3.2-1.9,0-3.4-1-3.4-3-.1-2.3,1.6-3.1,3.7-3.2h0Z"/>
    <path class="e" d="m331.016,184.716c-2.3-.4-3.6-1.4-3.3-3.5.3-2,1.6-3.7,3.8-3.6,1.7.1,3.3,1.5,3.1,3.4-.2,2.3-2.1,3.1-3.6,3.7h0Z"/>
    <path class="d" d="m163.216,124.716c-2.4-.2-3.5-1.4-3.6-3.3-.1-1.7,1.1-2.8,2.8-2.9,2.2-.2,3,1.1,3,3.1,0,1.8-.8,2.8-2.2,3.1h0Z"/>
    <path class="d" d="m370.716,112.416c-.3,1.9-1.4,3.1-3.4,2.9-2.2-.1-2.7-1.7-2.6-3.5.1-1.9,1-3.3,3.1-3,1.9.3,2.8,1.8,2.9,3.6h0Z"/>
    <path class="e" d="m5.516,71.816c-2.1,0-3.1-.9-3.1-3,0-2.5,1.2-3.4,3.5-3.3,2.2.1,2.8,1.4,2.8,3.4-.1,2.1-1.2,2.9-3.2,2.9h0Z"/>
    <path class="d" d="m413.916,157.016c-.3,1.9-1.2,3.1-3.3,3-1.6-.2-2.8-1.1-2.8-2.8.1-1.9,1.3-3,3.3-2.9,1.8,0,2.7,1,2.8,2.7h0Z"/>
    <path class="d" d="m379.016,152.816c2,.2,3,1.3,2.9,3.3-.1,1.7-1.3,2.6-3,2.6-2.1,0-2.9-1.5-2.9-3.3,0-1.9,1.3-2.5,3-2.6h0Z"/>
    <path class="e" d="m8.616,3.416c0,2.2-1.3,2.9-3.3,2.9-2.6,0-3.2-1.6-3-3.8C2.516.216,4.016-.084,5.916.016c2.3,0,2.8,1.4,2.7,3.4h0Z"/>
    <path class="d" d="m324.716,36.816c1.8.1,3,1,3.1,2.7.1,1.8-1.2,2.6-2.9,2.6-1.9,0-3.6-.5-3.3-2.8.1-1.8,1.6-2.2,3.1-2.5h0Z"/>
    <path class="d" d="m200.716,35.816c-.3,1.8-1.3,3-3.3,3-1.7-.1-2.7-1.2-2.7-2.9,0-2,1.2-3.2,3.1-3.1,1.7.2,2.7,1.3,2.9,3h0Z"/>
    <path class="e" d="m4.716,75.816c2.5.1,3.8,1.3,3.9,3.6.1,1.9-1,2.6-2.8,2.7-1.9.1-3.4-.4-3.4-2.7-.1-2,.2-3.5,2.3-3.6h0Z"/>
    <path class="d" d="m106.316,35.716c0,1.7-.7,3-2.5,3.1-1.9,0-3.4-.8-3.4-3,0-1.9,1.4-2.6,3-2.8,1.7-.2,2.7.9,2.9,2.7h0Z"/>
    <path class="e" d="m7.316,18.016c-.2,2-1.1,3.4-3.1,3.4-1.9,0-3.2-1.2-3-3.2s1.5-3.7,3.5-3.7c2.2,0,2.6,1.9,2.6,3.5h0Z"/>
    <path class="e" d="m4.616,98.916c2.3,0,2.8,1.4,2.8,3.3-.1,1.8-.8,2.8-2.7,2.8-2,0-3.4-1-3.4-3-.1-2,1.3-2.9,3.3-3.1h0Z"/>
    <path class="d" d="m59.816,54.816c-.1,1.8-1.2,2.6-2.9,2.6s-2.9-.7-2.9-2.5c0-2,1.1-3.2,3.1-3.1,1.8.2,2.6,1.3,2.7,3Z"/>
    <path class="d" d="m170.316,110.916c-.3,2.1-1.4,3.2-3.4,3.1-1.8,0-2.6-1-2.7-2.8,0-1.9.6-3.3,2.8-3.3,2,.1,3,1.3,3.3,3h0Z"/>
    <path class="d" d="m193.316,41.216c2.2-.1,3.3.8,3.6,2.4.3,1.9-.6,3.3-2.5,3.6-1.7.3-2.8-.5-3-2.3-.3-1.9.3-3.3,1.9-3.7Z"/>
    <path class="d" d="m425.016,156.316c-.2,1.8-1.1,2.7-2.9,2.6-1.9-.1-3.3-1.1-3-3.2.2-2,1.7-2.9,3.6-2.6,1.8.3,2.3,1.6,2.3,3.2h0Z"/>
    <path class="d" d="m129.616,45.616c-1.8-.1-2.6-1.1-2.6-2.9.1-1.7,1.1-2.7,2.8-2.7,1.7.1,2.8,1.1,2.7,2.8,0,1.8-1.3,2.6-2.9,2.8h0Z"/>
    <path class="d" d="m398.716,38.716c1.8.3,3.3,1.1,3,3.2-.2,1.8-1.6,2.5-3.2,2.4-1.8-.1-3.3-1-3.1-3.2.2-1.8,1.6-2.4,3.3-2.4h0Z"/>
    <path class="d" d="m46.816,107.116c-.4,1.9-1.5,3.1-3.5,3-1.9-.1-2.4-1.5-2.3-3.2.1-1.8,1.2-2.7,3-2.6,1.6,0,2.6,1,2.8,2.8h0Z"/>
    <path class="d" d="m371.016,59.616c-.1,1.6-.7,2.9-2.5,3-2,.1-3.3-1.1-3.3-3s1.2-3.1,3.3-3c1.8.1,2.4,1.4,2.5,3h0Z"/>
    <path class="e" d="m192.116,11.316c-.6,1.9-1.7,3.4-3.5,3.4-1.7,0-3.6-.7-3.6-2.8,0-2.4,1.8-3.1,3.9-3,1.7.1,2.8,1,3.2,2.4h0Z"/>
    <path class="e" d="m155.116,11.116c0,2.2-1.3,2.8-3.2,2.8-2.1,0-3.1-1-2.9-3,.2-1.9,1.2-3.2,3.2-3.1,1.9.1,2.8,1.5,2.9,3.3h0Z"/>
    <path class="d" d="m235.916,126.416c-.1,1.7-.7,3-2.6,2.9-2,0-3.1-1.3-3.3-3.2-.2-1.8.7-2.9,2.6-2.9,2,.1,3,1.3,3.3,3.2Z"/>
    <path class="d" d="m369.716,143.816c0,1.8-.8,2.9-2.5,3.1-2.1.2-3.2-1-3.3-3-.1-1.9,1.1-2.6,2.8-2.7,1.7,0,2.9.7,3,2.6h0Z"/>
    <path class="d" d="m120.516,150.916c-.1,1.7-.8,2.9-2.7,2.9-2.1,0-3.2-1.2-3-3.2.2-1.7,1.4-2.6,3.1-2.6,1.9-.1,2.5,1.2,2.6,2.9h0Z"/>
    <path class="e" d="m241.816,182.116c-2-.4-3.2-1.5-2.8-3.5.3-2,1.8-2.7,3.7-2.6,1.9.1,2.4,1.4,2.3,3-.2,2-1.3,3-3.2,3.1h0Z"/>
    <path class="d" d="m89.016,156.416c-1.6-.2-2.9-1-2.9-2.7,0-2.3,1.4-3.4,3.6-3.4,1.9,0,2.6,1.2,2.5,2.9-.2,1.9-1.2,3.1-3.2,3.2h0Z"/>
    <path class="d" d="m220.316,84.816c1.8.1,2.7,1.1,2.5,2.9-.1,1.4-.9,2.4-2.4,2.5-1.8.2-2.8-1-2.9-2.6,0-1.7,1.1-2.7,2.8-2.8h0Z"/>
    <path class="d" d="m370.616,40.716c-.1,1.5-.8,2.4-2.3,2.4-1.8.1-2.8-1-2.9-2.7-.1-1.6.7-3,2.5-2.8,1.7.2,2.6,1.4,2.7,3.1h0Z"/>
    <path class="d" d="m367.116,120.916c1.5.2,2.5,1.1,2.3,2.9-.2,1.4-1,2.3-2.4,2.4-1.8.2-2.8-.9-2.8-2.6-.1-1.6.9-2.7,2.9-2.7Z"/>
    <path class="d" d="m377.816,37.516c1.8,0,2.9,1,3,2.6.1,1.7-1,2.8-2.7,2.9-1.8.2-2.9-.7-2.8-2.5,0-1.7.9-2.7,2.5-3h0Z"/>
    <path class="d" d="m370.816,69.916c0,1.7-.9,2.8-2.6,2.8s-2.8-.9-2.9-2.6,1-2.8,2.6-2.8c1.7-.1,2.7,1,2.9,2.6h0Z"/>
    <path class="e" d="m210.316,179.916c-.1,1.9-1,3.3-2.9,3.4-2,.1-3.2-1.1-3.1-3.1s1.4-2.9,3.3-3c1.8,0,2.7.9,2.7,2.7Z"/>
    <path class="e" d="m15.016,6.416c1.9,0,2.6,1.1,2.5,2.8-.1,1.9-1.1,3.3-3.1,3.3-1.9,0-3.1-1.3-2.9-3.3.2-2,1.7-2.8,3.5-2.8h0Z"/>
    <path class="d" d="m277.216,65.716c.5,2.2,4,3.8,1.6,6.5-.8.9-2.1.9-2.9.2-2.8-2.5.9-4.4,1.3-6.7Z"/>
    <path class="e" d="m55.416,13.816c-1.6-.2-2.8-1.1-2.8-2.8,0-2.4,1.5-3.3,3.7-3.3,1.9,0,2.5,1.3,2.4,2.9-.2,1.9-1.3,3.1-3.3,3.2h0Z"/>
    <path class="d" d="m102.216,153.016c.1,1.9-1,2.7-2.6,3.1-1.6.3-3-.1-3.3-1.9-.4-2.1.9-3.2,2.7-3.4,1.6-.1,2.9.6,3.2,2.2h0Z"/>
    <path class="d" d="m367.716,153.116c1.8.2,3.1.9,3.1,2.7.1,2.1-1.2,3.1-3.1,3.2-1.7.1-2.9-.6-2.9-2.5,0-2.1,1.3-3,2.9-3.4h0Z"/>
    <path class="d" d="m389.616,152.916c2.1.3,3.2,1.5,3.2,3.5,0,1.8-1.2,2.7-2.9,2.7-2-.1-3.1-1.3-3-3.3,0-1.9,1.2-2.6,2.7-2.9h0Z"/>
    <path class="e" d="m325.916,12.016c-.2,2-1.3,3-3.2,3.2-1.7.1-2.8-.6-2.9-2.5,0-1.9.8-3.3,2.7-3.6,2.1-.2,3.1,1,3.4,2.9h0Z"/>
    <path class="d" d="m430.716,154.416c1.7.3,2.8,1.2,2.6,2.9-.2,1.7-1.3,2.6-3.1,2.4-1.4-.2-2.3-1.2-2.3-2.6,0-1.7,1-2.7,2.8-2.7h0Z"/>
    <path class="d" d="m230.816,110.316c-.1,2.2-1.1,3.2-2.7,3.3-1.7,0-2.8-1.1-2.6-2.8.2-1.7,1.3-2.6,3-2.5,1.5-.1,2,1.1,2.3,2h0Z"/>
    <path class="e" d="m8.516,32.516c-.1,2-1.3,3.1-3.2,3.2-1.7.1-2.9-.5-2.9-2.4s.7-3.3,2.7-3.6,3,.9,3.4,2.8h0Z"/>
    <path class="e" d="m278.416,181.816c-.4,2-1.6,2.9-3.5,2.9-1.8,0-2.7-1-2.6-2.8.2-2,1.7-2.9,3.4-3,1.9-.1,2.5,1.3,2.7,2.9Z"/>
    <path class="e" d="m5.516,166.716c-1.7-.2-2.8-1-3-2.7-.2-2,1-3.2,2.9-3.3,1.6-.1,2.8,1,2.9,2.6.3,2.1-.9,3.1-2.8,3.4Z"/>
    <path class="d" d="m111.116,151.716c0,1.9-1,2.8-2.7,3-1.4.2-2.5-.6-2.8-2-.4-1.7.6-2.9,2.2-3.2,1.8-.2,2.9.6,3.3,2.2h0Z"/>
    <path class="e" d="m185.816,178.816c0,2-1.1,3.2-3,3.3-1.6,0-2.8-1-2.9-2.7-.2-2,1-3.2,2.9-3.3,1.7,0,2.7,1,3,2.7h0Z"/>
    <path class="e" d="m160.216,179.116c-.3,1.9-1.3,3.1-3.4,2.9-1.7-.1-2.7-1.3-2.7-3,.1-1.9,1.3-3.1,3.3-2.9,1.7.2,2.6,1.4,2.8,3h0Z"/>
    <path class="d" d="m285.316,36.516c1.9.2,3.2.9,3.1,2.8-.1,1.5-1.3,2.3-2.6,2.2-1.6,0-2.9-.9-2.8-2.8,0-1.6,1.3-1.8,2.3-2.2h0Z"/>
    <path class="d" d="m318.516,38.816c0,1.7-.8,2.9-2.5,3.1-1.4.1-2.5-.6-2.6-2.1-.2-1.6.2-3.1,2.1-3.4,1.7-.3,2.7.7,3,2.4h0Z"/>
    <path class="d" d="m429.916,38.916c1.5.4,2.8,1.1,2.6,3-.2,1.8-1.6,2.4-3.2,2.3-1.4-.2-2.4-1.1-2.4-2.5,0-1.8,1.2-2.8,3-2.8h0Z"/>
    <path class="e" d="m8.516,143.116c-.3,1.9-1.3,3.1-3.3,2.9-1.7-.1-2.7-1.3-2.7-3,.1-1.9,1.2-3.1,3.3-3,1.7.3,2.5,1.5,2.7,3.1Z"/>
    <path class="d" d="m367.616,135.916c-1.8,0-2.7-1-2.8-2.7-.1-1.6.4-3,2.3-3,1.6.1,2.7,1.1,2.9,2.7.3,1.8-.6,2.8-2.4,3h0Z"/>
    <path class="e" d="m461.016,184.016c-.2,1.6-.9,3.1-2.7,2.9-1.7-.2-3.2-1.5-3.1-3.4.1-1.8,1.6-2.3,3.2-2.3,1.9-.1,2.6,1,2.6,2.8h0Z"/>
    <path class="e" d="m50.116,174.716c1.6.2,3.1.7,3,2.5s-1.4,3.2-3.3,3.3c-1.8.1-2.4-1.5-2.5-3.1,0-1.8,1-2.7,2.8-2.7Z"/>
    <path class="d" d="m370.916,91.416c0,1.7-.5,3-2.4,3.1-1.6.1-2.3-.9-2.3-2.4,0-1.6.4-3.1,2.4-3.1,1.5-.1,2.2,1,2.3,2.4h0Z"/>
    <path class="e" d="m253.716,183.416c-2-.1-3.2-1.1-3.2-3.1,0-1.4.7-2.5,2.1-2.7,2-.2,3.1,1.3,3.6,2.9.4,1.8-.9,2.6-2.5,2.9h0Z"/>
    <path class="d" d="m228.016,101.216c0,1.4-.6,2.4-2.1,2.6-1.6.2-3.1-.2-3.2-2.1-.1-1.7,1-2.7,2.7-2.8,1.5,0,2.4.8,2.6,2.3Z"/>
    <path class="e" d="m47.816,12.516c-1.7-.2-2.8-1.2-2.9-2.9s.9-2.9,2.6-3.1c1.9-.2,2.7,1.3,2.8,2.8.1,1.6-.7,2.9-2.5,3.2h0Z"/>
    <path class="e" d="m4.916,123.116c-1.9-.1-2.6-1.2-2.4-2.9.2-1.6,1.4-2.1,2.7-2,1.6.1,3.1.7,2.9,2.6-.1,1.8-1.6,2.3-3.2,2.3Z"/>
    <path class="d" d="m368.416,83.116c-1.6-.2-2.2-1.2-2.1-2.6s.8-2.5,2.3-2.4,2.1,1.3,2.1,2.7c.1,1.6-.7,2.3-2.3,2.3h0Z"/>
    <path class="d" d="m53.516,63.016c-.2,1.6-1.1,2.3-2.6,2.2-1.5,0-2.5-.8-2.5-2.3,0-1.9,1.2-2.6,2.9-2.5,1.5.1,2.2,1.1,2.2,2.6h0Z"/>
    <path class="e" d="m118.916,181.216c0,1.9-1.1,2.3-2.5,2.3-1.6,0-3.1-.6-3.1-2.5,0-1.5,1.2-2.2,2.6-2.3,1.7-.1,2.7.9,3,2.5h0Z"/>
    <path class="d" d="m218.416,73.016c-.1,1.4-.7,2.4-2.2,2.4-1.7-.1-2.7-1.1-2.7-2.8,0-1.2.7-1.9,1.9-1.9,1.7-.1,2.8.5,3,2.3Z"/>
    <path class="d" d="m307.916,39.616c-.1,1.5-.9,2.3-2.4,2.3-1.2,0-2-.7-2.1-1.9-.1-1.4.6-2.4,2.1-2.6,1.5-.1,2.3.7,2.4,2.2Z"/>
    <path class="d" d="m48.416,72.716c-.1,1.8-.8,2.7-2.3,2.8-1.9.1-2.8-.9-2.6-2.7.1-1.5,1.1-2.1,2.6-2.1,1.6-.1,2.2.9,2.3,2h0Z"/>
    <path class="e" d="m80.516,10.316c-.1,1.5-.9,2.3-2.4,2.3s-2.4-.7-2.4-2.2c-.1-1.9.9-2.7,2.7-2.6,1.5,0,2.2,1,2.1,2.5Z"/>
    <path class="e" d="m135.816,183.516c-1.5-.1-2.5-.8-2.2-2.4.3-1.4,1.2-2.3,2.6-2.3,1.7-.1,2.1,1.1,2.1,2.5,0,1.5-1,2.2-2.5,2.2h0Z"/>
  </g>
</svg>