<?xml version="1.0" encoding="UTF-8"?>
<svg id="b" data-name="Layer 2" xmlns="http://www.w3.org/2000/svg" width="321.522" height="282.677" viewBox="0 0 321.522 282.677">
  <defs>
    <style>
      .d {
        stroke-width: 0px;
      }
    </style>
  </defs>
  <g id="c" data-name="b">
    <path class="d" d="m321.522,50.031c-2.271,7.541-4.618,15.059-6.791,22.629-10.234,35.659-20.411,71.334-30.624,106.998-1.911,6.674-4.799,8.81-11.783,8.811-55.173.004-110.345.002-165.518.003-7.536,0-11.918,3.469-11.918,9.422,0,5.954,4.382,9.422,11.919,9.422,55.068.001,110.136,0,165.204.001,7.543,0,11.913,3.46,11.914,9.421,0,5.981-4.344,9.42-11.907,9.423-.04,0-.079,0-.119,0-2.5.001-3.41,3.253-1.299,4.592,10.591,6.72,14.549,18.277,12.884,28.532-2.097,12.92-14.383,23.491-27.916,23.389-14.657-.11-26.445-10.927-27.932-26.121-.919-9.385,3.265-19.605,12.82-25.7,2.075-1.324,1.099-4.552-1.363-4.552h-99.075c-2.466,0-3.411,3.192-1.355,4.554,2.902,1.923,5.449,4.383,7.577,7.455,4.495,6.487,5.897,13.699,4.591,21.505-2.163,12.923-15.088,23.389-28.35,22.841-15.06-.623-26.372-11.694-27.531-26.945-.759-9.986,4.436-19.333,12.987-24.976,2.052-1.354,1.149-4.538-1.309-4.564-.616-.006-1.232-.015-1.848-.026-13.14-.24-23.704-7.975-27.421-19.997-3.971-12.845,1.583-26.48,13.426-32.972.226-.124.449-.251.676-.383.936-.545,1.416-1.63,1.181-2.687-11.058-49.769-22.096-99.441-33.175-149.303-.252-1.135-1.262-1.943-2.425-1.943-5.395,0-10.698,0-16,0-10.364,0-20.73.065-31.093-.025-7.196-.062-11.819-6.56-9.214-12.867C2.274,2.241,5.21.089,9.238.072c19.053-.084,38.108-.108,57.161.004,5.133.03,8.401,3.034,9.6,8.282,2.066,9.041,4.049,18.102,6.114,27.403.252,1.135,1.26,1.946,2.422,1.946h2.086c74.122,0,148.244.043,222.365-.084,4.912-.008,8.748,1.107,11.336,4.708l1.2,7.701Z"/>
  </g>
</svg>