<?xml version="1.0" encoding="UTF-8"?>
<svg id="b" data-name="Layer 2" xmlns="http://www.w3.org/2000/svg" width="4897.517" height="780.365" viewBox="0 0 4897.517 780.365">
  <defs>
    <style>
      .d {
        fill: #4b8240;
      }

      .d, .e, .f, .g, .h, .i, .j, .k, .l, .m, .n, .o, .p, .q, .r, .s, .t, .u, .v, .w, .x, .y, .z, .aa, .ab, .ac, .ad, .ae, .af, .ag, .ah, .ai, .aj, .ak, .al, .am, .an, .ao, .ap, .aq, .ar, .as, .at, .au, .av, .aw, .ax, .ay, .az, .ba, .bb {
        stroke-width: 0px;
      }

      .e {
        fill: #262e20;
      }

      .f {
        fill: #47803c;
      }

      .g {
        fill: #49853e;
      }

      .h {
        fill: #2b3225;
      }

      .i {
        fill: #2a3124;
      }

      .j {
        fill: #9aa098;
      }

      .k {
        fill: #304e2e;
      }

      .l {
        fill: #353b2f;
      }

      .m {
        fill: #407137;
      }

      .n {
        fill: #141e0f;
      }

      .o {
        fill: #141e0e;
      }

      .p {
        fill: #1b2416;
      }

      .q {
        fill: #141d0e;
      }

      .r {
        fill: #141d0f;
      }

      .s {
        fill: #151f10;
      }

      .t {
        fill: #151f0f;
      }

      .u {
        fill: #151e0f;
      }

      .v {
        fill: #417437;
      }

      .w {
        fill: #20281a;
      }

      .x {
        fill: #1f2719;
      }

      .y {
        fill: #172210;
      }

      .z {
        fill: #162010;
      }

      .aa {
        fill: #252c1f;
      }

      .ab {
        fill: #131d0d;
      }

      .ac {
        fill: #cad5c7;
      }

      .ad {
        fill: #acb3aa;
      }

      .ae {
        fill: #acb2ab;
      }

      .af {
        fill: #e2d335;
      }

      .ag {
        fill: #dbcd30;
      }

      .ah {
        fill: #a7aea5;
      }

      .ai {
        fill: #a5aba3;
      }

      .aj {
        fill: #b1b6af;
      }

      .ak {
        fill: #adb2ab;
      }

      .al {
        fill: #afb4ad;
      }

      .am {
        fill: #a9aea7;
      }

      .an {
        fill: #cec2a9;
      }

      .ao {
        fill: #b4b9b3;
      }

      .ap {
        fill: #c2c6c1;
      }

      .aq {
        fill: #90968d;
      }

      .ar {
        fill: #314f2f;
      }

      .as {
        fill: #314f2e;
      }

      .at {
        fill: #314e2e;
      }

      .au {
        fill: #31502f;
      }

      .av {
        fill: #32502f;
      }

      .aw {
        fill: #325030;
      }

      .ax {
        fill: #8d938a;
      }

      .ay {
        fill: #969e93;
      }

      .az {
        fill: #969d93;
      }

      .ba {
        fill: #a1a79f;
      }

      .bb {
        fill: #9fa59d;
      }
    </style>
  </defs>
  <g id="c" data-name="Layer 1">
    <g>
      <path class="g" d="m4837.923,499.913c18.787-10.736,37.447-7.649,56.346-1.969.313.094.638.182.97.267v-21.933c-10.418.121-20.837.22-31.249.015-7.597-.149-16.358,3.826-22.717-4.057-13.117.977-17.65,11.629-23.467,20.821,4.045,10.103,12.666,11.114,20.116,6.856Z"/>
      <path class="g" d="m4895.239,515.012c-2.217-.585-4.336-1.25-6.187-1.859-15.622-5.142-29.973-3.763-45.828-.018-18.661,4.408-38.333,5.188-57.697,5.901-10.615.391-19.902-3.571-26.359-12.032-7.654-10.029-17.118-14.136-29.446-11.62-1.92.154-3.804.518-5.625,1.181-4.144,1.518-8.364,3.354-11.287,6.49-14.84,15.917-32.482,18.72-52.976,13.673-10.843-2.67-23.004-3.443-33.417.013-24.146,8.016-43.242,6.245-54.006-20.04-11.754,3.254-17.714,20.805-33.664,13.639-16.622,6.469-32.545,9.204-49.364-1.364-8.987-5.646-20.242-4.853-30.263,1.221-8.27,5.012-19.417,9.147-26.519,3.648-18.349-14.207-41.88-8.793-60.833-18.953-1.867-.318-3.745-.445-5.64-.294-38.253,15.186-75.473,10.94-111.956-6.052-3.207-1.493-7.933-2.704-7.094-7.358.729-4.042,5.184-4.821,8.68-6.15,9.741-3.703,21.611,1.495,30.128-7.235-19.528-8.641-40.047-.914-59.934-3.626-1.215-.673-3.278-.904-3.336-.379-2.347,21.275-17.956,25.632-35.277,28.131-2.321.335-4.341,2.408-6.413,3.809-12.588,8.518-25.246,10.304-38.308.871-6.378-4.606-13.202-6.653-21.137-3.43-27.085,11.001-56.465,9.447-84.501,11.655-32.672,2.573-65.846-.712-98.682,5.062-18.666,3.282-27.727-9.952-20.11-27.551,1.124-2.598.523-4.81-1.194-6.87-25.062-.76-49.679,9.574-75.563-.25-8.819-3.347-21.702-2.141-33.08-.655-42.915,5.606-85.403-2.013-127.962-6.377-1.882-.692-3.556-.221-5.178.832-4.912,3.187-7.018,12.795-14.281,9.581-7.855-3.476-1.864-10.873-1.274-16.537,1.031-9.905-4.347-14.391-11.692-8.605-11.465,9.033-21.782,9.565-33.953,2.949-2.518-1.369-5.927,1.033-8.576,2.684-10.093,13.362-21.741,22.109-39.579,14.041-2.729-1.235-6.154-.146-9.264.207-31.503,3.567-63,6.366-94.405-.948-3.664-.854-7.458-.813-11.163-.041-29.847,6.222-60.046,9.032-90.498,9.478-5.629.083-11.891-.406-16.384,2.941-20.711,15.428-39.288,2.096-58.412-3.716-3.735-1.135-6.936-3.627-5.457-8.247,1.311-4.095,4.906-5.372,8.924-5.28,4.504.102,8.27,2.554,12.353,4.046,20.524,7.504,41.439-1.366,62.142,1.15,2.266.275,3.187-3.421,3.697-5.888-.919-5.725-.685-12.179-8.606-13.425-8.466,11.616-19.657,2.624-29.182,2.974-39.294,1.448-78.668,1.409-117.996.779-10.717-.172-25.171,2.527-27.462-14.91-10.745,3.038-7.331,11.07-6.392,18.227.718,6.718,13.884,7.672,8.598,16.405-4.68,7.73-13.435,8.297-21.822,7.737-5.68-.379-10.939-2.516-16.287-4.252-6.56-2.128-13.206-3.706-20.162-3.991-49.807-2.035-99.701-1.701-149.46-3.731-46.471-1.896-93.464-.633-139.187-12.485-8.465-2.194-18.5-2.948-25.692,2.005-24.877,17.134-54.772,8.714-81.278,17.267-9.733,3.141-14.98-1.688-14.007-13.134,1.346-15.837-4.955-20.555-20.55-17.126-6.284,1.381-11.233,5.331-16.736,8.241-24.166,12.778-32.94,9.842-42.036-13.866-10.574-4.979-20.406-3.696-29.5,3.596-9.75,6.902-19.129,12.877-32.56,9.26-29.434-7.927-59.62-7.394-89.952-7.686-18.161-.174-35.449,4.925-53.731,3.696-20.411-1.372-41.097,2.232-61.083-5.367-4.68-1.779-9.789,1.146-14.708,1.826-14.991,2.073-29.152,13.492-43.11,11.135-24.512-4.139-48.653.9-72.779-1.877-25.533-2.939-49.897.167-72.505,13.096-7.311,4.181-15.108,6.996-23.325,4.277-21.365-7.068-43.355-4.8-65.183-5.246-24.293-.496-48.75,2.201-72.564-5.973-9.076-3.115-18.619-.676-27.29,3.728-8.579,4.357-17.792,7.367-27.178,4.989-16.594-4.205-33.143-3.695-50.066-3.837-18.83-.158-39.775-1.021-48.744-23.697-36.138-3.648-72.244,2.123-108.902-4.274-32.781-5.721-67.871,7.868-100.848-6.819-2.6,6.652,6.401,9.494,5.194,15.667.073,5.399-1.146,10.218-7.487,11.078-14.674,1.99-26.754,10.062-39.661,16.284-6.917,3.334-14.594,4.561-21.971,2.238-11.252-3.544-22.015-.436-33.155.17-37.258,2.024-74.136,10.847-111.805,6.172-17.881-2.219-34.165,6.337-51.256,9.557-3.936.742-5.649,4.61-5.657,8.755,2.672,9.138,2.899,18.132,1.129,27.673-3.014,16.245.753,19.448,16.573,16.173,4.294-.889,8.399-2.425,12.406-4.244,5.844-2.754,13.226-5.594,17.398-.231,6.734,8.659,15.363,12.081,25.143,14.635,3.545.926,7.814,2.586,7.658,6.92-.166,4.579-4.742,5.746-8.369,5.839-35.331.907-71.067,17.662-105.906-2.538-2.157-1.251-4.935-1.833-7.277-1.137-24.406,7.25-49.926.029-74.19,5.242-22.015,4.73-39.077-1.581-54.337-16.517-.953-.828-1.931-1.643-2.672-2.639-6.17-8.293-12.485-18.437-4.562-26.929,7.056-7.562,14.442,2.244,21.051,6.02,5.776,3.299,11.698,6.549,16.58-.121,7.972-10.893,14.3-9.593,21.377.849,6.992,10.316,14.423,7.588,21.131-.67,3.533-4.349,7.141-8.765,7.505-14.745-3.018-12.955-14.302-12.076-23.763-14.024-18.233-3.754-37.646-5.299-46.084-26.192-12.352-4.16-23.812-12.527-37.993-7.99-1.596.998-3.246,1.951-4.472,3.364-14.784,17.035-31.021,29.124-55.181,18.051-4.514-2.068-9.849-.374-14.768.498-19.025,3.373-38.019,4.067-57.458,3.933-16.833-.116-32.997-5.906-49.939-3.25-43.27,6.783-87.556-1.422-130.682,8.439-1.655.378-3.543-.984-5.237-1.799-4.165-1.445-7.038-6.789-12.562-4.019-.751,3.02-.143,9.489-5.62,3.672-12.055-12.803-27.372-17.598-43.924-17.104-33.539,1-67.039,3.304-100.555,5.069-.401,9.911,7.816,8.208,13.18,8.979,9.201,1.322,17.96,3.302,28.093,10.135-47.932-6.626-92.594,5.504-137.901,5.803-4.365.029-8.874.41-12.89,2.131-38.298,16.413-76.424,10.158-114.416-.948-6.8-1.988-13.281-3.423-20.134-1.277-9.444,2.957-18.253.667-27.469-1.937-22.524-6.363-45.432-10.502-69.073-6.654-9.081-8.094-8.313-24.781-23.849-27.322-.357,4.389-.49,8.63-6.733,8.915-40.302,1.838-80.211,10.76-120.844,6.657-3.014,6.852-1.897,14.2-2.541,21.327,2.267,9.667,10.993,8.794,17.847,10.854,7.146,2.147,15.82.832,21.515,5.739,17.514,15.094,36.98,26.75,57.907,36.27,3.426,1.558,6.707,4.127,5.559,8.608-1.135,4.431-5.362,4.968-9.022,5.234-13.556.985-26.588.39-33.664-14.161-2.567-5.279-6.274-8.95-12.218-10.684-22.563-6.584-42.057-20.542-65.083-26.576-9.169-2.403-15.882-5.065-23.528,2.506-9.846,9.749-21.236,9.108-32.704,2.58-7.615-4.334-15.192-9.665-24.386-8.104-12.667,2.15-24.85.385-37.099-2.319-8.765-1.935-17.389-2.824-24.613,4.273-3.287,3.23-6.744,2.396-10.274.441-6.243-4.545-9.004-11.237-11.611-18.219-1.239-3.321-1.587-9.492-8.248-5.899.746,7.791-2.586,10.77-10.593,11.37-2.305.172-4.61.346-6.913.494v224.516h4327.617c6.365-2.412,12.729-4.822,19.087-7.25,8.036-3.069,14.983-5.68,21.777,2.602,1.391,1.696,2.845,3.236,4.35,4.648h122.519c8.161-2.461,16.314-4.963,24.514-7.26,7.145-2.001,14.715-5.972,21.569-.509,4.041,3.221,8.144,5.768,12.3,7.769h66.162c44.496-11.505,86.86-28.874,128.849-47.155,10.026-4.365,18-6.222,27.439,1.553,8.512,7.011,20.503,9.999,30.309,5.968,28.937-11.896,60.055-18.612,88.746-31.11v-153.505Z"/>
      <path class="an" d="m4895.239,669.874c-1.83.608-3.667,1.253-5.521,1.964-9.228,3.543-15.675,3.604-26.689,1.409-30.28-6.034-58.368-12.314-73.301-25.445-19.121-16.814-81.132-16.53-117.108-9.861-28.544,5.291-60.873.669-86.635,8.154-4.441,1.291-7.492-1.104-8.435-2.666-6.863-11.373-34.216-17.779-43.929-29.018-8.863-10.253-40.385-11.07-68.624-14.042,13.775-5.656,33.526-4.48,42.464-9.051,16.722-8.551,37.861-11.814,64.642-13.367,21.712-1.258,35.271-8.367,37.256-17.298,2.102-9.455-10.578-15.969-31.377-20.218-15.654-3.198-33.028-3.65-50.213-4.284-71.101-2.625-142.241-7.676-213.178.527-2.439.282-5.109.281-7.682.362-10.107.318-22.236-4.803-30.048.962-7.712,5.691-5.429,11.773,1.509,17.489,2.56,2.109,5.4,4.314,9.472,5.968,9.141,3.711,9.292,6.609-1.748,9.873-16.344,4.833-24.181,11.141-19.384,19.395,4.194,7.218-9.606,4.875-17.344,4.273-71.016-5.524-142.334-10.595-212.722-17.166-56.955-5.317-112.692-12.598-169.109-18.815-11.237-1.238-18.909-2.845-17.405-8.088,1.077-3.76-1.261-7.487-6.228-10.661-6.451-4.122-4.785-7.09,3.467-10.669,16.071-6.971,13.28-14.779,2.988-22.511-26.37-19.808-92.909-33.222-149.942-30.242-35.334,1.847-56.938,12.113-50.917,25.204,4.951,10.763-10.167,18.17-28.047,23.838-30.153,9.558-37.198,16.397-22.746,30.238,3.891,3.726,8.898,7.443,10.455,11.342,5.302,13.281,25.516,21.59,55.453,27.119,7.749,1.431,15.451,3.08,22.197,5.119,13.218,3.997,21.224,7.336,5.167,14.371-20.551,9.005-16.338,20.161-.754,30.059,6.787,4.311,6.185,8.25,6.906,12.986,2.046,13.454,8.91,26.804,14.301,40.168.878,2.178,7.406,4.716,1.362,6.382-11.395,3.141-23.09.236-34.41-1.017-2.133-.236-8.062.05-4.274-2.029,1.233-.677,6.541-.769,6.558-1.152.124-2.699-6.845-3.336-10.62-4.932-51.689-21.842-116.906-34.985-187.739-44.745-91.79-12.647-181.572-27.701-277.698-35.062-13.328-1.021-27.602-1.201-41.112-.619-30.743,1.322-52.061,9.138-53.633,20.794-1.084,8.029-9.831,7.841-24.574,6.07-14.824-1.78-29.734-3.588-44.93-4.732-31.927-2.403-62.48-2.542-81.635,10.479-4.507,3.063-11.577,3.791-19.981,3.082-5.056-.426-10.058-.951-15.129-1.344-60.658-4.709-91.336,7.258-77.111,32.335-31.939-4.312-61.623-8.289-91.252-12.327-37.433-5.102-74.509-10.637-113.762-13.413-51.861-3.667-70.938.239-90.242,19.603-5.957,5.975-14.856,3.054-22.748,2.013-36.79-4.855-73.6-9.842-112.091-12.029-39.35-2.235-79.77-4.917-107.787,10.977-7.35,4.169-17.415,1.115-25.717-.221-63.778-10.267-127.911-20.173-193.471-28.589-18.79-2.412-37.953-4.615-57.373-6.001-35.738-2.552-58.795,2.156-71.919,15.188-5.531,5.492-11.65,5.229-23.21,3.682-29.345-3.927-58.766-7.874-88.734-10.963-45.664-4.708-66.197-1.03-87.773,15.192-4.8,3.609-10.247,3.824-18.638,3.04-141.437-13.212-287.91-16.435-427.821-32.72-14.19-1.651-29.082-1.796-43.509-.292-29.428,3.066-46.685,13.821-36.193,24.78,7.607,7.945-1.105,8.368-16.521,8.65-22.59.414-40.259,4.688-48.509,12.834-6.06,5.984-14.366,5.382-26.12,3.668-86.652-12.634-177.21-19.9-266.343-29.094-43.322-4.468-87.343-8.099-132.799-6.84-33.26.92-63.446,3.99-78.101,17.478-5.882,5.414-16.587,3.43-26.468,2.822-72.373-4.455-144.606-9.295-217.159-13.247-50.45-2.748-101.469-3.073-152.315-1.51-50.818,1.562-83.385,15.466-84.109,35.243-1.033,28.207-.846,27.863-71.865,22.037-38.397-3.15-76.48-7.141-114.949-10.184v39.772h4895.239v-70.482Z"/>
      <path class="q" d="m3184.143,442.257c-5.805,5.187-1.729,12.269-3.5,18.23-1.814,11.535-7.692,17.163-19.422,12.072-6.228-2.703-12.054-2.31-18.259-.907-3.693.835-9.188,1.776-10.852-.662-10.734-15.717-27.697-9.531-41.858-13.053-3.077-.765-5.189-1.434-8.512-.042-23.954,10.036-36.371,3.733-43.342-21.546-.588-2.131-.431-4.461-1.65-6.439,1.671,22.495-3.894,38.213-15.451,40.278-15.536,2.775-19.815-9.641-25.763-21.598-5.611,10.153-14.289,13.9-25.22,11.688-10.337-2.092-17.804-8.688-25.677-17.514-.736,8.798-3.906,15.302-12.329,17.385-7.929,1.962-14.833-.534-21.096-5.211-8.516-6.359-16.716-14.529-26.245-1.111-1.759,2.477-6.289,3.859-8.608,2.552-20.461-11.534-45.61-2.701-65.74-15.504-7.117-4.526-14.494-10.601-20.381,2.675-2.694,6.077-10.582,7.566-16.664,5.775-26.81-7.897-52.863,4.525-79.416,2.357-3.531-.288-7.276,1.627-11.064.658-11.923-3.049-23.405-12.376-36.255-1.502-2.144,1.814-4.924-2.904-7.317-4.743-8.813,1.769-20.708-8.703-26.12,6.573-17.491,6.867-32.857,5.106-44.266-11.355-5.156-7.439-11.817-9.244-19.494-5.242-18.592,9.694-39.257,5.823-58.807,8.514-12.959,1.784-24.652-9.99-37.152-15.109-4.967-2.034-5.854-2.268-9.776,1.06-14.958,12.695-31.336,14.211-48.124,3.319-3.741-2.427-6.451-5.518-11.174-1.1-10.06,9.409-20.933,5.667-31.288.428-7.11-3.597-13.489-6.595-19.827,1.309-2.388,2.977-6.432,3.903-10.2,4.157-22.992,1.553-45.625,8.332-69.168.406-9.65-3.248-21.404,6.798-32.287-.985-1.438-1.028-.739-1.625-1.527.106-12.556,27.551-37.41,12.462-56.281,14.902-14.264,1.844-29.579-.818-44.55.787-9.764,1.047-20.087,1.689-27.838-7.143-5.785-6.591-11.347-2.111-16.536,1.314-7.807,5.154-15.928,7.018-24.836,3.249-2.894-1.224-6.302-3.169-8.949-1.566-17.748,10.746-34.235,4.552-51.968-1.091-8.926-2.841-22.296-7.149-29.441,6.694-1.126,2.181-3.713,3.286-6.087,4.159-13.121,4.829-55.342-6.528-65.268-17.536-4.884-2.074-7.861-6.119-10.258-10.518-2.159-3.964-3.615-8.602.726-11.859,3.366-2.526,6.952-.418,10.371,1.45,10.912,5.962,19.504,18.273,34.933,3.724,7.555-7.125,11.277,12.979,22.362,13.017,10.365-7.252-14.663-39.019,21.054-30.47,0-11.329-.096-22.568.041-33.803.067-5.511-.919-12.41,6.078-14.123,8.135-1.991,10.396,4.78,12.55,10.867,1.43,4.039,3.103,7.993,5.158,13.238,2.964-7.283,1.893-16.258,11.117-16.255,9.219.002,10.035,8.083,11.198,14.781,2.031,11.695,3.487,23.489,5.377,35.211,1.684,10.441,6.428,12.993,14.904,5.471,2.33-2.068,5.002-3.756,7.542-5.585,5.928-4.269,11.075-11.672,19.599-8.248,9.544,3.834,3.497,13.33,5.78,20.13,6.572,1.315,11.691-3.505,17.708-4.192,6.179-.705,16.6-3.468,17.931-1.159,9.851,17.076,26.383,5.337,38.889,10.059,5.495,2.075,15.748,6.915,17.048-7.964.532-6.094,9.449-3.868,14.518-1.353,5.992,2.974,11.375,7.555,20.857,5.447-12.325-14.391-9.011-31.184-11.322-46.808-.716-4.844-.454-10.584,5.586-12.468,4.945-1.543,7.614,2.61,10.945,5.536,13.5,11.863,23.104,26.732,31.938,44.128,4.74-8.289,2.216-14.426,2.582-20.307.301-4.833-1.35-11.144,5.133-12.586,7.124-1.584,9.184,4.319,11.33,9.821,1.93,4.946,4.773,9.536,9.239,18.227.788-17.308-.98-30.305,4.04-42.627,1.975-4.848,2.987-9.949,9.428-9.634,6.452.316,7.67,5.965,8.786,10.667,2.584,10.888,3.807,22.143,6.966,32.84,4.143,14.027,19.413,17.432,28.5,6.175,6.764-8.379,14.637-5.164,22.115-4.192,7.88,1.024,15.526,3.844,23.646,5.976,3.454-7.095-4.735-17.613,6.27-21.387,8.352-2.865,14.02,3.295,20.111,7.599,22.674,16.021,24.231,15.328,27.822-11.926.898-6.821,1.447-13.725,2.924-20.422,1.693-7.677,2.064-17.96,13.602-16.571,10.774,1.297,7.184,11.324,8.566,18.337,6.596-4.246,5.827-11.993,8.6-17.96,2.608-5.611,5.688-10.046,12.525-8.665,6.215,1.255,6.947,6.622,7.021,11.733.172,11.872.055,23.748.055,37.716,6.862-1.903,13.279-7.197,18.655-.972,4.114,4.763,3.33,10.224,1.915,15.99-1.111,4.531-3.707,10.857,1.757,13.425,5.307,2.494,8.931-3.262,12.188-6.806,6.352-6.909,10.349-9.919,19.212-.736,8.184,8.48,18.728-.765,26.385-5.909,11.128-7.476,19.098-8.665,24.704,5.452.676,1.704,2.783,4.584,2.906,4.516,22.13-12.167,32.317,16.321,51.158,14.976,2.948-.21,7.84,3.594,7.321-3.434-1.654-22.392,12.4-14.313,21.833-10.204,12.514,5.451,23.827,13.653,37.667,16.088,3.626.638,7.28,2.024,11.007-.86-.141-7.14-6.808-9.72-10.685-14.113-3.693-4.185-6.376-8.895-3.099-13.384,4.102-5.619,9.817-3.466,14.963-.186,4.205,2.681,8.513,5.233,12.939,7.528,6.013,3.117,11.785,10.186,15.494-3.769,2.052-7.718,10.413-3.738,15.427.615,6.933,6.02,12.86,13.369,22.255,16.608,3.931-12.263-4.36-20.577-8.323-30.072-2.714-6.503-6.098-13.941,1.795-18.172,8.013-4.296,10.036,4.323,13.583,9.037,4.869,6.471,9.504,13.2,15.042,19.06,3.775,3.993,7.865,10.657,14.79,2.531,3.195-3.748,8.29-2.713,11.72.896,9.396,9.889,23.824,6.745,34.411,13.574,2.903,1.872,5.471,1.804,6.192-3.111,2.68-18.28,13.949-11.382,23.567-7.339,5.721,2.405,10.803,6.287,16.368,9.122,6.9,3.514,13.749,11.053,18.334-3.888,2.569-8.372,11.605-5.09,17.679-1.482,10.639,6.319,20.953,13.186,32.469,20.5,6.021-10.979-3.889-26.706,8.798-32.786,13.335-6.391,17.621,10.727,29.846,15.547,1.235-18.7,2.387-36.476,3.593-54.249.551-8.123.105-17.479,11.025-18.855,9.679-1.22,12.5,7.058,14.912,14.099,6.267,18.291,14.199,36.08,17.02,55.456.88,6.045,1.601,12.398,8.99,17.743,5.211-18.095,14.611-17.882,26.897-6.695,4.431,4.035,10.96,3.6,15.555-.763,11.056-10.498,19.617-5.9,25.827,4.769,5.329,9.155,9.584,7.55,15.047.923,1.59-1.93,3.28-3.785,5.013-5.589,5.791-6.027,12.031-11.993,21.171-8.08,10.004,4.283,10.506,12.962,8.372,22.243Z"/>
      <path class="q" d="m4637.508,468.69c-42.495-40.776-56.428-91.283-50.538-148.505.639-6.213,1.629-12.392,2.552-18.572.966-6.465-2.13-14.935,6.173-18.173,9.464-3.691,15.49,3.74,20.462,9.72,9.552,11.492,17.877,23.996,26.944,35.902,6.223,8.171,10.644,17.981,20.493,24.934,0-17.09-1.101-32.463.235-47.621,2.549-28.919,16.191-53.424,33.491-76.088,3.228-4.228,7.465-6.887,12.954-5.819,6.156,1.198,10.884,5.488,10.773,11.4-.492,26.31,15.361,47.097,22.897,70.654,5.727,4.322,8.439,10.559,12.093,20.152,3.208-53.195-1.278-102.618-11.759-151.642-.294-5.844.039-11.703,7.269-12.828,6.03-.939,10.437,2.55,14.139,7.111,3.4,4.188,2.517,9.37,3.774,14.045,4.131,15.919,12.171,30.861,11.983,47.861,1.807,44.172,3.548,88.344,1.883,132.555-4.699,28.177-10.056,56.251-15.723,84.272-1.915,9.469-4.863,18.062-13.201,23.788-5.708,2.727-9.747.386-12.117-4.789-2.232-4.874-4.668-1.837-7.194-.686-4.017,2.836-4.514,7.238-5.613,11.479-1.239,4.785-2.388,10.422-8.953,10.098-5.834-.288-8.519-5.161-9.833-9.976-4.287-15.704-7.058-31.739-6.138-48.064,1.092-19.384-1.597-38.136-5.111-57.221-5.16-28.022-2.265-56.675-3.746-80.032-6.747,25.212-2.567,55.076,4.428,84.896,4.268,18.194,7.21,35.78-1.195,54.468-6.123,13.616-1.823,29.603-2.378,44.523-.771,20.731-7.529,28.626-27.079,30.999-12.45,1.511-22.825-8.196-27.39-25.472-1.204-4.553.538-10.146-4.575-13.368Z"/>
      <path class="ar" d="m1888.558,441.951c16.505,15.438,38.587,8.331,57.63,13.926,13.905,4.085,13.825-8.357,14.605-19.255,8.073,3.401,13.843,9.264,24.667,4.2,6.951-3.252,17.677,10.819,29.761,10.273,4.084-.185,8.951,2.855,12.508-.206,9.568-8.235,18.221-9.686,29.613-2.13,5.849,3.879,12.256-2.884,18.071-6.851,7.132-4.867,14.685-15.41,21.932,2.922,4.097,10.365,19.949,5.912,29.201,3.669,22.872-5.545,45.231,2.377,68.285-.614,20.717-2.689,21.467,1.186,17.945-21.912,6.56.078,8.831,6.042,13.022,8.861,5.674,3.817,14.17,6.101,17.039,1.002,7.278-12.931,11.993-5.315,17.635.271,5.601,5.545,9.899,4.307,17.674,1.741,12.81-4.228,27.627.261,41.454-3.326,6.175-1.602,14.317,1.557,13.776-10.092-.338-7.268,5.352-5.165,9.312-3.073,6.056,3.199,11.624,7.449,17.887,10.101,15.171,6.424,20.286,3.622,25.823-14.377,8.803,11.046,16.828,21.259,33.152,19.003,14.285-1.974,24.935-6.221,29.016-27.755,4.672,15.321,7.776,26.135,21.88,20.072,3.205-1.378,4.518,3.526,6.452,5.785,3.329,3.888,7.651,9.114,12.34,6.988,20.087-9.107,43.603,2.122,62.87-11.409,5.936-4.169,13.4-5.765,17.37,3.015,8.908,19.701,25.226,22.241,43.927,19.896-15.737,9.64-31.573,17.172-49.248,3.982-3.686-2.75-7.909-1.809-12.457-1.135-14.174,2.101-28.589,3.864-42.018-3.619-4.884-2.722-9.281-2.617-13.876.882-2.39,1.819-6.617,4.586-8.112,3.703-17.115-10.101-32.998,5.09-50.79,1.406-21.731-4.499-44.616,3.506-67.504-6.211-9.143-3.882-24.598,4.982-36.357,9.98-11.425,4.856-22.451,8.755-33.853,2.32-11.38-6.423-22.033-.389-32.777.719-18.535,1.913-36.406-4.848-55.436-1.113-15.55,3.052-30.358,5.45-43.331,15.113-5.105,3.802-11.773,6.283-17.753,3.934-30.27-11.894-61.773-5.344-92.705-6.899-16.064-.807-32.045,1.227-47.722-6.185-7.857-3.715-18.127-3.193-26.703,3.248-4.292,3.224-10.696,7.024-15.183,6.065-33.748-7.21-69.227,1.403-102.253-11.489-10.446-4.077-18.505-9.092-10.47-21.903,10.768-5.629,23.37,6.266,33.704-3.522Z"/>
      <path class="s" d="m1219.787,479.819c-13.583,3.325-23.564-10.831-37.118-7.643-3.907,2.525-8.298,3.543-12.524,1.749-10.156-4.311-18.164-.938-25.532,6.042-1.805,1.71-3.978,3.03-6.094,4.366-20.437,12.894-32.431,7.473-35.671-16.115-30.746,24.883-38.515,24.806-45.875-.7-7.695,6.207-14.688,14.698-26.167,10.469-8.367-3.083-10.519-9.942-8.987-19.211-4.344,7.235-7.578,14.532-14.855,18.117-7.512,3.701-14.561,3.136-20.283-3.643-4.694-5.563-4.119.998-5.039,2.419-4.398,6.795-9.857,11.81-18.469,9.755-8.994-2.147-12.729-9.485-14.881-17.694-4.443-16.947-7.166-34.212-9.352-51.57,7.972,62.02-27.393,78.011-63.341,63.85-.565,7.263,4.148,15.334-2.391,20.974-4.183,3.608-8.876,4.09-13.6.716-2.603-2.272-5.206-4.543-7.806-6.81-8.629-12.785-12.294-27.212-13.802-42.31-.586-5.86.325-11.324,5.946-14.705,5.697-3.426,10.87-1.378,15.681,1.985,7.654,5.35,15.181,10.88,22.85,16.397q9.288-17.657,31.929.413c5.729-8.267,4.765-17.833,5.072-26.91,1.258-37.155,9.993-72.983,18.771-108.807,1.736-7.086,2.65-16.872,12.3-16.209,10.728.737,10.519,10.626,10.457,18.852-.234,31.27,1.026,62.431,6.619,93.276,1.087,5.994.934,12.5,5.685,17.499,7.552-4.075,9.292-18.737,19.741-14.429,12.901,5.318,2.546,20.815,9.592,31.296,7.92-6.14,15.204-12.551,23.229-17.838,13.804-9.094,16.119,3.022,19.555,12.423,6.629-3.915,12.452-7.494,18.403-10.844,22.134-12.462,24.566-11.168,26.224,14.094,7.142-2.267,14.085-5.046,21.291-6.594,7.117-1.529,14.509-.889,16.082,8.207,2.382,13.774,9.825,12.549,18.558,6.672,6.192-4.168,12.488-5.846,19.431-3.266,28.131,10.451,57.952,9.743,87.121,12.432,14.846,1.369,29.315,2.316,43.074,8.306,3.624,13.373-7.128,14.359-13.91,12.349-20.379-6.041-41.379-4.291-61.912-7.359Z"/>
      <path class="r" d="m3680.39,468.191c-7.459,6.549-8.403,24.821-23.335,17.503-15.345-7.52.717-20.4-.279-30.464-6.353-2.223-8.871,2.008-11.785,4.799-9.626,9.22-18.995,14.67-29.05.397-.698-.991-4.388.124-6.686.259-16.824,5.879-23.091-5.234-26.4-17.938-4.152-15.942-7.038-32.334-3.837-44.571-1.78,15.452-4.243,35.331-9.94,54.534-5.785,19.498-16.475,23.285-33.222,12.346-3.147-2.056-5.722-5.319-9.906-3.581-18.551,7.705-27.683-4.28-36.478-16.708-.229,1.993-.246-2.068-.228-1.247.194,8.69-.95,17.258-10.5,19.544-18.416,4.407-24.729-11.894-35.104-22.939,7.855,9.229,11.811,18.557,2.765,27.296-8.936,8.632-18.563,3.574-27.407-1.86-5.844-3.591-9.761-9.691-17.929-13.367-2.678,9.771-3.08,21.672-16.521,23.46-9.551,1.271-15.24-3.684-19.891-10.921-1.96-3.777-3.921-7.554-5.878-11.325,9.551-5.599,17.187-12.001,20.823-23.74,1.803-5.821,11.297-3.432,17.253-2.08,6.623,1.503,12.972,4.216,19.491,6.42,1.639-25.3,5.843-27.542,27.593-14.701,4.839,2.857,9.32,6.321,14.167,9.162,2.966,1.738,6.793,4.796,8.268-1.656,4.447-19.452,14.989-11.506,24.988-5.532,4.29,2.563,8.357,5.496,12.579,8.177,5.281,3.353,8.962,3.77,10.053-4.19,1.02-7.44-3.663-18.11,7.003-21.048,10.949-3.016,13.568,8.78,19.593,14.435.841.789,2.226.999,4.429,1.928,8.797-33.061,9.983-66.612,10.89-100.308.293-10.885-5.934-28.468,9.654-30.382,17.124-2.103,14.304,17.362,17.586,28.118,10.429,34.183,15.298,69.472,18.049,105.079.515,6.669-.287,13.856,4.913,21.001,8.28-3.346,9.028-14.813,17.489-17.381,12.511-3.797,10.755,7.897,14.162,15.305,8.806-5.654,16.673-10.593,24.419-15.716,6.408-4.239,12.828-8.61,20.571-3.337,7.799,5.311,5.833,13.283,4.363,20.509-1.699,8.351-4.438,16.49-6.726,24.72Z"/>
      <path class="q" d="m4841.273,472.235c-9.147,4.181-9.976,18.095-22.057,18.842-9.032,4.065-17.664,7.019-28.153,3.147-13.452-4.966-20.618-12.532-17.632-27.431,18.417-55.276,20.45-112.714,23.026-170.117.452-10.076-1.596-25.617,12.21-25.338,15.237.308,11.051,16.293,11.904,26.787.349,4.28.786,8.761-1.187,12.915.237,19.926.686,39.862-2.16,60.429,15.316-22.132,34.088-41.004,51.233-61.271,5.512-6.516,9.569-16.264,20.421-12.279,9.11,3.345,5.617,12.565,6.67,19.638,9.101,61.128-14.103,110.865-54.276,154.678Z"/>
      <path class="s" d="m1645.104,434.379c1.747,5.056,11.439,2.77,9.977,10.792-1.568,4.153-3.469,9.883-7.845,9.664-18.6-.932-33.088,13.865-49.099,14.72-17.937.958-35.306-2.819-53.23,5.448-8.558,3.947-15.822-4.964-17.298-18.168-11.666,15.516-24.196,24.659-42.286,14.998-3.785-2.021-6.788.731-9.915,3.168-18.534,14.448-28.181,10.719-33.829-12.835-.437-1.82-.27-3.729.23-7.587-3.696,6.338-6.325,11.261-9.928,15.489-3.729,4.377-7.977,7.824-13.911,8.846-6.653,1.146-12.361-4.606-17.986-3.765-14.037,2.099-28.719-4.29-42.408,7.534-10.696,9.238-27.349,1.447-41.09,5.907-4.824,1.566-9.186-5.334-8.883-11.935.304-6.623,3.065-13.446-1.529-19.691-2.818-8.655-1.648-16.744,6.67-21.146,9.176-4.856,15.354,2.004,20.561,8.303,6.844,8.28,12.554,14.232,20.727.858,5.748-9.404,13.796-10.092,21.263-1.017,4.748,5.77,9.368,8.022,15.024,1.01,9.906-12.279,18.609-10.271,25.735,4.979,10.282-15.862,11.011-32.323,15.506-47.539,2.823-9.555,5.888-19.044,9.116-28.47,1.887-5.507,4.871-10.775,11.635-10.32,7.875.531,10.002,6.997,10.441,13.376,1.156,16.805,1.65,33.654,2.59,50.476.159,2.849-1.065,6.314,3.154,8.891,1.551-1.337,3.284-2.811,4.996-4.309,5.835-5.108,9.923-14.867,19.564-11.329,8.467,3.108,7.376,12.132,7.34,19.568-.055,11.269,5.251,11.147,12.827,6.245,5.759-3.727,11.366-7.689,17.05-11.532,8.108-5.482,16.239-9.119,20.379,3.899,2.167,6.817,5.638,5.214,9.691,2.888,7.57-4.344,14.857-9.212,22.591-13.228,5.52-2.867,14.904-6.2,16.631.347,4.546,17.238,13.673,7.542,22.088,6.103,7.704-1.317,15.506-6.138,23.453-.638Z"/>
      <path class="ar" d="m1306.074,456.965c4.531,2.663,4.454,7.21,4.549,11.56.307,14.063,1.059,26.956,18.855,10.876,3.601-3.253,7.031.186,10.198,1.639,4.181,1.918,11.421,3.566,12.254,1.165,8.224-23.717,29.074-6.173,42.061-13.456,1.914-1.073,4.735-1.827,6.726-1.268q25.962,7.289,37.821-18.207c.743-1.596,2.043-2.932,4.527-6.407,4.402,9.766.936,19.472,5.272,27.611,7.432,13.95,14.198,15.465,22.634,2.464,5.899-9.091,9.553-12.932,19.473-3.993,7.243,6.526,16.545,3.897,23.348-3.526,5.757-6.281,11.283-12.772,16.676-18.903,5.905,1.964,3.436,5.048,2.647,7.735-1.881,6.4-2.551,12.94,4.55,16.261,6.62,3.096,13.632,2.448,19.039-3.163,8.815-9.148,16.63-19.027,27.963-1.888,3.693,5.585,11.595,2.741,17.25-.574,13.137-7.701,24.936-19,42.64-12.78,2.401.844,6.968-4.472,10.527-6.937,2.609,14.842-.44,25.138-18.684,22.936-7.711-.931-12.823,4.168-18.44,7.83-14.756,9.619-29.787,15.728-47.046,6.226-10.019-5.516-17.056,4.736-26.429,5.125-26.909,1.118-54.034.431-80.593,6.765-6.537,1.559-13.415-.447-20.229-1.892-22.303-4.729-42.413,2.761-61.744,13.076-17.485,6.394-34.326,13.878-48.785,26.069-4.062,3.425-11.15,4.454-13.334-.683-7.147-16.808-19.803-12.453-32.307-10.114-1.073-9.003-8.259-10.453-14.982-10.777-11.93-.575-22.869-5.431-34.385-7.016-14.297-1.968-18.872-9.957-18.338-22.902,17.901-6.177,35.378-7.057,53.4.895,7.514,3.315,18.222,8.244,22.42-5.882,18.205,2.663,8.329-11.117,10.465-17.864Z"/>
      <path class="k" d="m4225.954,464.176c-1.325,21.176-9.387,34.496-33.832,30.388-2.572-.432-5.986,4.001-8.973,6.226-7.747,5.775-18.55,12.098-25.691,7.804-18.757-11.278-35.355-8.137-55.706-4.498-18.798,3.361-39.192,7.215-58.139,6.525-26.519-.966-52.956,1.892-79.313-.341-6.698-.567-12.29.478-17.89,3.333-6.415,3.27-13.031,4.444-19.884,1.955-9.812-3.563-16.611-10.305-21.668-19.532-7.837-14.301,13.984-10.305,12.139-20.564.632-7.314,6.723-6.366,11.416-7.534.134,10.794-.443,22.726,15.123,9.906,6.468-5.327,11.891-1.776,16.672,2.359,8.489,7.34,17.125,7.379,27.811,4.699,15.573-3.906,31.443-6.174,47.853-.793,14.483,4.748,28.403,1.486,39.554-10.084,4.764-4.943,9.611-9.801,14.329-14.793,4.105-4.343,7.437-11.919,14.616-9.326,5.848,2.112,4.923,9.466,5.574,14.947,1.419,11.949,7.354,14.017,16.202,6.774,7.905-6.47,14.448-8.327,25.144-3.893,13.256,5.496,26.375.284,36.05-11.129,10.39-8.714,20.778-17.43,31.17-26.14,4.02-3.369,8.613-5.912,13.409-2.422,4.749,3.455,3.781,8.684,2.074,13.562-2.639,7.539-5.356,15.05-8.04,22.573Z"/>
      <path class="au" d="m701.704,486.531c14.391,7.917,33.874,1.172,45.896,15.938,1.103,1.355,2.36,2.585,6.383,6.958-18.071,0-33.195-.431-48.285.11-18.327.657-36.398-2.021-54.803,6.181-14.141,6.302-31.309-3.305-47.528.81-7.193,1.825-14.596,1.326-20.146,7.56-4.173,4.687-10.241,5.222-15.646,3.571-7.511-2.295-13.825-3.334-20.84,2.195-5.038,3.97-12.285,3.278-17.853.033-9.157-5.337-20.718-2.121-28.581-6.036-25.856-12.874-54.96,1.243-81.042-12.98-11.844-6.459-29.022-.292-43.512-6.76-4.115-1.837-11.016,17.899-19.632,1.502,3.757-7.029,4.655-13.97.468-21.332-2.131-3.748-4.083-8.338-.334-12.179,3.76-3.854,8.174-1.848,12.115.128,16.182,8.112,31.935,17.926,51.253,9.031,2.671-1.23,6.216.858,8.615,2.867,10.914,9.139,18.445,9.156,22.122-6.715,1.81-7.811,7.485-7.024,13.073-3.261,3.654,2.461,6.976,5.382,9.796,8.7,14.128,16.622,29.538,27.05,51.897,13.871,5.461-3.219,12.348-.538,18.481.306,16.2,2.231,32.587,10.532,48.026-2.781,2.382-2.053,6.179-.616,8.93.921,15.376,8.594,16.356-.181,14.807-12.128,21.654,12.196,43.229-2.981,65.038-.421,7.294.856,14.656-.171,21.301,3.91Z"/>
      <path class="z" d="m615.365,483.042c2.457,5.663,16.099,6.956,6.942,17.101-6.655,7.373-13.886,7.27-21.206.605-2.182-1.987-5.5-6.202-7.559-3.718-19.01,22.925-40.077,2.645-60.029,3.076-3.763.081-6.986-.501-10.359,1.77-17.765,11.962-32.609,7.509-45.777-8.028-5.999-7.078-12.809-13.47-19.118-20.034-7.359,3.557-3.691,9.436-5.236,13.64-3.85,10.478-11.114,15.434-19.355,6.721-8.928-9.44-15.781-8.125-27.017-4.49-12.843,4.154-24.413-6.903-36.676-10.894-3.864-1.258-6.175-6.206-11.115-5.295-4.892,10.646,23.706,23.675-2.747,32.116-6.426-9.97-9.24-22.198-18.866-30.17-.623-1.08-1.708-2.122-1.793-3.241-.722-9.472-10.101-21.467-.568-27.712,10.015-6.561,17.058,6.926,24.275,12.537,10.439,8.115,21.041,15.578,33.105,20.828,6.497,2.827,12.388,3.061,13.372-6.461.544-5.261-1.92-12.422,5.295-14.415,7.722-2.133,10.121,5.59,14.263,9.889,2.042,2.119,4.389,3.942,7.857,7.014,3.742-14.293,2.256-26.947,1.094-39.665-.636-6.964-.288-14.684,7.736-17.23,8.703-2.761,12.085,4.782,15.161,10.745,8.57,16.617,16.343,33.511,31.051,46.204,8.492,7.329,15.332,12.183,25.382,2.295,7.097-6.983,16.145-6.908,23.68-.164,5.402,4.835,10.42,5.97,16.878,2.89,3.644-1.738,8.411-1.431,10.396,1.684,9.012,14.145,16.164,7.57,24.436-.89,9.752-9.973,18.828-7.236,26.496,3.292Z"/>
      <path class="q" d="m4570.839,498.075c-7.079,10.942-11.825,26.48-30.139,15.3-1.55-1.966-.74,1.025-1.299-1.244-5.783-23.471-21.19-18.998-37.724-13.903-7.044,2.171-16.394,2.787-21.298-3.062-9.049-10.793-15.842-4.665-23.767.393-28.671,18.297-39.544,14.65-50.392-17.34-8.033,13.119-15.368,27.188-34.489,20.152-1.13-.22-2.258-.447-3.385-.683-10.521-5.739-9.901-13.444-3.902-22.099,14.511-2.908,19.516-15.114,26.377-26.01,11.88-18.866,21.785-18.481,32.555.415,1.237,2.171,2.441,4.367,3.541,6.61,10.377,21.149,21.777,22.916,37.331,3.747,12.396-15.277,23.703-19.965,37.845-3.237,4.274,5.055,9.246,2.81,13.714,1.004,11.568-4.677,23.057-9.587,34.352-14.887,7.492-3.515,14.704-7.696,22.836-2.238,9.022,6.054,8.032,14.609,5.388,23.449-4.635,10.736,5.221,24.721-7.546,33.633Z"/>
      <path class="au" d="m4570.84,498.075c3.209-11.056,1.059-23.314,7.545-33.634,1.548,3.612-1.893,9.44,4.549,10.848,17.258,3.769,34.76,4.271,52.228,2.481,5.804-.595,2.301-5.804,2.346-9.08,8.761,4.603,9.252,14.033,12.996,21.666,3.478,7.092,8.553,17.562,17.203,12.781,8.711-4.815,26.059-1.717,23.865-20.865-1.484-12.95-.269-26.204-.352-39.321-.055-8.618-.587-16.31,7.484-23.464,7.515-6.662,4.421-17.404,1.905-26.514-7.113-25.76-15.968-51.092-13.4-78.646,1.446-15.519,5.917-29.597,14.363-42.879-2.859,72.195,4.333,143.161,15.686,215.841,13.877-7.517-1.198-27.936,19.174-26.123-1.476,12.572-.448,25.666-7.711,37.033-22.105,21.483-46.724,32.245-78.54,23.155-12.856-3.673-27.046-.09-40.465,3.362-24.767,6.373-30.272,2.644-35.676-22.223-.354-1.628-2.1-2.953-3.198-4.418Z"/>
      <path class="n" d="m209.67,491.013c2.225,6.186,6.571,12.364.069,18.583-14.76,11.872-20.64,10.509-38.95-10.235-3.778,9.755-7.836,19.02-18.931,21.177-11.148,2.167-19.218-3.96-27.024-10.188-7.091-5.658-12.32-7.529-20.732-.303-10.127,8.7-22.864,2.565-34.156.028-10.308-2.316-17.499-3.832-18.676,10.795-.728,9.053-6.456,16.745-18.201,11.002-10.359-6.893-8.697-20.239-15.568-28.995-6.088-9.886-6.013-21.305-6.513-32.121-.645-13.936,9.572-20.117,22.487-14.544,8.555,3.692,16.561,8.634,25.011,12.592,10.538,4.936,20.274,11.309,30.811-2.48,5.442-7.122,16.026-5.772,23.075,2.052,2.905,3.223,5.018,7.193,8.068,10.246,16.232,16.254,22.882,14.849,32.334-5.431,4.01-8.604,5.779-21.026,18.294-21.084,12.056-.055,15.096,11.888,19.559,20.294,4.526,8.524,8.987,16.165,19.044,18.613Z"/>
      <path class="ap" d="m4769.461,183.359c-3.287-5.028-5.605-11.285-10.078-14.809-7.637-6.018-13.551-5.386-11.231,6.848.219,5.441,5.491,12.341-4.303,14.89-1.513-2.673-1.278-8.743-6.799-4.202-4.128,3.396-7.704,6.63-12.336,1.031-7.475-22.246-26.653-33.862-43.48-47.539-2.752-2.237-6.874-2.709-9.021-6.05,11.76-8.623-3.408-17.716.462-26.477,11.781-1.087,15.393,11.714,25.706,13.382-9.663-7.358-10.009-27.585-30.394-20.179-9.724-8.484,3.219-22.647-7.726-30.825-1.479-2.741-1.126-5.134,1.355-7.122,5.961-13.882-4.341-27.652-.286-41.521,15.621-.11,15.105,17.292,25.002,23.512.128-15.603-18.795-22.346-17.087-38.431,6.316-1.12,13.646,2.329,18.771-4.162,18.024,13.792,26.239,34.472,37.327,53.135,3.568,2.644,7.136,5.288,10.703,7.932-3.478,4.12-5.065,8.864-2.784,13.884,7.943,17.476,13.541,35.894,20.697,53.889,5.828-2.799,3.967-9.973,9.235-11.924,3.465,2.323,3.366,6.066,3.866,9.593.416,2.94,1.054,6.63,4.618,5.954,1.22-.231,1.533-5.242,2.26-8.07,15.682,9.967,7.792,24.536,7.353,37.651-3.943,6.537-7.887,13.074-11.83,19.611Z"/>
      <path class="u" d="m4187.342,456.603c3.977,1.038,8.466,4.189,2.796,6.552-14.911,6.213-29.306,21.966-47.11,5.935-5.677-5.112-7.53,1.238-10.265,3.503-6.14,5.085-11.073,13.266-20.662,9.542-10.223-3.97-6.253-13.657-7.083-21.289-.267-2.459-.266-4.948-.358-6.834-8.656,7.861-18.232,15.124-26.022,23.961-12.019,13.633-27.7,16.211-42.82,11.798-18.748-5.472-36.071-4.486-53.528,2.246-10.945,4.22-18.203-1.374-24.739-8.203-5.502-5.749-8.892-6.757-14.071.538-4.923,6.934-12.66,9.188-19.35,2.514-7.683-7.665-.286-13.287,4.283-18.929,8.805-12.542,18.881-12.977,29.733-2.833,7.581,7.086,14.79,11.801,23.477,1.308,4.117-4.973,9.773-4.731,15.393-2.168,3.476,1.586,7.326,3.172,10.511.123,12.312-11.782,23.96-10.401,36.258.351,6.718,5.874,12.759.755,18.32-3.391,16.469-12.281,26.543-29.302,35.68-47.203,3.548-6.951,7.523-16.086,17.873-12.651,9.737,3.231,9.269,12.475,8.001,20.604-1.741,11.154-2.644,22.128.698,33.272,7.234-.686,10.174-6.761,14.644-10.692,4.853-4.268,12.766-6.307,13.679.217,4.015,28.709,21.944,11.69,34.663,11.729Z"/>
      <path class="g" d="m4728.719,498.199c1.02-12.67-3.534-26.499,7.71-37.037,11.441-5.707,6.276,10.654,13.688,10.296,11.054,2.959,13.667-6.123,14.486-12.677,3.81-30.526,15.699-59.855,13.59-91.223,4.979-45.352,2.355-90.886,3.249-136.337,6.728,29.551,1.953,59.671,5.127,93.571,3.355-17.511,5.913-31.199,8.618-44.858,1.61-8.131,5.646-14.419,14.899-13.629,8.984.767,12.881,7.353,13.037,15.616.185,9.819,2.328,20.046-3.738,29.12-1.08-9.822-1.948-19.675-3.339-29.453-.621-4.37-2.318-8.823-8.118-8.191-5.332.581-6.977,4.741-7.304,9.324-.398,5.572-.65,11.187-.443,16.764,2.182,58.746-3.559,116.421-22.947,172.288-2.765,3.953-1.577,8.428-1.486,12.68.172,8.072-4.024,12.688-11.403,10.177-12.799-4.356-24.078-.159-35.716,3.515l.09.055Z"/>
      <path class="aw" d="m4364.444,475.589c-.159,7.626-1.4,15.442,3.901,22.102-43.539,22.402-85.199,9.935-126.094-7.739-10.801-4.668-5.746-11.279,1.732-16.244,13.096-8.695,27.896-4.299,41.907-5.906,26.404.385,52.744,1.413,78.555,7.787Z"/>
      <path class="d" d="m4743.849,190.288c5.04-3.927,3.062-9.878,4.302-14.896,14.37,52.85,16.701,106.443,10.174,160.845-5.367-9.855-15.041-17.3-14.381-29.718,6.208-29.992,3.639-60.218,1.582-90.31-.589-8.619-1.786-17.228-1.677-25.921Z"/>
      <path class="p" d="m4763.194,118.62c.032,3.069.171,6.142.071,9.207-.154,4.696,1.75,10.997-4.811,12.309-6.94,1.389-9.379-4.183-10.856-9.918-4.934-19.16-11.854-37.545-21.07-55.091-5.534-10.536.032-13.093,9.518-12.356,18.552,13.999,19.788,36.411,27.148,55.848Z"/>
      <path class="w" d="m4672.214,133.527c7.95-1.162,14.563,1.499,20.154,7.058,11.841,11.773,23.798,23.431,35.454,35.384,4.827,4.95,8.796,10.477-3.108,11.147-17.718-8.225-33.741-18.718-45.971-34.299-4.448-5.667-10.325-10.839-6.529-19.29Z"/>
      <path class="h" d="m4661.616,62.307c-.452,2.374-.903,4.748-1.355,7.122-6.92,1.834-10.432-2.266-13.181-7.614-9.341-18.173-18.521-36.383-11.517-61.815,14.335,21.174,13.684,44.585,26.053,62.307Z"/>
      <path class="e" d="m4669.245,5.866c9.43,10.822,16.784,22.926,22.287,36.166,1.595,3.839,5.526,8.51.696,11.594-5.758,3.677-8.936-2.094-11.548-6.013-6.123-9.189-9.865-20.06-19.35-26.828-.789-6.368-13.585-7.359-8.263-15.523,4.25-6.52,10.783-1.714,16.178.604Z"/>
      <path class="i" d="m4781.291,163.748c-6.576-11.745.06-26.069-7.354-37.651-.135-1.225-.453-2.462-.375-3.674.411-6.345-10.364-14.866-.033-18.34,9.86-3.316,13.579,7.866,14.471,15.324,1.809,15.114,8.028,31.52-6.711,44.341Z"/>
      <path class="aa" d="m4667.987,100.254c-1.102-10.506,1.773-14.059,12.005-7.717,13.942,8.64,18.832,24.093,31.895,36.458-22.046,3.309-26.704-15.803-39.212-21.944-1.563-2.265-3.126-4.531-4.688-6.796Z"/>
      <path class="l" d="m4725.343,54.84c-1.605,2.492-4.917,3.55-5.683.926-6.048-20.725-23.222-34.828-31.644-54.061,19.718.218,26.462,15.442,32.918,29.813,3.154,7.018,3.042,15.502,4.409,23.323Z"/>
      <path class="au" d="m3769.082,619.458c.635-6.964-4.93-9.48-9.525-12.348-7.824-4.883-9.866-11.282-4.929-18.945,4.681-7.267,11.663-9.19,19.614-5.423,9.65,4.572,18.431,10.52,25.864,18.234,5.273,5.472,11.234,9.76,18.078,13.116,9.503,4.659,16.683,6.714,16.601-8.33-.055-10.158,4.754-19.238,9.069-28.266,3.086-6.456,6.534-11.848,15.049-11.851,9.063-.004,10.969,6.873,14.008,12.907,4.487,8.908,8.742,17.76,16.179,24.989,6.689,6.502,11.038,7.277,18.518.397,14.517-13.351,32.102-12.269,43.044,2.94,6.856,9.53,13.037,7.338,20.638,3.135,14.463-7.997,29.147-19.186,37.055,7.491,2.214,7.468,10.026-.243,15.01,2.889,4.516,2.838,11.71,2.022,13.226,8.826,1.682,7.544-3.895,11.555-9.294,14.668-7.586,4.374-17.286,10.487-24.437,7.54-23.175-9.549-48.797-7.441-71.645-17.113-2.219-.94-4.241-3.477-6.636-1.691-29.006,21.639-43.252-5.446-61.657-18.63-1.931-1.383-3.312-3.532-4.903-5.276-6.674,3.299-4.092,8.965-4.355,13.508-1.118,19.352-9.364,26.478-27.627,21.322-16.24-4.585-30.364-13.706-47.139,2.898-8.543,8.456-23.656-1.088-35.169-5.84-11.804-4.873-45.073,2.249-53.723,11.721-1.995,2.185-3.838,7.23-6.553,5.088-20.073-15.843-46.662-5.368-67.52-17.274-7.119-4.064-19.465-5.686-15.308-17.182,4.14-11.449,14.739-8.955,24.031-5.016,16.42,6.962,33.581,9.61,51.259,7.702,6.317-.682,13.171-.151,12.971-11.27-.352-19.52,10.105-24.856,27.462-14.478,13.512,8.079,28.036,13.606,42.308,19.855,3.509,1.536,6.916,3.121,10.435-.292Z"/>
      <path class="ar" d="m2639.522,446.098c4.084.334,10.035,5.049,11.893.087,5.038-13.453,12.771-5.563,19.522-3.477,19.693,6.086,37.832,13.758,58.801-1.338,7.936-5.714,25.206-.191,37.697,2.576,15.71,3.48,25.189,1.331,22.749-19.245,10.949,5.617,20.597,9.613,29.166,15.25,7.459,4.907,13.918,8.242,21.851,1.647,7.995-6.646,12.212,2.487,17.954,4.709,11.604,4.49,24.361,16.609,29.597-6.864,1.28-5.739,5.378-3.458,8.566-1.151,4.538,3.284,9.411,6.25,13.406,10.112,7.259,7.015,15.158,12.048,24.964,6.518,9.337-5.266,2.202-14.371,2.972-21.991,39.712,30.273,43.672,30.866,56.608,7.352,3.542,6.423,6.449,12.321,9.941,17.848,3.364,5.325,7.388,11.069,14.807,8.822,6.371-1.929,9.792-7.085,10.74-13.982,1.349-9.821,3.21-19.572,4.973-30.068,4.847,9.326,9.325,18.41,14.254,27.242,2.762,4.95,7.266,7.731,12.482,10.508,12.17,6.481,15.473-16.144,27.125-7.497,11.37,8.437,19.658,1.598,29.133-5.983,5.782,17.552,14.415,28.949,33.49,15.38,2.209-1.572,5.219-1.05,6.71,1.205,9.721,14.698,15.627,5.31,21.726-3.271,3.996,6.901,19.774.694,17.095,12.783-2.221,10.025-12.428,15.306-22.823,17.076-4.847.825-10.597,1.544-14.864-.246-35.95-15.086-74.865-5.334-111.621-13.599-4.059-.913-9.14,3.226-13.869,4.608-3.542,1.035-8.682,3.285-10.709,1.774-16.94-12.624-35.949-4.18-53.513-4.541-19.468-.4-38.929-2.316-58.113-3.834-22.454-1.776-45.602,1.14-67.784-8.048-11.472-4.752-25.644-6.017-36.843,4.841-5.528,5.36-12.831,9.641-20.338,7.752-16.558-4.167-31.732,2.466-47.367,4.583-30.12,4.078-32.74,1.578-23.732-29.053-11.437-2.763-21.018-2.248-30.631,6.641-10.013,9.26-24.569,10.246-37.075,10.012-20.205-.377-8.772-15.584-8.939-25.138Z"/>
      <path class="o" d="m517.913,591.712c-3.594-7.744-21.374-3.869-16.665-14.963,3.544-8.351,17.034-3.442,25.977-2.868,7.318.47,14.415,3.733,21.724,5.178,6.419,1.269,13.056,6.523,15.461-7.063,1.865-10.531,12.9-3.481,18.986-1.258,13.706,5.008,25.666,14.761,44.275,16.094-4.55-9.069-8.214-15.922-11.455-22.969-2.787-6.06-7.824-12.998.287-18.26,8.953-5.809,13.553,2.259,18.271,7.753,5.661,6.592,10.466,13.938,16.305,20.354,7,7.691,16.664,10.181,25.644,5.771,9.741-4.784,9.82-14.681,8.213-24.578-1.48-9.116-8.735-22.331,3.959-25.774,12.975-3.519,10.716,11.847,14.109,19.647,1.245,2.861,2.283,5.814,3.58,8.65,10.854,23.725,11.646,23.805,34.033,11.36,7.57-4.208,15.627-8.038,23.934-10.325,22.365-6.158,26.286-2.762,25.278,20.656,17.719-8.095,35.068-16.221,52.593-23.949,10.271-4.529,20.841-8.044,32.252-9.047,5.383-.473,11.05-4.768,15.473,1.051,5.506,7.245-4.162,10.528-5.299,17.728,17.245-2.355,32.88-10.224,50.111-10.368,23.755-.199,26.607,2.628,21.15,26.632,20.573-3.974,40.358-10.415,61.071-7.989,4.919.576,10.031.585,14.684,2.041,4.495,1.406,10.702,3.242,9.212,9.66-1.338,5.759-7.177,3.483-11.208,3.451-23.713-.187-47.197.058-70.466,6.643-9.521,2.695-21.364,4.718-29.091-6.274-4.407-9.233,1.714-13.197,6.8-16.037-17.26.697-34.823,6.85-52.492,13.395-11.715,4.34-25.315,7.83-29.388-11.059-1.596-7.402-6.409-3.91-10.251-2.602-16.129,5.493-30.28,14.736-44.843,23.324-18.508,10.915-25.644,8.761-34.09-10.752-3.157-7.295-6.601-6.035-11.437-3.697-6.232,3.013-11.529,7.503-17.117,11.496-10.637,7.6-21.048,8.58-30.037-1.873-5.738-6.672-9.168-5.782-14.188.671-4.835,6.215-12.606,9.717-20.052,8.36-25.215-4.598-50.701,5.069-76.191-3.561-13.058-4.421-28.467,3.27-42.882-1.895,3.627,3.885,11.347,5.754,7.509,12.619-2.7,4.83-8.865,4.901-13.585,2.934-10.924-4.553-21.693-9.598-30.155-18.308Z"/>
      <path class="t" d="m1070.02,672.501c4.085,2.792,8.531,5.057,14.526,8.55-9.213,11.139-27.969,19.116-15.495,34.251,13.687,16.607,29.967,2.265,44.866-3.792.517,2.615.804,4.43,1.238,6.21,5.732,23.532,5.764,23.613,28.959,16.055,2.816-.918,4.715-.577,6.532,1.321,1.54,1.608,3.152,3.015,4.837,4.165h20.255c5.436-4.95,2.001-14.18,5.026-20.82,11.79,7.905,23.136,22.675,35.164,11.409,13.716-12.847-1.68-26.291-8.451-38.35,14.046-3.783,29.665-7.64,29.902-22.363.206-12.783-15.259-12.556-25.326-12.769-9.83-.208-13.096-2.604-10.939-12.609,1.437-6.662-1.325-13.071-8.966-13.954-9.678-1.117-22.032,5.107-24.614-11.66-.411-2.669-4.982-1.845-8.102-.174-16.915,9.054-33.809,13.095-52.728,4.057-15.439-7.375-25.127-1.622-21.246,12.254,3.777,13.506-3.377,13.827-11.892,16.156-4.473,1.223-10.297,1.7-11.251,8.2-.965,6.57,2.936,10.602,7.706,13.862Z"/>
      <path class="av" d="m594.286,780.261c1.569.144,3.196.135,4.868,0h-4.868Z"/>
      <path class="y" d="m1635.76,617.067c-10.962,4.629-19.742,19.117-30.794,8.302-14.373-14.064,2.842-25.785,6.829-39.256-2.296-.543-4.751-.676-6.774-1.678-8.77-4.349-20.732-7.411-19.952-19.381.861-13.209,13.781-13.15,23.191-13.624,9.112-.459,11.673-2.562,10.232-11.841-1.705-10.983,4.416-16.849,15.503-15.039,6.273,1.024,10.57,1.662,12.339-6.073.885-3.868,4.8-6.668,8.751-4.757,19.077,9.227,37.764,9.752,57.737,1.789,9.412-3.752,16.519,2.931,13.982,13.192-2.412,9.756-1.566,14.553,9.373,16.174,5.127.76,11.364,3.181,12.439,9.868,1.22,7.584-5.083,10.545-9.765,14.59-3.887,3.358-16.012,3.007-5.543,13.534,7.404,7.445,19.045,16.212,8.599,28.462-9.47,11.104-21.661,6.037-32.781,1.109-2.726-1.208-5.211-2.96-7.594-4.338-6.106,3.877-3.614,9.531-4.79,14.025-3.306,12.639-9.019,20.15-21.89,9.398-4.034-3.369-5.889-3.846-10.762-.791-18.544,11.629-23.722,9.041-28.33-13.664Z"/>
      <path class="au" d="m4745.008,625.729c-4.144,0-5.02.273-5.359-.039-18.41-16.946-41.995-10.76-63.383-14.624-9.83-1.776-19.229.783-27.784.609-30.848-.628-60.48,18.856-91.677,5.272-6.278-2.734-12.68-5.185-19.031-7.749-6.896-2.784-9.506-8.021-7.69-14.991,1.986-7.627,8.627-6.171,13.939-5.683,6.769.621,13.403,2.604,20.164,3.458,7.294.921,13.06-.199,15.594-9.137,4.656-16.43,15.384-15.167,27.706-8.23,9.771,5.502,18.686,11.533,20.848-8.051,1.282-11.612,12.689-9.695,21.125-5.793,4.418,2.043,7.725,6.393,12.053,8.744,12.439,6.758,24.255,18.231,34.164-5.314,6.125-14.552,20.366-12.78,28.932,1.183,2.933,4.779,5.146,9.996,7.754,14.978,5.032,9.607,11.643,14.019,22.772,8.532,10.357-5.106,21.759-4.963,33.068-4.271,6.422.393,10.733,3.354,11.59,9.954.653,5.033.982,12.252-4.028,13.354-18.764,4.126-36.498,10.964-50.757,17.799Z"/>
      <path class="au" d="m2184.69,656.708c-7.354-13.867-21.68-23.36-10.015-36.257,12.649-13.983,25.588-2.765,36.843,4.17,10.121,6.237,20.031,12.538,31.226,16.69,5.231,1.94,10.659,5.646,15.611.834,3.991-3.878,2.746-9.628,1.021-14.22-3.44-9.157-2.395-18.517-2.427-27.847-.016-4.681,1.755-8.748,6.408-10.486,5.709-2.133,9.63,1.323,12.872,5.307,4.012,4.931,5.476,10.933,7.263,17.004,4.191,14.236,6.296,29.554,17.316,40.896,5.886,6.057,11.398,15.172,20.062,2.375,2.639-3.898,8.045-3.897,11.99-1.311,3.579,2.347,2.733,6.593,2.159,10.343-4.015,26.253-21.089,33.6-42.414,17.44-6.641-5.033-11.691-6.678-20.169-4.467-13.187,3.439-25.608-2.752-37.683-7.842-6.457-2.722-13.267-9.526-17.037,3.359-1.319,4.506-6.703,6.918-10.88,5.497-18.09-6.153-34.121,7.311-51.694,4.761-3.586-.52-5.915,1.241-7.121,4.586-2.988,8.293-10.658,7.096-15.911,5.62-18.576-5.219-34.974-15.202-50.383-26.649-4.609-3.424-5.585-8.091-1.082-12.855,5.041-5.334,10.1-6.352,16.463-1.735,12.09,8.775,26.228,11.084,40.752,11.424,7.315.171,14.405,1.219,19.874-6.771,6.41-9.364,15.909-1.828,26.959.131Z"/>
      <path class="au" d="m2857.037,589.689c-5.045,8.337-1.256,14.392.098,20.81,4.065,19.269-5.539,30.029-24.281,25.915-9.66-2.12-16.96-1.068-26.35,2.503-16.558,6.295-33.29.987-47.588-9.33-7.676-5.539-8.796-14.144-3.794-21.659,4.679-7.03,12.484-5.541,18.404-1.316,9.591,6.845,17.511,10.271,26.462-1.56,3.071-4.057,11.036-2.908,15.946.03,15.156,9.071,15.967.619,15.707-11.54-.325-15.223,6.394-27.116,21.572-31.099,15.449-4.054,22.759,6.569,27.548,19.125,5.742,15.056,12.633,16.26,23.517,3.846,7.51-8.566,15.418-19.107,29.917-13.364,13.942,5.522,16.89,17.854,17.305,30.493.341,10.386,2.099,16.976,14.411,15.931,6.263-.532,10.872,2.61,11.916,9.345,1.013,6.541-.437,12.148-5.608,16.913-15.785,14.544-44.632,4.821-49.964-18.099-2.401-10.322-3.017-14.065-12.887-5.561-14.982,12.907-23.713,11.543-35.114-4.392-5.985-8.366-11.11-17.347-17.218-26.99Z"/>
      <path class="av" d="m144.546,629.185c-2.305-8.84-10.668-7.088-17.348-7.042-30.616.208-60.855,6.198-92,.796-16.642-2.886-30.917-.811-29.805-24.007.187-3.905-1.539-8.958-5.394-11.655v56.379c15.001,7.396,33.671-1.59,46.083,12.221.82.913,3.697.391,5.479-.036,15.979-3.827,30.989-19.663,46.625-2.286,12.76-4.292,23.375-7.881,34.003-11.43,6.463-2.158,14.854-3.356,12.355-12.94Z"/>
      <path class="at" d="m859.607,501.7c12.425.927,15.567-4.277,11.614-15.907-1.636-4.816-6.412-9.903-1.457-16.564,1.976.862,4.402,1.384,6.15,2.765,23.412,18.488,50.786,8.424,57.506-20.734,3.58-15.532-3.361-32.417,7.08-49.74,3.684,20.616,6.207,38.865,10.434,56.711,2.251,9.503,1.09,23.902,15.719,24.127,13.17.203,11.632-13.953,17.133-24.784,4.66,12.586,9.145,24.956,23.987,14.202,8.964-6.496,7.966-21.425,21.609-25.533.839,9.595-11.793,20.965.805,27.221,17.197,8.54,20.952-13.983,34.353-17.679-.82,4.401-1.888,8.386-2.235,12.432-.435,5.068-.154,10.298,5.07,13.126,5.571,3.015,10.969,2.035,15.522-2.231,6.383-5.982,12.535-12.21,18.829-18.288,2.784-2.688,6.359-5.497,9.894-3.099,4.526,3.07.58,6.415-1.267,9.415-3.638,5.908-4.585,12.05,1.081,16.92,5.258,4.52,11.651,3.604,17.663.991,1.678-.729,3.305-1.924,4.534-3.286,13.97-15.482,30.168-19.285,49.038-9.59-15.594,26.814-28.843,30.998-59.263,23.996-10.677-2.458-23.009,2.389-34.601,3.767-23.147,2.75-46.34,3.022-69.027-2.622-6.023-1.498-10.839.366-16.222.493-37.385.881-74.7,7.613-112.17,1.552-3.202-.518-6.421-.941-8.45,2.046-7.717,11.364-15.482,6.289-23.328.293Z"/>
      <path class="ar" d="m3364.658,464.733c8.106,4.364,16.34,11.569,25.747,4.932,9.942-7.015,2.628-16.975,1.733-26.615,9.609-3.434,13.269,4.742,18.547,8.948,3.41,2.718,6.078,6.421,9.623,8.905,7.149,5.01,15.321,11.518,23.541,4.011,8.474-7.739,2.219-16.089-2.639-23.41-2.353-3.546-5.394-6.636-5.518-12.886,7.038,6.821,14.015,13.705,21.131,20.443,6.187,5.858,11.75,15.225,21.906,10.285,11.509-5.597,5.254-16.108,3.995-26.478,16.531,6.869,20.851,45.676,48.666,17.354,2.066,3.124,4.027,5.484,5.319,8.165,2.954,6.13,6.948,10.696,14.4,9.39,7.674-1.345,11.504-6.569,13.076-14.025,4.992-23.685,10.172-47.331,12.247-72.715,7.595,5.913,6.895,13.526,6.259,20.392-1.295,13.966,2.716,27.274,4.448,40.798,1.501,11.714,9.528,18.54,22.117,18.454-3.115,3.714-6.74,6.623-8.633,11.735-3.972,10.726-13.718,13.839-22.959,9.232-9.912-4.942-18.985-2.868-28.762-2.187-28.667,1.995-57.427,6.226-85.939-1.707-3.503-.975-7.649-2.261-10.853-1.286-29.576,9.002-59.943,10.496-90.527,10.463-7.921-.008-15.279-.791-21.845,6.928-6.761,7.947-17.334,4.674-26.44,2.752-11.508-2.43-21.275-10.354-33.698-10.379-4.842-.01-7.503-4.037-8.134-8.855-.826-6.312,2.126-10.985,7.191-14.161,5.734-3.596,11.989-3.011,17.945-.496,2.828,1.194,5.168,3.492,7.902,4.972,5.585,3.022,55.841.431,60.155-2.96Z"/>
      <path class="ar" d="m1359.073,645.511c17.153-4.545,35.978-4.412,51.134-14.579,12.379-8.303,23.43-11.456,35.537-.859,7.614,6.665,15.359,8.485,25.614,4.878,8.539-3.003,18.578-.963,22.499,8.54,5.087,12.33,13.896,14.607,25.424,13.344,3.088-.339,6.301-.328,9.369.123,7.447,1.093,17.14,2.332,17.487,10.79.345,8.416-7.56,13.846-16.278,15.222-18.932,2.988-37.327,2.475-56.821.437-18.618-1.946-39.209-9.563-59.498.565-19.642,9.805-61.065-3.18-74.806-20.629-7.872-9.996-4.964-15.998,7.212-17.734,4.293-.612,8.746-.098,13.126-.098Z"/>
      <path class="ab" d="m3049.135,532.213c.67-10.941,3.292-13.201,15.338-10.527,13.003,2.886,25.761,6.878,38.888,10.459.462-3.581.805-4.322.583-4.8-5.041-10.868-16.902-22.966-5.129-33.531,10.528-9.447,24.878-2.238,36.898,2.814,4.497,1.89,8.669,4.975,12.391,8.203,8.759,7.599,15.554,11.568,22.13-3.105,5.757-12.844,17.239-8.508,25.491-3.002,9.176,6.123,16.655,14.785,25.379,22.807,3.294-3.821,6.736-8.15,10.529-12.145,9.018-9.498,18.246-12.665,24.248,2.343,3.801,9.504,7.531,7.936,13.225,2.44,2.219-2.144,4.993-3.704,7.437-5.629,6.577-5.18,13.733-9.891,22.187-5.848,9.595,4.589,5.995,13.828,5.903,21.64-2.829,20.728-7.568,21.509-26.743,22.396-16.678.772-34.473-5.215-50.721,5.138-9.249,5.894-18.053,1.891-24.691-6.31-4.751-5.87-7.775-12.759-11-19.513-.139,2.497-.837-1.466-.809-.723.921,24.605-13.18,25.759-30.494,18.57-11.397-4.732-19.951-14.498-29.807-22.664,5.531,26.542-.061,34.264-25.156,34.32-21.829.049-42.187-4.03-56.078-23.332Z"/>
      <path class="at" d="m517.913,591.712c13.963,4.037,24.606,18.842,42.822,14.033-5.471-9.197-17.884-5.646-22.892-19.398,24.636,12.056,48.679-2.411,71.58,7.965,4.278,1.938,9.778,1.242,14.725,1.626,16.144,1.253,31.867-4.561,48.55-.717,13.318,3.068,20.955-7.697,25.146-21.422,3.025,3.498,4.509,5.257,6.038,6.976,16.613,18.683,17.274,18.689,37.751,3.212,4.439-3.355,8.89-7.333,13.997-9.014,7.774-2.559,20.78-12.61,15.004,9.698-3.091,11.941,10.346,17.764,23.553,9.165,17.862-11.629,36.271-21.735,56.244-29.044,2.808-1.028,5.737-1.723,8.854-2.644.197,24.382,5.408,28.205,27.307,18.03,17.823-8.281,36.381-11.469,56.595-12.383-2.365,8.073-13.025,11.496-12.876,20.901-17.904,1.774-35.811,3.369-52.519,11.003-11.541,5.273-23.309,7.437-31.647-4.967-4.612-6.86-8.922-4.912-14.083-2.153-9.339,4.993-18.506,10.326-27.976,15.053-15.577,7.775-31.72,11.427-48.098,2.718-4.968-2.642-8.977-2.248-14.108-1.159-6.582,1.396-15.554,3.896-20.026.842-26.481-18.085-48.979,1.415-72.871,6.33-5.044,1.038-9.399,1.627-14.456.391-25.274-6.175-49.613-8.408-76.218-.888-13.474,3.808-31.581-7.979-40.398-24.154Z"/>
      <path class="at" d="m3049.135,532.213c18.446,10.446,36.677,21.463,59.328,18.775,6.624-.786,14.885,1.785,18.248-6.16,3.231-7.637,3.337-15.848-2.776-22.878-2.385-2.742-5.801-4.969-5.251-11.045,15.444.619,21.945,14.784,32.714,21.681,9.468,6.065,17.749,15.428,30.074,9.194,11.667-5.902.992-17.22,4.773-26.645,10.823,4.529,12.115,15.361,16.872,23.357,7.55,12.691,16.2,17.425,28.165,5.324,4.136-4.184,7.442-7.514,14.161-2.898,7.041,4.838,15.662,2.997,23.61,1.074,2.333-.564,5.687-3.904,6.355-3.341,20.868,17.591,21.52-5.566,29.231-14.319,10.648,11.699,8.216,20.111-5.43,27.768-17.132,9.614-31.564,15.679-54.522,12.906-25.78-3.114-52.44-2.655-78.19-9.562-.594-.159-1.636-.441-1.783-.217-17.076,26.082-50.036-1.694-68.721,20.122-2.053,2.397-8.384,2.018-12.58,1.554-29.974-3.316-57.64-13.611-83.681-28.552-2.666-1.53-6.291-3.297-4.617-6.821,1.123-2.365,4.366-4.808,6.956-5.185,7.375-1.074,14.704-.549,22.179,1.318,8.767,2.191,18.625,5.454,24.887-5.449Z"/>
      <path class="o" d="m1287.494,520.512c13.363-10.641,25.804-19.988,33.51,5.954,2.792,9.402,8.743,2.023,12.739-1.064,14.276-11.029,28.049-23.138,48.175-20.159,15.777,12.351-.71,26.035,2.04,41.344,8.068-2.412,15.998-4.782,23.929-7.153,8.427-.636,19.876-7.838,23.59,4.532,3.586,11.942-8.963,14.438-17.054,18.523-10.091,5.094-20.689,8.737-31.863,10.65-10.889,1.865-19.821-1.444-26.306-10.374-6.885-9.482-5.446-18.594,2.634-28.122-9.805,7.88-17.618,16.449-27.163,22.985-16.882,11.56-22.963,10.045-34.854-11.481-8.3,21.863-21.137,24.787-42.735,18.945-15.104-4.085-32.897-3.192-49.292-6.454-5.248-3.135-6.979-8.396-8.669-13.825-2.805-9.009-6.587-18.886,2.204-25.803,9.075-7.139,16.473,1.192,22.849,6.447,8.599,7.087,14.708,13.362,20.247-3.261,2.453-7.362,13.683-7.785,16.805-.896,11.298,24.927,19.864,10.915,29.215-.788Z"/>
      <path class="as" d="m33.068,531.871c14.945,1.14,16.086-8.753,14.975-19.53-1.112-10.785,2.774-12.977,12.569-9.655,8.162,2.768,16.719,4.469,25.19,6.202,5.464,1.118,13.678,2.999,15.931-1.461,9.719-19.237,19.228-5.637,27.467-.083,22.77,15.35,27.786,14.175,35.543-11.045.949-3.084,1.779-6.759,5.105-6.884,4.426-.167,5.619,4.337,7.089,7.648,6.762,15.233,17.115,20.777,32.799,12.532,6.056,13.059,19.235,7.844,29.048,10.59,6.726,1.882,12.481,3.023,17.706,8.484,12.736,13.311,28.581,22.819,45.611,29.152,9.158,3.406,16.97,6.274,15.956,16.935-1.105,11.619-11.062,9.659-18.952,9.793-16.666.284-33.416.572-37.734-21.285-.305-1.545-2.446-4.119-3.316-3.958-23.178,4.284-34.358-23.614-57.25-21.167-5.243.561-12.272-2.339-16.724-7.316-5.253-5.873-8.701-4.551-12.782,1.82-7.072,11.041-21.281,15.58-29.306,9.065-20.303-16.482-43.787-8.365-65.33-13.157-9.65-2.147-21.325-10.014-28.86,5.792-1.613,3.384-10.461,3.056-14.737-2.471Z"/>
      <path class="o" d="m2414.821,539.279c-10.157-17.401,3.431-19.6,13.655-17.1,17.17,4.198,17.522-3.552,16.251-16.129-.911-9.01-9.813-21.104,4.062-26.034,11.645-4.138,18.79,6.437,25.993,14.364,11.205,12.331,16.614,29.04,29.938,40.148,6.752-4.854,4.328-17.459,15.2-17.214,9.921.223,8.661,10.695,13.529,16.91,6.807-5.895,12.414-13.706,19.916-16.59,12.969-4.986,11.632,7.951,12.72,15.504,11.446-2.005,15.66-10.697,22.593-15.678,9.04-6.494,13.774-4.51,13.6,6.982-4.446,12.765-14.798,21.181-23.156,31.012-3.697,4.349-9.445,7.758-14.932,6.342-19.603-5.057-38.995.573-58.465.072-8.401-.216-14.238-4.291-18.147-11.146-5.229-9.17-10.944-18.122-15.163-30.878,1.232,5.154.205,1.835.445,2.857,6.809,28.928-4.333,39.258-32.651,31.935-9.905-2.561-17.29-9.627-25.388-15.357Z"/>
      <path class="k" d="m1204.844,558.639c21.184.742,42.791-5.17,63.301,5.986,7.896,4.295,14.363-1.523,18.441-8.456,4.253-7.231,7.88-14.831,11.963-22.62,5.657,4.377,3.594,8.363,4.135,11.773,2.574,16.216,10.823,19.78,23.827,9.939,6.929-5.243,13.601-10.858,20.095-16.636,5.983-5.323,11.14-11.751,22.412-13.382-3.524,5.837-5.839,10.521-8.94,14.609-4.584,6.044-6.617,12.24-1.972,18.836,4.419,6.276,9.928,11.346,18.533,10.585,17.758-1.571,33.147-10.098,49.082-16.94,2.968-1.274,4.432-4.554,3.967-7.85-.519-3.67-3.482-4.866-6.832-4.944-4.988-.116-9.979-.078-14.968-.105,11-4.215,21.402-10.233,27.974,7.368,2.823,7.561,14.735,3.665,22.018,7.217,5.78,2.819,12.672,4.861,12.313,12.014-.373,7.437-8.182,9.603-13.915,10.286-27.075,3.225-54.256,5.568-81.405,8.167-1.845.177-4.109.542-5.549-.281-32.564-18.612-67.384-4.757-101.036-7.324-10.702-.816-20.064,5.746-31.255,3.055-13.714-3.297-21.39-14.373-32.189-21.297Z"/>
      <path class="t" d="m1858.346,532.341c7.228,4.978,12.605,25.534,23.186,2.182,2.287-5.046,8.942-3.087,12.898.866,4.359,4.355,8.341,9.085,12.284,13.428,9.224-2.678,5.059-15.584,14.215-16.067,10.335-.545,7.69,11.524,14.64,16.259,12.605-11.079,17.088-28.145,28.585-39.914,4.321-4.423,8.039-9.969,13.223-12.888,8.091-4.557,14.749-1.987,15.915,8.134.482,4.188-.5,8.624-1.276,12.864q-4.09,22.328,18.3,21.967c4.945-.073,10.091-.61,13.655,4.058,4.941,7.704-1.01,11.465-5.892,15.111-5.502,4.109-11.891,6.839-18.133,9.681-25.076,11.419-37.947,2.006-35.461-25.838-2.439,1.305-2.586,4.01-3.367,6.139-7.178,19.567-18.819,30.719-41.926,28.178-11.185-1.23-23.056-.554-34.903,2.571-12.674,3.343-40.362-29.105-38.232-42.774,1.336-8.573,6.779-6.983,12.289-3.956Z"/>
      <path class="ar" d="m1858.346,532.341c-5.678.04-12.981-1.082-8.166,8.538,6.501,12.984,15.615,24.016,26.842,33.235,1.367,1.122,4.583,2.447,4.864,2.082,10.526-13.716,25.2.686,35.75-5.057,9.844-5.359,23.356,9.909,30.241-7.021,4.452-10.948,10.537-21.24,16.044-31.745,1.05-2.003,2.822-3.629,6.636-8.403-1.267,11.941-2.58,20.148-2.896,28.392-.36,9.415,5.201,18.184,13.85,16.173,16.247-3.778,34.366-6.862,42.46-25.306,11.165,4.743,13.201,21.115,29.01,21.229,5.631.041,5.952,8.594,1.458,13.699-8.189,9.303-19.971,14.074-30.196,8.823-11.066-5.682-19-3.742-29.388-.002-10.664,3.839-22.222,7.808-33.99.272-8.742-5.599-14.994,5.588-24.256,5.333-17.07-.47-33.832-3.622-51.466-1.58-17.93,2.075-25.04-17.454-36.316-28.58-8.743-8.626-8.601-16.632-5.225-26.671,3.232-9.61,8.144-9.575,14.747-3.411Z"/>
      <path class="au" d="m4895.239,492.496c-18.108-5.853-36.378-10.231-55.519,1.924-8.168,5.187-14.957,5.704-20.506-3.346-4.293-2.272-7.765-3.644-13.36-1.049-10.878,5.044-27.171-6.094-28.618-18.253-4.657,3.618-2.831,9.03-3.866,13.671-1.012,4.539-2.936,8.991-8.659,5.238-14.671-9.621-25.345-1.216-36.082,7.463,12.255.445,22.249,3.466,29.294,15.528,5.192,8.89,15.923,12.546,26.37,10.692,24.091-4.273,49.395.926,72.723-10.338,6.292-3.038,15.108-2.459,21.824,1.418,5.311,3.065,10.805,4.385,16.399,4.937v-27.885Z"/>
      <path class="as" d="m2414.821,539.279c9.219,3.786,18.481,7.473,27.644,11.389,8.619,3.683,17.151,4.789,24.369-2.333,6.732-6.642,4.626-15.012,2.653-22.927-1.331-5.339-3.251-10.53-5.941-19.067,14.79,11.185,18.811,25.777,25.624,38.024,6.033,10.846,12.081,11.263,24.275,12.389,14.574,1.347,28.56-10.764,43.609.242,8.697,6.361,17.832-1.52,23.646-9.529,6.258-8.62,12.22-17.373,21.578-23.027,3.553,3.367,6.755,7.259,10.76,9.959,4.311,2.906,12.881,2.849,10.239,10.432-2.428,6.967-8.455,13.444-16.701,13.086-11.313-.49-18.959,4.573-25.696,12.524-14.728,17.382-35.079,7.954-52.304,8.723-11.678.522-26.339.865-37.859-7.17-1.394-.972-4.054-1.806-5.253-1.138-37.736,21.031-51.327-11.662-70.643-31.579Z"/>
      <path class="ar" d="m4371.731,498.371c16.959,1.354,24.692-9.119,29.558-23.154,1.218-3.514,1.793-8.507,6.093-8.347,5.463.203,5.449,5.547,6.111,9.885,4.392,28.791,13.391,32.578,37.315,16.214,7.62-5.212,15.79-9.623,25.588-15.534-1.278,19.77,11.907,17.399,23.994,16.828.62-.029,1.249-.142,1.847-.31,10.787-3.044,22.549-10.356,32.123-8.154,14.113,3.247-3.829,19.787,6.341,27.576-16.819,8.336-32.607,15.232-50.991.72-7.887-6.226-19.71-5.185-31.202,1.735-13.307,8.012-29.715,10.955-41.516-5.541-1.992-2.784-4.783-5.103-7.76-3.589-14.96,7.61-25.474-3.541-37.5-8.329Z"/>
      <path class="f" d="m4665.5,438.934c-6.308-12.673-12.234-25.555-19.02-37.966-8.556-15.647-8.864-15.34-28.193-15.982-3.794-.126-3.213-4.66-3.502-6.852-2.491-18.909-4.457-37.887-6.734-58.228,28.072,20.185,58.412,81.063,57.45,119.028Z"/>
      <path class="v" d="m4726.121,319.626c18.863,39.567,17.34,76.601,3.841,113.957.502-37.052-7.884-73.741-3.841-113.957Z"/>
      <path class="ac" d="m4778.194,367.557c5.749,8.548,3.447,18.293,2.212,26.986-3.472,24.416-8.12,48.7-13.29,72.825-2.304,10.75-7.746,17.695-16.998,4.09,7.864-6.889,11.395-15.556,13.136-25.938,4.376-26.089,9.885-51.987,14.94-77.962Z"/>
      <path class="m" d="m4873.202,340.714c4.697,16.8-2.043,29.687-3.226,43.074-.199,2.263-2.086,6.113-3.52,6.271-20.962,2.318-26.58,21.577-40.362,38.834,6.514-37.224,21.803-63.807,47.108-88.179Z"/>
      <path class="x" d="m4729.355,140.234c-10.609,1.17-13.07-5.788-14.314-11.296-4.261-18.858-14.004-34.553-25.563-49.529-2.669-3.459-8.833-7.362-2.521-12.368,4.445-3.525,9.847-2.123,13.822,1.398,11.442,10.137,20.591,22.16,23.928,37.273,2.486,11.26,3.154,22.922,4.647,34.521Z"/>
      <path class="af" d="m1166.918,685.723c-15.399-.753-29.238-4.401-42.897-8.633-3.951-1.224-9.831-3.197-8.964-8.048.828-4.634,5.646-8.675,10.797-9.15,19.249-1.773,36.955,3.378,53.292,13.454,2.846,1.755,4.867,4.926,3.484,7.892-3.625,7.775-11.124,2.62-15.712,4.485Z"/>
      <path class="ae" d="m1168.012,716.98c-.862,4.978.575,11.796-5.933,10.033-11.971-3.242-11.302-14.829-12.934-24.293-.761-4.415.039-9.484,6.499-8.192,13.552,2.71,8.223,15.583,12.367,22.452Z"/>
      <path class="ao" d="m1114.386,690.306c-5.568,9.096-12.201,15.702-21.954,19.074-5.46,1.888-11.799,4.203-14.334-2.635-2.286-6.166,3.411-10.418,8.462-12.385,8.432-3.285,17.043-7.445,27.826-4.053Z"/>
      <path class="j" d="m1131.789,730.056c-11.163-14.296-7.809-25.942-3.176-37.395.955-2.362,5.43-2.735,6.225-.718,4.766,12.091.371,23.524-3.049,38.113Z"/>
      <path class="ad" d="m1187.727,693.934c7.75,3.735,15.758,9.048,18.639,19.487.686,2.486-.913,4.638-3.942,5.104-3.805.585-24.55-16.1-23.673-19.495.84-3.249,3.964-4.434,8.976-5.096Z"/>
      <path class="ak" d="m1208.041,667.136c5.107,1.206,13.997-2.191,13.425,5.522-.469,6.333-9.163,7.412-15.535,7-4.634-.3-11.946.824-11.966-5.719-.031-9.946,9.068-5.104,14.076-6.802Z"/>
      <path class="aj" d="m1098.398,633.5c12.791-1.131,19.755,5.682,28.019,13.134-14.94,7.002-22,.397-28.019-13.134Z"/>
      <path class="ai" d="m1091.613,658.102c5.345,1.616,12.807-.625,11.441,8.544-.517,3.467-.697,8.418-5.921,6.576-5.887-2.075-14.707-2.258-15.15-10.458-.286-5.299,6.37-3.724,9.63-4.663Z"/>
      <path class="aq" d="m1137.65,632.401c10.29,4.557,14.608,9.258,13.304,17.14-.135.816-4.553,1.81-6.604,1.274-10.056-2.631-6.042-10.119-6.7-18.414Z"/>
      <path class="az" d="m1171.54,655.036c2.716-9.03,7.223-13.426,14.428-14.619,3.239-.536,4.657,2.269,3.641,4.511-3.015,6.655-9.246,8.6-18.069,10.108Z"/>
      <path class="ag" d="m1653.867,581.27c-7.767-1.317-15.172,2.067-16.889-5.452-1.585-6.94,5.352-9.047,10.223-11.41,11.796-5.723,23.894-10.298,37.44-9.837,6.419.218,11.899,3.178,13.302,8.366,1.944,7.186-5.496,8.555-10.442,9.953-11.898,3.363-23.995,6.021-33.633,8.381Z"/>
      <path class="al" d="m1697.265,585.229c15.997-1.078,27.792.088,34.644,13.123,1.617,3.077.022,6.991-3.392,7.379-14.941,1.699-21.429-9.279-31.251-20.502Z"/>
      <path class="ay" d="m1666.621,603.228c-2.325,9.059-2.65,19.572-13.08,20.882-7.094.892-5.209-7.267-4.493-11.359,1.375-7.854-.171-18.906,10.071-20.965,7.715-1.551,5.612,7.499,7.501,11.441Z"/>
      <path class="ax" d="m1685.975,627.716c-8.158-12.704-7.392-23.692-7.427-34.487-.011-3.408,1.566-6.483,5.102-6.319,1.732.08,4.416,2.804,4.808,4.713,2.297,11.184,3.497,22.421-2.484,36.093Z"/>
      <path class="ba" d="m1618.278,614.496c-4.561.027-7.191-1.78-5.724-5.577,3.517-9.102,9.98-16.023,19.053-19.495,2.872-1.099,9.417,1.388,7.49,5.331-4.405,9.015-12.081,15.669-20.819,19.741Z"/>
      <path class="bb" d="m1716.05,526.143c-.727,3.889-.668,4.591-.973,5.051-5.153,7.776-10.225,15.921-21.546,13.746-2.162-.415-4.951-2.808-2.618-5.413,6.42-7.17,13.695-13.108,25.138-13.384Z"/>
      <path class="am" d="m1612.044,562.301c4.881,1.127,12.335-2.312,13.538,5.537,1.069,6.986-5.654,7.126-10.237,7.288-6.075.215-14.009-.15-14.649-7.562-.616-7.138,7.055-4.187,11.348-5.263Z"/>
      <path class="ah" d="m1734.436,556.264c-7.45,8.028-13.518,12.298-22.048,9.562-1.294-.415-2.805-5.158-1.975-6.379,5.611-8.27,13.479-5.791,24.024-3.182Z"/>
    </g>
  </g>
</svg>