<?xml version="1.0" encoding="UTF-8"?>
<svg id="b" data-name="Layer 2" xmlns="http://www.w3.org/2000/svg" width="2972.674" height="846.017" viewBox="0 0 2972.674 846.017">
  <defs>
    <style>
      .d, .e, .f, .g, .h, .i, .j, .k, .l, .m, .n, .o, .p, .q, .r, .s, .t, .u, .v, .w, .x, .y, .z, .aa, .ab, .ac, .ad, .ae, .af, .ag, .ah, .ai, .aj, .ak, .al, .am, .an, .ao, .ap, .aq, .ar, .as, .at, .au, .av, .aw, .ax, .ay, .az, .ba, .bb, .bc, .bd {
        stroke-width: 0px;
      }

      .e {
        fill: #4c5251;
      }

      .f {
        fill: #5f5e5e;
      }

      .g {
        fill: #5d6161;
      }

      .h {
        fill: #615f5f;
      }

      .i {
        fill: #79733a;
      }

      .j {
        fill: #7a736c;
      }

      .k {
        fill: #525253;
      }

      .l {
        fill: #787575;
      }

      .m {
        fill: #838482;
      }

      .n {
        fill: #505454;
      }

      .o {
        fill: #353a30;
      }

      .p {
        fill: #474848;
      }

      .q {
        fill: #4a4f4f;
      }

      .r {
        fill: #4a4f4e;
      }

      .s {
        fill: #2d472d;
      }

      .t {
        fill: #2d3131;
      }

      .u {
        fill: #595b5b;
      }

      .v {
        fill: #636363;
      }

      .w {
        fill: #646869;
      }

      .x {
        fill: #6e7372;
      }

      .y {
        fill: #464747;
      }

      .z {
        fill: #868980;
      }

      .aa {
        fill: #949894;
      }

      .ab {
        fill: #5a5d5d;
      }

      .ac {
        fill: #58595a;
      }

      .ad {
        fill: #585758;
      }

      .ae {
        fill: #827e7d;
      }

      .af {
        fill: #828080;
      }

      .ag {
        fill: #444647;
      }

      .ah {
        fill: #404142;
      }

      .ai {
        fill: #414243;
      }

      .aj {
        fill: #414343;
      }

      .ak {
        fill: #131617;
      }

      .al {
        fill: #dddba0;
      }

      .am {
        fill: #ccd4cf;
      }

      .an {
        fill: #ccd4d0;
      }

      .ao {
        fill: #8a8b8a;
      }

      .ap {
        fill: #a1aeae;
      }

      .aq {
        fill: #7d8180;
      }

      .ar {
        fill: #747776;
      }

      .as {
        fill: #686868;
      }

      .at {
        fill: #686c6c;
      }

      .au {
        fill: #656660;
      }

      .av {
        fill: #656565;
      }

      .aw {
        fill: #ede368;
      }

      .ax {
        fill: #fcee21;
      }

      .ay {
        fill: #ecf0ed;
      }

      .az {
        fill: #ebefec;
      }

      .ba {
        fill: #676e6d;
      }

      .bb {
        fill: #6a675b;
      }

      .bc {
        fill: #696865;
      }

      .bd {
        fill: #696a6a;
      }
    </style>
  </defs>
  <g id="c" data-name="Layer 1">
    <g>
      <path class="ay" d="m2877.457,19.177c-4.676.045-9.405.311-13.662,2.236-36.31,16.422-76.379,16.235-114.213,25.911-6.934,1.773-14.902,4.093-20.042-3.083-16.454-22.971-39.702-21.162-62.961-17.053-13.276,2.345-28.244,1.702-37.988,14.148-31.403,10.812-63.997,8.284-96.368,8.399-30.682,2.505-61.043,5.539-90.902,14.684-34.817,10.665-69.655,21.98-106.017,26.885-4.865,1.511-9.841,2.279-14.912,2.413-2.576.245-5.132.639-7.63,1.349-11.119,2.046-22.196,4.648-33.372,6.055-26.615,3.351-50.451,17.028-77.992,18.251-21.452.952-43.127.871-64.635,4.626-68.406,11.943-137.15,21.607-206.605,25.188-4.643.24-9.218,1.096-13.761,2.021-98.443,20.045-197.63,35.764-296.877,51.15-13.204,2.047-25.667,7.585-39.247,8.309-55.793,2.973-110.165,14.036-164.065,28.308-65.209,17.267-130.088,36.068-197.404,44.172-14.245,1.715-28.357,5.351-42.204,9.474-7.671,2.285-13.452,6.02-9.349,15.57-1.691,12.281-7.993,13.323-20.888,3.546-4.001-10.281-12.007-9.801-20.451-7.248-30.533,9.231-62.002,14.406-93.055,21.334-24.481,5.461-48.306,14.234-73.772,15.075-24.745.817-48.811,6.388-72.958,11.214-4.925.984-10.222,2.167-12.434,7.86-1.108,6.288,5.111,9.425,7.679,14.95-6.406-.844-11.087-2.427-15.598-4.509-6.147-5.321-12.898-8.194-21.181-5.337-39.966,13.787-82.2,17.836-122.93,28.475-16.812,4.392-33.513,9.466-50.635,12.728-5.776.949-11.455,2.432-17.257,3.229-34.599,5.056-68.515,13.316-102.297,22.124-6.702,1.748-14.619,2.637-16.617,11.584-.091,4.968-1.515,7.919-7.277,5.5-5.081-2.133-10.053-4.685-15.647-5.193-3.058-.252-6.147-.217-9.224.123-48.18,5.322-95.105,17.542-142.713,26.014-5.525.983-11.209,2.546-13.608,8.776-.649,2.479-.561,4.873.455,7.255.191.447.338.771.487.961-6.166-4.507-11.351-10.562-19.527-11.542-10.375.105-20.311,2.836-30.231,5.39-15.4,3.964-30.155,11.627-45.97,12.512-47.681,2.667-93.295,20.313-141.5,18.792-6.571-.208-13.191,1.847-19.774,2.916-6.345,1.031-12.293,2.976-11.457,11.451,1.955,6.636,7.9,9.074,12.969,12.39,6.378,4.172,12.755,8.318,18.892,15.874-22.111-9.798-39.498-23.884-60.763-30.172-14.537,1.274-27.207,8.883-41.145,12.298-.159.039-.307.073-.464.111v108.409c.834-.13,1.713-.324,2.653-.606,12.211-1.947,24.719.377,36.904-2.292,42.637-9.342,86.292-14.691,126.794-32.429,5.216-2.284,10.92-3.287,16.616-3.11,15.187.472,29.654-3.234,44.018-7.359,50.984-14.641,102.68-25.819,155.097-34.093,13.242-2.091,28.015-1.443,39.084-11.763,1.56-3.252-.079-5.716-1.788-8.287-2.24-3.371-8.329-6.767-2.988-10.967,4.285-3.369,8.162,1.376,11.449,4.375,1.479,1.349,2.624,3.023,3.973,4.47,3.557,9.312,10.544,9.781,19.003,7.825,26.658-6.164,53.192-12.679,78.912-22.198,26.669-9.87,54.033-16.796,82.133-21.71,33.502-5.86,66.959-12.355,99.93-20.92,46.902-12.183,93.128-27.456,140.813-36.018,66.028-11.856,131.899-24.536,197.39-38.839,67.453-14.731,134.844-29.598,202.835-41.643,9.643-1.708,19.67-1.204,29.037-4.371,58.948-19.927,121.062-25.212,181.429-38.671,59.379-13.239,118.685-26.992,178.179-39.812,20.313-4.377,40.808-7.548,61.241-7.771,52.777-.578,102.945-14.803,153.291-27.487,33.991-8.563,67.309-19.445,102.304-23.994,15.411-2.003,30.947-.221,46.232-3.414,76.52-15.984,154.451-18.302,232.083-22.559,36.437-1.998,73.411,2.549,107.469-15.273,1.344-.703,3.005-.688,4.52-.994,51.912-10.444,103.154-24.176,155.704-31.498,36.774-5.124,71.546-19.222,108.322-24.422,11.67-2.458,21.566-10.158,33.356-11.869,41.699-6.052,82.456-17.205,124.261-22.644,12.351-1.606,24.185-4.611,34.192-12.821,5.637-4.624,12.851-6.251,19.518-8.958,21.777-8.843,45.605-13.183,64.289-28.862,8.203-16.583,2.835-23.581-19.163-24.919ZM347.96,487.109c-.123-.086-.242-.178-.364-.266.09.015.188-.012.301-.09,1.699-1.171.735,2.226.063.356Z"/>
      <path class="an" d="m697.921,553.3c-43.694,9.978-88.271,15.095-131.768,26.614-52.299,13.851-106.112,20.689-159.792,27.597-51.312,6.603-99.41,26.357-149.673,37.687-34.881,7.862-70.543,15.386-103.477,30.836-2.791,1.309-5.954,1.7-9.055,1.882-32.083,1.884-63.032,10.268-94.365,16.443-6.643,1.309-12.901,3.628-18.395,7.756-3.078,2.386-6.346,4.397-10.003,5.734-1.373.622-2.683,1.343-3.905,2.231-3.412,2.393-4.165,5.446-2.858,9.388,2.694,8.125-.812,13.253-6.268,16.805v86.021c4.93-1.318,10.032-2.073,15.272-2.273,10.823-.414,21.529-.944,31.93-4.232,4.306-1.441,8.688-2.555,13.15-3.36,1.46-.324,2.91-.671,4.332-1.153,8.794-2.095,17.898-.133,26.696-2.095,1.471-.398,2.908-.898,4.285-1.557,18.264-9.051,36.735-17.842,55.532-25.521,19.336-7.899,37.624-21.597,60.66-16.373,5.64-.903,10.714-3.604,16.12-5.18,36.466-10.624,70.286-28.724,108.126-35.911,29.111-5.529,58.752-10.316,86.166-22.816,3.48-1.695,7.064-3.091,10.785-4.122,1.474-.442,2.939-.918,4.361-1.516,7.321-2.432,14.619-4.914,21.733-7.938,38.338-16.294,76.73-32.454,115.729-47.135,10.455-3.936,20.312-5.885,31.115-.315,7.474,3.854,16.061,2.766,24.18.558,8.664-3.155,17.213-3.991,26.592-2.062,9.232,1.899,19.055,2.616,28.202-1.746,4.543-3.324,5.904-8.331,6.861-13.429,3.433-18.282,8.918-36.011,14.053-53.851,4.354-15.126-.44-20.596-16.324-16.969Z"/>
      <path class="am" d="m1795.574,60.312c-6.568-1.826-13.304-1.593-19.999-1.575-29.895.081-59.738-.189-89.619,2.762-55.869,5.518-112.203,4.586-168.015,11.843-17.804,2.314-35.777,4.495-53.941,4.041-47.931-1.197-95.722,3.438-143.64,4.247-29.576.498-59.562,2.862-88.895,8.677-33.473,6.635-67.443,7.69-101.361,9.016-27.815,1.086-55.744-1.605-83.497,1.266-38.367,3.97-76.6,9.478-115.342,7.842-34.496-1.114-68.467,6.472-102.908,6.209-22.869-.601-44.616,8.186-67.096,8.906-51.895,1.662-103.528,7.584-155.326,9.29-40.266,1.326-79.81,7.915-119.639,11.937-49.21,4.97-98.242,11.61-147.751,9.711-45.006-1.727-89.579,4.182-134.061,7.891-53.935,4.497-107.827,5.87-161.775,8.229-11.454.501-22.908-.028-34.346-.166v72.029c22.217-1.816,44.29-5.019,66.526-6.821,26.521-2.15,53.647-1.048,79.529-9.218,10.53-3.325,21.179-4.236,32.065-2.187,7.147,1.345,14.286,1.225,21.544.506,65.533-6.491,129.656-22.276,195.921-25.457,57.398-2.754,114.35-14.271,171.493-21.951,37.295-5.012,74.66-11.362,112.171-10.962,34.171.363,67.68-.634,101.477-6.482,39.015-6.751,78.232-15.237,118.006-13.721,20.33.775,39.986.216,59.718-3.978,12.169-2.586,24.539-2.538,36.913-3.066,40.029-1.71,79.948-5.316,119.993-7.1,15.49-.689,30.735-2.408,46.066.659,24.606.932,49.013,5.248,73.881.525,27.339-5.193,55.129-7.441,83.061-6.363,7.544.178,15.077.173,22.512-1.415,41.984-7.855,84.293-10.721,127.035-11.333,50.366-.722,100.587-4.624,149.792-17.326,26.407-6.816,53.47-9.801,80.928-10.328,31.36-.602,62.499-4.6,93.143-11.616,9.042-8.151,2.128-11.316-4.563-14.52Z"/>
      <path class="az" d="m8.363,12.462v41.744c24.788,2.463,49.711-.487,74.55.812,4.34.228,14.441,2.152,10.471-9.254.686-2.501-9.245-3.138-1.529-6.352,6.886-2.87,13.88-2.244,18.119,5.441,2.691,4.127,6.646,6.502,11.464,6.945,35.854,3.298,72.13,8.667,107.492-.048,30.231-7.451,59.594-7.276,90.09-3.546,22.54,2.757,46.161,5.332,67.647-6.998.727-1.681.839-3.38.327-5.141-2.516-3.568-7.119-3.605-10.255-6.128-.568-.294-1.146-.562-1.722-.834,10.736,3.757,21.597,7.038,33.062,8.051,11.669,1.03,23.525-.061,34.947,3.219,9.406,3.204,19.237,2.756,29.02,3.267,57.815,3.02,114.991-9.515,172.875-6.479,48.823,2.561,97.423-10.862,146.461-3.146,3,.472,6.171-.26,9.23-.741,23.087-3.637,46.534-3.819,69.443-1.344,46.159,4.986,91.578-.672,137.096-5.834,20.002-2.269,39.924-3.909,60.072-4.466,27.411-.758,54.613,4.714,81.813,2.829,23.693-1.643,47.327-3,71.028-2.469,34.861.779,69.22-3.365,103.389-9.527H8.363Z"/>
      <path class="az" d="m1389.24,12.462c12.212.588,24.413.583,36.606,0h-36.606Z"/>
      <path class="an" d="m2300.633,93.126c-54.048-1.013-107.801-9.489-162.012-6.357-11.885-.528-23.605.663-35.349,2.547-42.669,6.845-85.787,10.625-128.685,14.989-63.904,6.5-127.89,13.039-192.055,17.073-6.686.42-13.221,2.05-19.387,4.84-14.186,11.248-31.039,12.625-48.17,13.117-31.364.903-62.767-1.759-94.11,2.659-45.299,6.385-90.263,15.506-136.573,13.034-60.526-3.231-119.667,11.483-179.587,16.588-31.688,2.7-63.143,8.758-95.159,7.884-18.194-.496-36.043,1.466-53.501,6.343-51.975,14.52-105.829,15.057-158.829,21.992-22.463,2.939-45.296-.079-67.48,5.547-4.951,3.12-1.521,7.536-1.153,10.976-10.003,1.211-15.794-6.507-23.659-9.091-41.316,2.254-81.528,12.044-122.266,18.337-41.789,6.456-83.081,17.42-125.251,19.61-34.253,1.778-67.669,6.549-100.981,13.66-44.93,9.59-90.321,16.969-136.023,20.551-83.794,6.568-166.989,18.167-250.461,27.377-50.742,5.599-101.179,13.797-151.805,20.459-3.205.422-6.482.568-9.774.685v205.305c2.99-.61,5.972-1.328,8.948-2.248,12.636-3.906,24.193-11.507,37.992-11.536,5.077-4.862,10.361-2.886,15.771-.629,3.624,1.512,7.217,4.624,11.373,1.091-2.637-5.849-.456-9.054,5.658-9.231,14.887-.432,29.431-4.631,44.524-3.37,7.584.634,15.208-.268,22.947-1.779,20.064-3.917,39.666-9.544,60.361-11.477,16.875-1.576,34.352-2.153,51.061-7.848,20.849-7.106,42.088-13.371,64.059-16.427,1.53-1.165.421-7.083,5.082-2.658,3.447,3.273,6.496,7.502,12.196,6.887.732-3.855,2.755-5.791,6.826-7.055,7.901-2.453,16.085-2.541,24.064-4.139,34.859-6.984,69.307-16.253,104.743-20.014,10.605-1.125,20.945-5,31.831-3.409,2.547-6.684-6.85-6.382-6.961-11.407,11.345-.465,17.459,12.071,28.895,11.154.357-3.442-.519-7.468,4.323-8.72,8.408-2.174,16.8-4.409,25.206-6.591,29.171-7.572,58.732-13.308,88.361-18.721,2.124-3.84,2.803-8.598,7.239-10.958,4.177-2.224,8.23-.791,11.014,1.811,1.325,1.239-4.637,2.479-3.396,5.989,4.654.591,8.985-.096,13.522-1.688,25.589-8.982,52.368-13.354,78.644-19.669,23.781-5.716,48.324-7.979,71.663-15.783,18.331-6.13,18.36-6.042,31.535,3.315,1.622-5.318,5.511-8.951,9.372-12.604,2.023-9.268,10.984-7.364,16.353-8.25,25.703-4.238,51.074-11.553,77.533-10.246,2.497.123,5.074-.638,7.564-1.206,36.426-8.318,72.749-17.128,109.308-24.812,16.086-3.381,31.779-8.05,47.654-12.097,5.726-1.46,7.636.037,7.899,5.369.108,2.197,1.223,3.852,3.068,5.025,6.615-14.241,17.177-9.318,27.479-5.655,1.411-4.589-3.354-7.308-3.575-11.891,17.295-6.486,35.542-10.557,53.561-12.697,23.501-2.792,46.262-8.885,69.585-12.107,25.043-3.46,48.681-12.442,73.012-18.593,35.117-8.877,70.421-17.131,105.441-26.424,13.461-3.572,27.171-5.119,40.793-7.195,20.739-3.16,41.619-5.838,62.539-7.198,11.402-.741,22.461-1.982,33.297-5.392,7.363-2.317,15.196-2.927,22.438-4.834,13.203-3.478,26.657-.986,39.742-4.347,43.236-11.105,87.647-15.71,131.528-23.274,26.718-4.605,53.691-7.885,80.033-14.869,26.367-6.99,53.236-11.184,80.736-9.661,5.62.311,11.574.595,16.902-.851,28.419-7.714,57.373-10.666,86.695-11.66,10.699-.362,21.735-1.213,31.93-4.191,36.373-10.625,74-10.513,111.183-13.652,13.053-1.102,25.518-3.056,37.419-7.876,9.609-3.892,19.525-5.98,29.487-8.443,13.299-3.288,27.24-3.598,40.077-8.841-3.864-4.301-9.106-4.446-14.263-4.543Z"/>
      <path class="an" d="m2576.786,133.741c-20.59,4.101-39.814,13.327-61.087,15.444-9.148.911-18.385.091-27.563,2.436-26.779,6.84-53.672,13.126-80.924,18.097-28.702,5.235-57.521,10.731-84.513,22.757-8.076,3.598-16.764,4.42-25.678,4.276-20.623-.333-41.254-.188-61.882-.151-6.181.011-12.454-.328-18.524.578-20.812,3.106-41.648,5.547-62.73,5.599-16.946.042-33.923-.713-50.69,3.072-20.503,4.628-41.583,5.665-62.345,8.404-16.231,2.141-31.738,8.357-48.596,7.353-22.165-1.32-43.966,3.298-65.401,8.2-22.492,5.145-44.898,10.94-66.671,18.859-22.297,8.109-46.089,9.733-69.013,15.301-27.868,6.768-56.024,11.688-85.232,10.744-12.932-.418-26.721.834-39.684,3.635-39.073,8.44-77.984,17.639-116.907,26.759-19.959,4.676-39.719,9.966-60.103,12.983-12.05,1.783-24.344,3.255-36.111,7.309-16.037,5.524-32.953,7.358-49.525,10.673-24.569,4.915-49.59,6.771-73.959,13.562-22.092,6.158-43.884,13.824-67.418,15.272-14.056.865-28.857,1.368-42.368,6.513-10.66,4.06-21.496,6.262-32.642,8.357-15.583,2.928-31.442,3.676-46.94,7.941-12.303,3.386-24.665,7.246-37.212,9.545-33.752,6.185-66.772,15.76-100.781,20.773-29.895,4.407-59.061,12.636-88.899,17.726-24.706,4.213-50.094,6.395-73.955,13.375-30.565,8.941-61.553,16.103-92.14,24.823-16.283,4.643-32.456,9.909-49.001,13.347-36.577,7.6-73.598,13.175-109.995,21.508-44.501,10.188-86.359,29.755-131.451,38.368-7.391,1.412-11.918,2.855-12.468-6.587-.068-1.175-1.88-2.248-2.884-3.368-3.285,4.941-7.942,8.54-12.24,12.489-2.339,4.903-6.69,5.324-11.514,6.082-22.703,3.565-45.321,7.666-67.982,11.5-22.733,3.846-44.395,12.409-67.362,15.21-10.679,1.302-21.317,2.707-31.457,6.675-19.696,7.707-39.766,13.8-61.281,12.885-7.993-.34-15.035,2.861-22.21,5.669-10.519,4.117-20.852,10.777-31.65,11.666-20.236,1.667-38.388,11.124-58.375,12.885-19.848,1.749-38.972,9.583-59.369,7.003-3.508-.444-7.245-.308-9.692,3.118v60.128c3.117-1.346,6.117-2.899,8.938-4.73,21.012-13.642,44.7-17.769,68.376-23.1,20.211-4.55,41.273-3.704,60.997-9.322,28.173-8.023,55.889-17.295,84.362-24.702,40.745-10.599,83.434-13.814,122.484-31.172,7.896-3.51,17.114-3.844,25.486-6.333,19.965-5.935,40.737-6.209,61.082-9.354,66.726-10.317,132.244-26.715,198.685-38.501,58.332-10.348,116.495-21.901,173.275-39.362,19.208-5.907,39.546-7.523,58.376-15.029,16.51-6.582,33.689-9.531,51.468-9.011,13.472.394,26.957.045,39.75-4.622,21.868-7.978,44.518-12.555,67.154-17.702,57.26-13.02,113.591-30.22,171.575-39.957,47.68-8.007,93.536-26.113,142.854-25.274,10.181.173,20.446-2.944,30.13-6.607,43.7-16.531,90.357-20.813,135.163-32.789,31.848-8.512,65.775-6.783,96.91-19.155,39.948-15.874,83.293-18.835,123.874-32.463,8.656-2.907,18.178-3.549,27.502-4.002,31.525-1.531,62.219-8.381,93.142-14.106,45.317-8.39,89.47-22.565,138.799-28.497-86.936,26.153-172.041,44.048-258.265,57.54-26.236,4.105-52.534,10.328-78.369,16.972-36.427,9.368-72.114,21.627-109.605,26.579-36.358,4.802-72.268,13.129-107.432,22.306-50.916,13.287-101.78,25.235-153.906,32.343-18.32,2.499-36.055,8.544-54.293,12.17-35.38,7.036-71.244,11.605-106.031,21.809-51.914,15.227-105.567,23.798-157.125,40.573-12.252,3.986-25.222,5.275-38.241,4.809-9.87-.354-19.739.589-29.098,3.495-52.225,16.218-106.6,24.069-158.647,40.97-8.364,2.716-15.984,6.367-17.15,15.72-2.168,17.392-5.515,34.633-7.019,52.081-.699,8.11.81,16.055,12.214,15.197,18.961-6.721,37.405-14.406,55.176-24.025,36.743-19.888,75.08-37.518,115.463-47.152,60.644-14.469,121.568-27.522,180.876-47.024,11.964-3.934,24.316-4.088,36.717-3.845,9.838.192,19.481-.522,28.9-3.975,48.441-17.753,98.728-28.814,148.622-41.446,25.484-6.453,51.696-8.506,76.963-15.219,19.391-5.151,38.316-12.081,57.562-17.876,25.845-8.98,52.107-16.375,79.114-20.986,1.569-.263,3.116-.59,4.637-1.076,4.407-1.571,9.047-1.932,13.592-2.778,20.094-4.825,40.029-10.281,60.164-14.941,1.469-.384,2.921-.804,4.34-1.355,4.278-1.617,8.86-2,13.181-3.358,1.487-.514,2.951-1.116,4.331-1.871,16.737-12.057,36.301-16.28,55.938-20.84,54.164-12.58,109.346-19.937,163.48-32.712,72.117-17.02,142.856-39.512,215.629-53.971,1.523-.364,3.003-.792,4.464-1.378,2.698-1.015,5.377-1.998,8.108-2.854,1.329-.4,2.654-.796,3.955-1.286,3.407-1.063,6.949-1.113,10.428-1.464,2.315-.257,4.608-.709,6.809-1.516,38.926-8.418,79.213-7.696,117.987-17.711,14.752-3.81,30.784,1.083,45.541-4.9,5.599-2.258,10.844-5.366,16.822-6.646,2.631-.761,5.064-1.905,7.343-3.421,2.488-1.776,5.223-2.968,8.157-3.727,1.131-.343,2.247-.724,3.33-1.205,2.234-.867,4.556-1.432,6.847-2.054,1.197-.325,2.404-.667,3.569-1.093,3.921-1.183,8.161-1.324,11.787-3.474,1.252-.81,2.448-1.731,3.515-2.77,8.393-12.051,20.232-17.954,34.474-20.936,16.58-3.472,33.075-7.765,49.748-10.413,55.677-8.842,109.15-29.313,166.096-31.333,1.575-.305,3.101-.729,4.583-1.358,7.485-3.531,14.73-7.722,23.293-8.051,11.481-2.651,22.483-6.854,33.582-10.702,5.174-1.793,11.106-3.405,11.117-10.785-15.082,2.631-30.221,4.973-45.231,7.963Z"/>
      <path class="ax" d="m2862.262,16.434c-47.882-.264-95.808-1.055-143.556-3.972h-595.058c-23.852,2.117-47.767,5.089-71.726,2.359-11.873-1.353-23.788-1.954-35.712-2.359h-143.746c-.299.055-.598.097-.897.154-21.9,4.223-43.993,2.35-66.225.625-2.744-.213-5.488-.484-8.232-.779h-73.19c-16.998,1.106-34.03,1.771-51.025,2.936-42.141,2.89-84.692,2.698-126.425,7.709-70.886,8.513-141.944,7.971-212.947,10.666-22.694.861-45.367,2.2-67.792,5.033-47.712,6.028-95.744,4.947-143.544,6.307-36.5,1.039-73.12-.048-109.257,5.367-46.533,6.974-93.484,8.146-140.225,10.671-47.908,2.588-95.603,6.102-143.205,11.845-39.917,4.816-80.19,10.203-120.187,6.359-37.104-3.566-73.165,1.634-109.238,6.32-45.174,5.869-90.07,9.536-135.516,4.826-16.404-1.7-33.001-1.884-49.392.701-42.414,6.689-85.325,4.802-127.957,7.68-10.808.729-21.405-2.26-32.366-1.734-48.83,2.345-97.685,4.08-146.479-.315v80.31c2.876.032,5.739-.074,8.566-.31,11.812-.984,23.624-2.167,35.385-1.646,39.688,1.758,79.073-6.021,118.763-3.386,2.535.168,5.242-.015,7.664-.727,17.522-5.153,35.471-5.733,53.536-5.409,4.634.083,9.385.409,13.896-.408,40.819-7.394,82.005-6.347,123.185-5.784,8.758.12,17.614.57,26.267-.459,28.019-3.334,56.441-3.296,84.12-9.148,14.824-3.135,30.118-.358,44.502-3.629,33.824-7.693,68.311-9.354,102.517-10.698,43.173-1.697,86.062-8.01,129.344-7.189,4.577.087,9.181-.892,13.763-1.454,19.348-2.375,38.163-8.491,57.885-8.238-2.373-9.33-10.324-6.448-16.289-7.043-24.422-2.436-48.373,6.244-72.266,5.305-64.743-2.545-128.151,12.306-192.673,12.071-29.806-.108-59.687,3.138-89.525,4.761-29.837,1.624-59.612-2.406-89.5,1.859-18.191,2.596-36.957,6.285-55.446,3.089-19.785-3.42-39.051-1.221-58.438,1.902-7.152,1.152-14.398,1.146-21.56,1.88-37.915,3.89-75.701-1.24-113.544-1.851,40.038-.429,80.179-1.558,119.664-6.284,39.781-4.762,79.265.528,118.733-3.907,16.311-1.833,32.748-4.765,49.339-3.312,39.776,3.483,79.319-1.471,118.821-4.277,20.015-1.422,40.214-.503,60.128-4.173,37.101-6.835,74.588-10.378,112.311-10.071,21.802.177,43.271-1.588,64.552-6.158,21.444-4.604,43.095-4.351,64.688-1.804,13.95,1.646,27.686.79,41.632.088,33.985-1.709,67.618-5.072,101.365-10.026,42.847-6.29,86.462-4.42,129.784-3.821,26.941.373,53.284-3.283,79.933-6.951,32.618-4.49,65.434-12.087,98.245-11.103,85.321,2.559,169.799-9.666,254.805-11.556.741-.017,1.141.082,1.232.334-.008,0-.013-.001-.021-.001-6.084-.716-11.504,1.283-17.073,2.061-49.024,6.843-98.501,17.342-147.392,16.324-103.568-2.156-205.34,19.586-308.649,17.71-17.318-.314-35.007,1.271-52.443,2.619-21.522,1.664-43.383,1.605-64.343,7.915-5.071,1.527-11.813,1.083-13.089,8.608,27.358,2.537,54.471-1.849,81.614-3.657,19.901-1.326,39.648-5.702,59.727-5.537,41.166.339,82.332,1.121,123.385-2.994,4.593-.46,9.317-.442,13.748-1.564,36.053-9.13,73.187-12.157,109.849-12.992,47.311-1.076,94.546-5.95,141.912-3.97,20.686.864,41.099-2.144,61.495-4.209,20.411-2.067,40.61-5.992,61.278-5.255,6.683.238,13.414.127,20.083-.365,37.369-2.762,74.688-6.445,112.099-8.308,27.248-1.356,54.612-.386,81.925-.453,8.389,3.135,16.772,4.909,25.135,5.776-.948-.043-1.896-.079-2.845-.129-6.964-.375-13.299-.335-19.225,3.533-7.653.596-15.277.628-22.976,1.77-20.755,3.079-41.658,6.486-62.563,6.935-36.66.787-72.59,5.051-107.842,15.124-5.42,1.549-10.937,3.052-16.512,3.716-44.815,5.337-89.663,10.72-134.917,9.3-20.137-.631-39.984,2.466-59.851,4.237-16.023,1.428-32.638,2.145-47.999,8.463,2.729,8.697,9.781,5.359,15.464,5.411,30.465.281,60.873-6.149,90.969-4.827,39.855,1.751,79.749,2.299,118.832-3.153,77.395-10.797,155.612-3.742,232.914-14.128,54.141-7.274,108.9-8.818,163.145-14.772,52.214-5.731,104.573-10.022,156.8-15.506,62.454-6.558,124.68-15.306,187.675-18.104,51.841-2.303,103.722-9.296,154.93-19.391,12.091-2.384,24.453-4.78,36.884-3.384,30.726,3.45,61.753,3.839,92.284,9.291,10.412,1.86,20.934,3.564,31.482.55,1.678-5.425,6.713-6.02,11.01-7.165,18.371-4.893,36.889-8.256,56.129-7.83,12.763.283,22.888,5.496,27.585,16.179,4.375,9.952,10.37,9.525,18.202,7.939,17.554-3.555,34.945-8.772,52.671-10.399,21.761-1.998,42.28-7.189,62.335-15.369,6.625-2.703,13.624-4.602,20.963-4.347-1.052-1.182-2.104-2.363-3.155-3.545-3.766-3.513-8.447-3.257-13.11-3.283ZM98.051,140.818c-4.104.158-8.283-.155-10.705-2.368,2.967,2.12,7.141,2.345,11.466,2.343-.254.009-.508.015-.762.024Zm1749.994-71.181c21.602-1.311,42.964-5.723,63.821-5.333-20.55,2.843-42.015,4.924-63.821,5.333Z"/>
      <path class="ax" d="m1348.253,122.267c.873.517,1.81,1.569,2.608,1.472,20.489-2.5,41.191-.086,61.599-2.161,18.939-1.925,37.564-4.035,56.821-3.148,24.101,1.11,48.373.068,72.599-1.184,55.033-2.844,109.701-13.214,164.963-9.882,38.463,2.319,76.107-4.078,113.838-8.288,52.265-5.831,104.682-8.922,157.045-13.043,9.78-.77,19.397-2.107,29.001-4.191,22.795-4.946,46.257-2.374,69.23-5.621,48.427-6.845,97.411-8.828,145.717-16.889,14.166-2.364,28.638-3.397,43.011-3.914,32.958-1.188,65.927-2.752,98.554-7.313,31.093-4.346,62.558-6.012,93.287-13.181,21.722-5.067,43.752-5.14,66.084-3.769,35.997,2.209,71.594,6.862,107.033,13.102,2.665,4.71-1.736,3.126-3.361,3.537-31.533,7.973-63.64,6.776-95.727,5.858-25.775-2.228-50.986,1.63-75.981,7.308-49.214,11.18-99.031,17.13-149.435,19.801-55.81,2.958-111.672,5.396-167.36,10.436-24.403-1.063-47.914,5.977-72.033,7.88-55.346,4.367-110.238,13.218-165.716,16.728-40.032,2.532-79.944,6.979-119.893,10.751-5.604.529-11.112,2.078-16.665,3.155-13.108,5.228-26.686,7.279-40.8,6.731-58.792-2.282-117.074,6.09-175.64,8.469-29.266,1.189-58.45.799-87.844-1.979-32.662-3.086-65.781.064-98.705-.32-10.317-.12-20.663-.018-30.616-3.16-12.343-3.896-12.805-7.554-2.471-17.178,6.951-.003,13.903-.006,20.854-.009Z"/>
      <path class="o" d="m1947.685,336.904c27.362-20.316,59.562-33.024,95.167-38.931,9.651-1.601,19.318-2.878,28.994-3.957,19.935-6.164,40.384-9.725,61.682-9.994,7.206-.091,14.269-1.252,21.338-3.189,18.402-5.041,37.071-8.651,56.275-9.392,14.399-.555,29.126-.675,42.604-6.542,23.287-10.137,47.523-16.728,72.263-22.144,14.55-3.186,28.73-8.151,42.963-12.672,17.125-5.438,33.759-13.827,51.267-16.344,31.431-4.518,59.646-19.191,90.434-25.356,9.057-1.813,17.86-4.836,27.229-4.963,5.161-.069,10.438.279,15.306-1.679,29.624-11.916,61.234-18.504,89.825-33.087,11.209-5.717,22.734-9.721,35.185-10.985,34.13-3.464,67.195-12.681,100.786-19.071,15.366-4.819,30.738-9.619,46.118-14.394,8.509-6.584,18.729-9.996,28.485-14.335,19.76-8.788,40.233-16.436,58.777-27.335,13.596-7.991,27.212-14.271,42.443-17.47,5.083-1.068,10.166-2.116,14.068-5.862,2.188-2.1,4.896-4.3,3.294-7.865-1.303-2.898-4.225-2.355-6.733-2.285-13.922.39-27.84.979-41.765,1.167-6.499.087-11.92,2.708-17.463,5.563-4.066,2.095-6.711,6.653-11.868,6.788-13.482,8.729-28.674,13.561-43.522,19.223-16.66,6.353-34.687,9.802-48.257,22.854-3.021,2.906-7.665,2.562-11.629,3.566-15.969,4.048-32.68,3.049-48.615,7.707-11.792,3.447-23.907,6.01-36.033,8.045-28.752,4.825-58.1,7.146-84.287,21.812-3.523,5.086-9.271,6.173-14.571,7.951-10.723,3.597-21.504,7.017-32.261,10.51-7.449,2.511-14.339,6.379-21.765,8.946l-.22.088c-8.252,3.9-17.11,1.208-25.682,2.263-41.953,5.169-80.068,24.214-121.194,32.556-31.578,6.405-61.503,19.688-93.431,25.135-7.326,1.25-13.737,3.83-19.735,7.916l-.104.049c-3.276,3.87-8.706-.117-12.101,3.315l-.093.024c-2.588,2.761-6.647.52-9.388,2.762l-.123.047c-2.159,3.397-6.692.435-9.024,3.367-2.093.992-4.185,1.983-6.277,2.975-4.789,2.986-10.479,3.721-15.472,6.195-21.075,5.029-42.933,2.117-64.131,6.62-21.975,4.668-43.846,9.413-66.731,9.476-13.41.037-27.533,2.137-40.247,8.275,5.499,6.208,12.324,3.574,18.794,2.686,13.657-1.875,27.146-5.4,41.109-4.003-25.81,5.599-50.324,15.217-75.129,23.964-50.617,17.851-102.896,30.485-153.381,48.722-5.03,1.817-12.981,1.23-13.102,10.028,15.439-.527,31.205.456,46.029-4.349,4.621-1.498,9.255-2.956,13.898-4.391Z"/>
      <path class="aw" d="m2137.781,91.197c8.454-4.892,18.079-3.16,27.099-4.328,37.204-4.817,74.563-7.552,112.096-9.34,62.565-2.979,125.004-8.289,186.447-21.823,22.117-4.872,44.62-6.729,67.154-2.055-19.277,2.236-38.543,4.401-57.785,6.765-4.023.494-8.01,1.532-11.921,2.643-32.418,9.207-64.307,20.268-97.385,27.173-10.03,2.094-19.981,4.302-30.247,4.703-3.783,2.353-8.556-.435-12.254,2.359-2.029.124-4.058.248-6.088.373-19.32-.009-38.837,2.957-57.907-.87-23.746-4.766-47.614-5.554-71.637-5.518-15.857.024-31.714-.052-47.572-.083Z"/>
      <path class="ag" d="m55.303,527.468c-3.193-8.499,3.11-8.637,7.791-7.433,6.686,1.72,12.925,5.179,19.354,7.895,10.122,7.635,22.087,12.836,30.272,23.046,1.904,2.375,4.445,4.33,2.925,10.169-20.73-10.78-41.803-19.771-60.342-33.676Z"/>
      <path class="ah" d="m1144.596,317.321c.33-6.333,1.191-12.57,8.225-15.015,9.351-3.251,13.671,4.498,19.254,9.36.076,3.891,2.092,7.902-1.25,12.481-7.617-6.305-18.785,1.79-26.229-6.826Z"/>
      <path class="y" d="m515.8,447.41c-4.157-2.949-8.391-5.798-12.441-8.888-2.146-1.637-3.596-4.059-1.929-6.662,1.638-2.557,4.32-2.137,6.892-1.239,10.79,3.766,20.397,9.623,29.412,16.537.819,2.381,1.639,4.763,2.656,7.717-9.907,1.508-16.706-4.816-24.591-7.465Z"/>
      <path class="aa" d="m8.363,642.49v5.123c.758-.361,1.515-.722,2.272-1.077,4.139-1.942-.204-3.276-2.272-4.045Z"/>
      <path class="p" d="m441.495,537.224q-.303,12.447-12.24,12.489c-2.404-1.833-4.654-3.928-7.244-5.443-4.892-2.863-6.363-6.76-3.461-11.553,3.227-5.33,8.344-5.928,13.392-3.128,3.515,1.949,6.391,5.049,9.552,7.635Z"/>
      <path class="w" d="m2126.406,161.663c13.31-8.541,27.052-7.536,35.307,1.937,1.328,1.524,2.656,3.234,1.782,5.496-1.171,3.029-4.079,3.558-6.282,2.553-9.65-4.401-20.059-6.584-30.808-9.986Z"/>
      <path class="k" d="m1767.875,219.027c.09-6.575,6.357-13.706,12.166-13.608,4.839.081,7.577,2.841,7.942,7.56.462,5.964-6.172,11.968-13.307,12.245-4.245.165-6.813-1.637-6.801-6.197Z"/>
      <path class="aj" d="m655.625,413.125c-4.145-7.641-.916-12.624,6.031-15.953,6.747-3.232,9.587-1.721,16.361,8.06-2.508,1.585-5.022,3.159-7.537,4.734-4.919,1.208-8.95,6.589-14.856,3.159Z"/>
      <path class="n" d="m865.846,376.141c-4.928-10.851-4.465-11.474,9.372-12.605,4.921,4.2,11.083,7.183,14.028,14.274-8.361,3.736-15.715-2.155-23.4-1.67Z"/>
      <path class="av" d="m2025.459,196.984c-11.377-2.84-19.037-8.933-27.65-12.794-2.914-1.306-3.709-5.026-1.64-7.955,2.212-3.131,5.691-2.605,8.129-.617,7.077,5.771,15.272,10.438,21.161,21.365Z"/>
      <path class="g" d="m331.058,477.798c-1.004-4.137-5.973-7.116-3.095-13.421,9.468,2.875,13.698,11.81,20.374,17.649-.328,2.881,1.597,8.452-4.561,5.391-4.678-2.325-8.51-6.351-12.719-9.62Z"/>
      <path class="ad" d="m1603.049,284.702c-5.052-1.574-7.392-5.056-6.61-10.273.694-4.63,3.49-7.337,8.371-6.518,4.856.814,6.672,4.31,5.904,8.878-.701,4.169-2.569,7.663-7.665,7.913Z"/>
      <path class="ar" d="m2364.887,126.937c8.349-9.16,12.729-10.516,17.514-6.448,2.375,2.019,4.258,4.842,3.08,8.006-1.751,4.707-4.759,1.321-7.335.642-1.939-.512-3.922-.872-5.901-1.206-1.928-.325-3.876-.531-7.358-.994Z"/>
      <path class="af" d="m2251.871,142.267c-4.831,1.645-8.155-1.257-11.419-3.01-3.465-1.86-10.628-3.274-6.978-8.749,3.065-4.596,8.164.246,11.857,2.359,3.41,1.95,6.302,4.706,6.54,9.4Z"/>
      <path class="l" d="m1364.231,285.724c-8.734,4.897-15.458,7.517-24.225,9.723,8.361-13.822,8.775-13.991,24.225-9.723Z"/>
      <path class="ac" d="m1212.684,341.063c3.426.431,6.175,1.932,5.782,5.526-.459,4.198-3.994,5.523-7.679,5.442-2.691-.059-4.689-1.893-4.694-4.756-.007-4.3,2.718-6.033,6.591-6.212Z"/>
      <path class="ae" d="m10.598,604.437c.266-.81.278-1.448.603-1.747,3.652-3.362,6.969-7.718,12.88-5.777,1.435.471,2.226,2.805,1.244,3.726-4.113,3.859-8.693,6.801-14.726,3.798Z"/>
      <path class="an" d="m2320.985,97.295c3.55-3.57,7.957-2.706,12.258-2.362-3.484,3.928-8.034,2.298-12.258,2.362Z"/>
      <path class="d" d="m2104.416,259.899c-11.609,1.638-22.889,6.343-34.95,4.349-1.742.228-3.484.455-5.226.683-2.745,2.486-6.728.411-9.557,2.591l-.045.01c-2.305,3.375-6.599.773-9.26,3.079l-.028.007c-53.137,13.181-104.318,32.697-158.822,42.109-69.689,12.035-137.913,32.126-206.54,49.473-26.724,6.755-54.485,9.846-80.391,19.911l-.076.027c-3.346,3.845-8.695.02-12.217,3.189l-.095.026c-27.111,6.163-52.428,19.487-80.888,20.25-27.65,2.995-52.917,15.663-80.289,19.799-7.969,2.066-15.964,4.04-23.904,6.218-23.642,6.485-45.885,18.733-71.672,16.478-4.823-.422-9.926,2.359-14.899,3.665-5.966,1.567-11.845,3.766-17.911,4.605-40.978,5.67-79.293,21.756-119.533,30.353-10.972,2.344-21.949,5.511-32.182,10.676-12.293,6.205-25.418,8.088-39.08,6.221-8.258-1.129-16.28-.701-24.362,2-14.134,4.723-28.388,9.157-42.772,13.047-40.723,11.013-81.263,22.708-122.96,29.873-16.141,2.773-32.307,6.255-46.923,14.753-5.194,3.02-11.597,4.125-17.571,5.602-7.524,1.86-14.778,4.201-21.859,7.466-33.596,15.491-65.502,34.548-100.294,47.516-1.37.51-2.462,1.764-3.684,2.671-12.067,3.956-26.443.588-36.309,11.452-1.484.464-3.016.819-4.548,1.065-16.006,1.579-32.168-2.847-48.151,1.042-28.788-2.731-53.924,9.519-80.003,18.731-38.107,13.462-77.751,22.131-115.822,35.828l-.173.049c-2.219,3.424-6.59.614-9.116,3.147-28.325,11.48-58.852,14.581-87.916,23.129-15.836,4.658-32.911,4.868-47.771,12.328-17.157,8.613-35.135,14.578-53.364,20.204-8.308,2.564-16.187,6.519-24.261,9.843-13.973,3.258-28.85,5.026-40.849,12.931-23.702,15.614-50.1,23.307-77.096,29.914l-.11.033c-9.841,4.786-20.83-1.092-30.714,3.302l-.07.014c-3.709,3.228-8.739.12-12.599,2.625-8.57,1.307-17.052,3.404-25.809,3.095-8.113-.286-15.878.716-23.384,2.689v28.052c10.707-3.011,21.663-3.976,32.989-4.756,28.182-1.94,56.423-4.545,84.362-8.584,38.152-5.515,70.941-26.585,106.367-40.088,29.34-11.184,59.473-20.059,89.171-30.022,32.517-10.909,67.258-14.573,100.794-22.692,76.072-18.417,150.237-43.522,225.967-63.047,6.149-3.11,12.796-2.233,19.314-2.386,14.081-.33,28.312,1.333,42.073-3.251,4.981-1.285,9.811-2.991,14.537-4.957,32.084-13.345,64.039-27.204,94.476-43.819,12.368-6.752,27.91-10.125,35.97-23.829-1.381-12.187,7.668-14.517,16.264-16.225,9.062-1.8,18.417-.658,27.643-.798,7.769-.118,15.504-.411,22.003-5.386,6.328-4.845,13.932-5.972,21.227-8.361,18.379-6.02,37.927-2.302,56.221-7.465,29.158-8.229,58.608-13.542,89.056-11.704,12.336-5.312,24.826-9.8,38.602-8.02,7.255-10.266,17.15-14.52,29.722-15.801,15.526-1.583,30.6-4.381,45.575-11.163,14.194-6.428,31.401-8.73,47.215-.586,5.684-3.086,6.661-11.168,14.888-12.198,12.183-1.526,24.306-4.285,36.293-6.724,29.124-5.928,59.144-8.089,87.027-20.06,16.057-6.894,32.99-12.002,50.687-13.064,13.028-.781,25.496-3.751,37.509-8.578,16.464-6.614,33.436-10.28,51.21-10.179,11.507.065,22.724-2.016,32.996-7.081,13.997-6.901,29.232-9.978,43.664-15.351,19.316-7.192,40.34-2.226,59.287-9.374,22.302-8.415,45.19-14.26,68.588-18.232,27.116-4.604,51.757-19.427,78.567-22.354,27.091-2.957,49.568-18.429,75.913-21.656,1.072-.861,2.145-1.722,3.217-2.583,12.058-6.779,25.264-10.744,38.339-14.725,40.806-12.422,81.813-24.161,122.264-37.762,23.863-8.024,47.182-17.66,71.636-23.985,7.534-1.949,16.144-1.776,24.233-9.717-14.84-.982-27.198-1.335-39.815.444Z"/>
      <path class="an" d="m1956.964,266.11c-31.174,9.286-62.951,15.844-95.02,21.109-12.201,2.003-23.598,7.007-35.962,8.829-29.02,4.277-58.021,8.698-87.234,11.299-12.03,1.072-23.18,4.374-34.288,8.686-16.011,6.214-33.698,5.208-49.745,10.096-18.192,5.541-36.777,9.928-54.638,16.616-17.487,6.548-35.849,9.218-54.269,11.267-21.044,2.341-41.79,6.287-62.138,11.918-13.44,3.72-26.838,7.464-40.69,8.936-18.088,1.922-35.376,7.117-52.415,12.851-23.608,7.944-47.272,14.469-72.503,13.012-5.69-.329-11.17,1.32-16.753,2.3-22.882,4.016-44.943,11.735-67.768,15.522-30.476,5.056-61.034,10.46-90.86,17.725-30.406,7.406-60.794,15.453-91.147,23.374-13.946,3.64-27.79,8.018-42.219,9.316-9.903.891-19.29,3.31-28.35,7.187-17.28,7.393-35.112,11.555-54.087,11.03-21.864-.604-43.093,2.643-63.409,11.467-7.01,3.045-14.709,4.901-22.282,6.177-23.427,3.949-46.301,10.268-68.947,17.05-20.759,6.217-41.113,13.396-62.925,15.253-7.134.607-14.085,3.136-21.212,4.102-22.46,3.043-44.099,10.714-66.783,12.169-13.001.834-25.403,3.874-37.902,7.082-17.94,4.604-35.344,11.313-53.978,13.239-42.527,4.396-84.057,14.926-126.537,20.18-31.01,3.835-61.698,12.058-90.609,25.104-5.193,2.344-10.658,4.204-16.393,4.167-16.21-.106-31.672,3.556-47.013,8.347-14.714,4.596-29.231,10.185-45.055,10.002-2.493-.028-5.071.94-7.488,1.793-15.548,5.487-31.089,10.995-46.569,16.669-4.375,1.604-8.611,3.426-13.4,3.304-24.564-.629-47.824,6.869-71.48,11.745-8.518,1.755-17.695,1.761-25.337,6.467-9.954,6.129-20.516,10.912-31.195,15.437v18.147c4.264-.888,8.41-2.169,12.164-4.762v.002c2.589-2.713,6.823-.218,9.4-2.967,7.117-5.515,15.491-8.507,24.102-9.784,30.035-4.454,59.229-14.071,89.897-14.63,2.528-.046,5.264-.48,7.525-1.54,32.891-15.422,68.87-20.728,103.149-31.585,8.335-2.64,16.445-6.169,25.296-6.975,20.154-1.835,39.54-6.636,58.117-14.75,3.756-1.641,7.901-2.367,11.799-3.712,39.31-13.558,81.104-13.459,121.351-22.053,33.198-7.089,67.485-8.456,100.146-18.829,13.243-4.206,26.744-8.698,40.438-10.159,30.333-3.237,59.745-10.625,89.421-16.938,3.894-.829,8.08-2.145,12.231.956-5.031,20.365-12.615,40.172-16.472,61.006-1.088,5.875.168,12.623-4.679,17.573-.273,0-.564.313-.874.94-.322.651-.125,1.35.592,2.098,6.953-4.451,14.326-7.77,22.804-6.959,5.146.493,8.898-1.244,11.657-5.468-5.824,1.04-10.208.718-9.15-7.312,2.558-19.404,4.869-38.842,7.128-58.284.846-7.279,6.059-8.608,11.891-9.836,27.248-5.736,53.564-14.963,80.596-21.647,17.992-4.449,36.876-4.851,54.154-12.177,19.818-8.404,40.706-10.859,61.971-11.359,18.223-.428,35.743-4.157,52.711-10.876,6.684-2.646,13.596-5.13,20.637-6.393,38.569-6.916,76.185-17.759,114.029-27.582,22.458-5.83,45.172-10.009,67.849-14.658,22.694-4.652,45.639-7.912,68.208-13.391,28.427-6.9,56.655-15.826,86.539-14.432,2.503.117,5.039-1.021,7.59-1.329,20.178-2.436,38.751-10.605,57.866-16.645,23.253-7.347,47.625-8.749,71.001-15.091,25.901-7.028,52.146-12.198,78.78-15.682,12.73-1.665,25.61-3.826,37.79-7.732,32.338-10.373,64.938-19.603,98.53-24.638,13.9-2.083,26.535-8.364,40.393-10.227,42.83-5.756,85.268-13.293,127.398-23.294,38.095-9.042,76.367-17.173,113.763-28.934,7.958-2.502,15.445-5.278,22.301-13.963-15.008,3.855-28.525,1.202-41.438,5.048Z"/>
      <path class="aq" d="m636.501,642.222c-21.896-2.213-41.512,6.404-60.852,14.249-23.871,9.683-48.147,17.556-73.339,22.5-13.178,2.586-25.698,7.014-38.358,11.179-7.253,2.386-14.338,5.838-22.358,4.513,34.419-14.304,68.775-28.761,103.283-42.843,15.635-6.38,31.565-12.041,47.379-17.981,6.324-2.376,12.067-4.056,18.509,1.323,7.246,6.049,16.696,3.243,25.307,3.291.551.278,1.101.556,1.652.834.379,1.306.008,2.301-1.224,2.935Z"/>
      <path class="m" d="m218.992,763.362c-4.044,4.206-9.493,6.983-14.661,7.925-17.71,3.229-32.028,13.193-47.389,21.353-17.327,9.205-35.896,14.686-55.895,13.566,24.827-14.281,51.251-25.173,77.48-36.475,3.754-1.618,7.834-2.649,11.308-4.716,9.53-5.671,19.12-6.69,29.158-1.654Z"/>
      <path class="ap" d="m17.219,717.68c-2.453-4.057,3.078-4.516,3.307-7.36-4.153.464-8.23,1.182-12.164,2.376v28.455c.411-.192.822-.384,1.231-.576,5.943-2.793,8.101-9.058,11.481-14.061,2.846-4.213-2.16-6.031-3.856-8.834Z"/>
      <path class="aq" d="m692.247,635.933c.169,1.038.076,2.051-.279,3.04-.916-.004-1.797.165-2.645.505-17.219,2.505-34.488,1.219-51.747.69-.501-.569-1-1.139-1.501-1.712,9.309-4.446,18.218-6.457,29.055-3.11,8.307,2.565,18.026.56,27.117.587Z"/>
      <path class="m" d="m100.937,806.24c-9.718,5.935-20.453,2.414-30.714,3.302,9.664-6.435,20.449-2.458,30.714-3.302Z"/>
      <path class="m" d="m70.153,809.556c-3.606,3.721-8.068,3.338-12.599,2.625,3.573-3.883,8.04-3.474,12.599-2.625Z"/>
      <path class="aq" d="m441.421,694.712c-2.197,3.486-5.505,3.756-9.116,3.147,2.21-3.451,5.504-3.758,9.116-3.147Z"/>
      <path class="ap" d="m20.526,710.322c2.513-2.951,5.7-3.772,9.4-2.967-2.27,3.721-5.746,3.627-9.4,2.967Z"/>
      <path class="ax" d="m1701.75,130.587c-18.555.429-37.206.215-55.632,2.083-51.85,5.256-103.722,8.19-155.879,7.549-18.057-.222-35.576-5.803-53.827-3.22-28.709,4.064-57.589-.634-86.398.585-6.084.257-12.286-1.284-18.376-2.333-11.463-1.973-11.445-2.075-4.239-12.978-26.205-.556-52.159,1.299-78.146,5.262-15.567,2.375-31.501,6.245-47.382,3.306-10.756-1.99-21.409-2.067-32.177-2.028-2.865,8.273-9.964,9.246-17.28,10.605-26.855,4.99-53.942,6.923-81.162,9.071-45.636,3.602-91.924.31-136.893,11.673-1.475.373-3.111.426-4.623.142-30.178-5.671-59.63,1.811-89.123,5.672-52.606,6.887-104.811,17.497-158.33,13.854-5.136-.35-10.263.846-15.394,1.349-58.525,5.736-116.454,16.154-174.794,22.957-90.355,10.537-180.939,19.129-271.09,31.475-31.014,4.247-62.342,4.25-93.524,7.88-39.372,4.584-79.24,7.454-119.12,7.551v90.146c25.593-2.299,50.869-7.669,76.469-10.014,25.537-2.339,50.9-6.799,76.254-10.854,22.827-3.65,46.122-2.698,68.82-8.391,10.779-2.703,22.143-4.241,33.61-4.38,14.371-.175,28.941-.663,43.043-3.166,44.627-7.923,89.837-10.065,134.801-14.515,14.403-1.425,28.374-4.9,42.632-6.441,27.646-2.989,54.845-8.101,82.005-13.92,20.573-4.408,41.416-9.489,62.275-10.177,29.989-.989,59.342-4.494,88.763-10.03,42.891-8.07,86.115-14.36,129.115-21.878,21.253-3.716,42.51-7.151,64.018-8.924,5.908.531,11.904,2.426,17.544-1.146,4.692-3.114,10.005-1.836,15.064-1.979,11.85-.333,23.749.191,35.555-.657,30.716-2.207,61.153-7.086,91.905-9.405,21.875-1.649,43.825-3.995,65.367-9.894,26.727-7.319,53.847-13.09,82.148-11.409,25.711,1.527,51.364-1.33,76.648-6.277,15.67-3.066,31.253-6.157,47.329-5.786,17.053.394,33.723-2.681,50.48-5.419,26.379-4.312,52.762-8.847,79.747-7.262,12.336.724,24.746.077,37.113.414,23.792.647,47.206-2.376,70.506-6.723,32.417-6.047,65.003-10.012,98.09-9.112,15.454.42,30.971.643,46.387-.273,14.235-.847,28.962-1.68,39.426-13.862-20.575.277-41.155.401-61.727.877Z"/>
      <path class="ax" d="m1169.694,128.815c-14.135-3.894-28.264-4.579-42.831-1.853-10.06,1.883-20.341,4.707-30.634,3.218-13.97-2.019-27.706-.947-41.593.41-11.283,1.102-22.316,4.228-33.773,3.846-26.94-.898-53.536,1.918-79.807,7.839-5.6,1.263-11.244,2.397-16.793.576-7.566-2.483-15.321-2.312-22.997-1.923-31.936,1.621-63.527,6.585-95.071,11.356-32.593,4.931-64.761,12.918-98.17,9.52-9.198-.936-18.583-1.501-27.769-.787-22.066,1.714-44.064,4.311-66.093,6.508-45.572,4.545-90.644,12.772-136.061,18.441-9.18,1.146-18.609.787-27.637,2.569-27.902,5.508-56.02,7.894-84.417,8.596-13.828.341-27.855,1.512-41.354,4.376-27.218,5.775-54.438,10.597-82.18,13.553-24.078,2.565-47.877,6.679-72.187,3.919-5.772-.655-11.338.933-16.69,2.724-13.86,4.639-27.892,7.211-42.58,5.622-6.189-.67-12.302.278-18.333,2.053-4.427,1.303-9.079,2.88-13.578,2.734-23.83-.775-47.283,2.681-70.782,5.55v18.091c41.785-1.415,83.441-5.504,125.226-7.032,5.095-.186,10.359-1.158,15.162-2.851,12.46-4.391,25.156-5.101,38.12-3.893,16.608,1.547,32.802-1.561,49.087-4.109,8.38-1.311,17.289-4.608,24.81,2.955,1.545,1.554,4.522,2.118,5.512.36,5.377-9.546,15.485-6.749,23.387-8.947,22.876-6.366,46.395-10.12,70.082-11.05,59.783-2.348,118.912-9.91,177.947-19.218,37.087-5.848,74.55-9.283,111.794-14.188,24.615-3.242,49.265-4.164,74.05-3.403,12.884.396,25.773-.099,38.574-2.055,28.494-4.353,56.92-9.341,85.538-12.644,26.925-3.107,53.66-11.068,81.249-4.724,3.763.865,8.126-.661,12.175-1.304,7.629-1.213,15.251-2.492,22.843-3.916,31.065-5.828,62.839-1.426,93.955-6.611,21.379-3.563,43.222,1.209,64.623-3.747,10.988-2.545,22.093-4.856,33.529-5.347,7.466-.321,14.287-3.544,21.974-7.881-3.732-3.295-6.02-5.315-8.307-7.335Z"/>
      <path class="ax" d="m827.757,118.656c-19.85-4.425-39.883-3.569-59.621-.285-18.377,3.057-36.576,5.177-55.302,4.855-41.722-.716-83.129,4.13-124.481,9.191-6.125.75-12.316,1.271-18.482,1.327-44.794.41-89.454,3.78-134.161,6.06-9.365.478-18.508-1.808-27.759-1.335-20.575,1.054-41.177,2.022-61.675,3.994-14.946,1.438-29.681,2.268-44.643.084-16.509-2.409-32.856.723-49.174,3.053-5.599.8-11.255,2.127-16.84,1.933-18.046-.625-35.998-1.062-54.011,1.412-9.116,1.252-18.478.599-27.719-1.154-15.727-2.984-31.557-4.46-47.646-2.748-12.564,1.337-24.12-4.938-36.969-5.627,4.144-7.873,10.832-5.741,16.381-4.432,9.257,2.184,18.064,2.344,27.441.211,6.897-1.569,14.406-1.169,21.576-.679,23.266,1.591,46.196-1.525,69.302-3.301,24.548-1.887,49.169-2.005,73.633-5.951,11.009-1.775,22.528-.138,33.868,1.335,21.626,2.809,43.189-1.452,64.726-2.896,11.836-.794,23.659-1.859,35.451-1.278,42.297,2.083,84.245-1.991,126.2-6.294,2.051-.21,4.122-.68,6.155-.558,28.597,1.708,56.303-5.698,84.485-8.104,31.245-2.667,62.464-6.591,93.962-4.363,11.467.811,22.528-2.188,33.571-4.61,24.491-5.372,49.142-5.153,73.785-2.081,10.876,1.356,21.715,1.12,32.379.024,11.838-1.217,23.649-1.882,35.483-1.773,15.536.143,31.115-.198,45.925-4.838,22.647-7.095,46.04-5.139,69.025-6.379,37.549-2.026,75.24-1.516,112.874-1.825,14.514-.119,28.827-1.66,42.882-5.048,15.649-3.772,31.644-4.095,47.523-5.621,23.546-2.262,46.805-6.545,70.549-7.873,19.2-1.074,38.015,2.042,57.111,1.422,19.576-.635,38.941-1.137,58.478-3.918,25.422-3.619,51.267-4.689,76.975-5.757,21.336-.886,42.739-.182,66.859-.182-22.91,10.617-44.856,12.399-66.652,15.079-31.659,3.892-63.558,5.466-95.051,11.194-19.802,3.601-40.19,2.156-60.208,1.458-23.247-.811-46.457-1.508-69.368,2.143-23.995,3.824-48.452,2.151-72.222,6.665-38.301,7.274-76.937,5.976-115.565,6.899-32.939.787-65.9,2.852-98.705,5.914-12.551,1.172-25.387,3.892-37.367,8.841-27.659,1.782-55.316,3.616-82.982,5.31-6.65.407-13.329.347-19.995.502Z"/>
      <path class="al" d="m1797.849,63.54c10.394-1.235,20.358,1.931,30.535,2.883,17.024,1.591,33.687-2.075,50.399-4.626,16.707-2.55,33.351-1.232,52.604-.864-16.021,10.219-52.267,13.087-130.472,11.788,3.707-4.639-1.278-6.376-3.065-9.181Z"/>
      <path class="an" d="m1297.351,12.462c-13.847,1.977-27.765,3.322-41.637,4.105-38.466,2.171-77.17-.886-115.612,3.633-12.013,1.412-23.324-3.374-35.212-3.2-21.135.31-42.279.071-63.418.122-4.618.011-9.174.431-13.797,1.103-24.821,3.606-49.505,8.579-74.776,8.237-7.175-.097-14.251,1.015-21.387,1.9-16.303,2.021-32.868,2.12-49.264-.186-25.14-3.535-50.442-2.694-75.498-.708-14.417,1.143-28.29,2.234-42.728-.165-13.654-2.269-27.755-1.785-41.593-.013-16.753,2.145-33.391,5.277-50.366,5.263-21.656-.017-43.311-.092-64.967-.035-18.484.048-36.973-.734-55.325,3.01-6.466,1.319-12.777,3.556-19.69,3.33-31.319-1.026-62.763,2.209-93.967-2.83-.299,7.957,7.917,10.048,10.756,15.848-4.185-1.34-7.714-4.396-11.938-5.628-16.674-4.862-32.733-12.786-50.875-10.669-.515,3.35-2.081,5.375-5.739,6.117-31.185,6.325-62.241,2.908-93.196-1.503-8.795-1.253-17.108-1.418-25.855.294-25.037,4.901-49.562,11.669-75.776,10.951-21.037-.577-41.889-4.358-62.885-3.155-7.956.456-8.487-5.979-12.223-9.509-6.314,5.275-15.541.578-21.713,6.338,1.135,1.556,2.269,3.112,4.392,6.023-6.034,0-10.996-.195-15.937.039-11.277.533-22.961-3.825-33.31-2.047-12.146,2.086-23.856,2.136-35.455.711v52.444c13.052,1.512,26.223,1.755,39.436,1.914,52.442.631,104.852-2.489,157.326-.494,19.939.758,39.853-4.708,60.004-3.4,17.119,1.111,33.807-2.131,50.603-4.511,16.4-2.324,33.072-3.163,49.326-.731,11.813,1.767,23.49,2.604,35.317,2.693,20.6.154,41.126-1.704,61.652-2.54,22.773-.928,44.538-7.439,67.271-8.331,19.414-.761,38.711-4.741,58.313-4.652,9.317.042,18.193,3.104,27.596,2.93,18.008-.334,35.998-1.864,53.901-2.269,27.916-.631,55.382-4.486,82.906-7.673,40.912-4.737,81.78-8.893,123.006-8.769,4.619.014,9.314-.174,13.846-.983,15.738-2.807,31.814-1.093,47.454-3.22,17.389-2.365,34.898-.698,52.244-3.754,18.691-3.293,37.662-6.72,56.533-6.845,26.137-.174,52.239-6.1,78.43-.925,2.475.489,5.232.424,7.708-.096,17.87-3.753,35.956-1.746,53.944-2.236,12.886-.351,25.825-.056,38.651-1.12,29.669-2.461,59.295-8.002,88.918-7.866,47.444.219,94.648-5.862,142.057-3.841,19.682.839,39.1-1.803,58.46-4.01,21.45-2.445,42.714-6.205,64.431-5.442,6.69.235,13.543.706,20.078-.385,23.936-3.994,48.198-3.049,72.266-5.047,23.524-1.953,47.343-2.542,70.81-4.616,26.018-2.299,51.151,1.268,76.663,3.367,15.361,1.264,30.767,1.663,46.216-.943,13.641-2.301,27.332-4.722,41.337-4.515,13.391.198,26.793-.387,40.198-.631-1.413-.363-2.83-.649-4.25-.879h-643.659Z"/>
      <path class="f" d="m438.117,36.027c6.899,6.535,15.516,11.633,19.58,25.062-23.435-15.12-47.994-18.867-71.637-25.512,0,0-.043-.008-.043-.008-2.572-2.766-6.659-.392-9.351-2.754-9.808-6.701-22.856-6.048-34.206-15.761,18.442,4.876,34.473,9.185,50.544,13.338,9.927,2.565,19.842,5.168,30.281,2.457,5.31-1.379,9.925,1.905,14.832,3.177Z"/>
      <path class="h" d="m550.423,12.462c5.145,1.819,10.377,3.396,15.709,4.661,3.371.8,7.389.927,9.49-3.034.292-.55.489-1.093.613-1.627h-25.811Z"/>
      <path class="v" d="m110.386,38.772c-.12,5.25-1.535,9.694-8.021,7.996-4.562-1.195-9.056-1.698-13.692-1.658-2.102-2.073-5.902-2.127-7.186-7.021,9.88-.524,19.144-10.557,28.899.683Z"/>
      <path class="as" d="m666.543,20.571c7.618-8.613,15.552-7.626,23.561-6.003,2.115.429,3.877,2.196,3.953,4.094.079,1.989-1.821,3.692-3.954,3.869-7.264.605-14.697,2.741-23.56-1.96Z"/>
      <path class="ao" d="m291.976,12.462c-.415.467-.746,1.068-.946,1.824-.845,3.186,1.743,4.759,4.137,5.318,9.589,2.238,19.186.063,28.657-.919-8.813-1.517-17.251-2.651-25.149-6.223h-6.698Z"/>
      <path class="bd" d="m225.334,28.645c-.899,3.902-4.227,4.634-7.097,4.83-3.756.257-3.256-3.159-3.011-5.453.374-3.495,2.513-5.632,6.22-4.917,2.865.554,4.104,2.72,3.888,5.539Z"/>
      <path class="an" d="m376.666,32.816c3.51-.414,6.844-.232,9.351,2.754-3.531.485-6.982.702-9.351-2.754Z"/>
      <path class="s" d="m689.359,679.479c-.058,2.362.03,4.739.14,7.12,8.646-2.421,17.266-4.923,25.867-7.489-.225-4.011-1.127-7.944-3.708-11.685-17.494,3.675-35.236,2.527-52.911,2.792-4.409.065-9.297-1.263-12.671,3.161,11.649-.109,23.299-.22,34.948-.324,4.469-.04,8.466,1.085,8.335,6.426Z"/>
      <path class="ak" d="m853.594,599.071c12.973,1.405,25.927,2.63,38.992.794,24.882-3.497,49.708-5.612,74.077.533,31.129-9.428,62.3-18.719,93.512-27.869-5.868-.809-11.781-.979-17.752-.018-11.26,1.813-22.153,3.929-33.517,2.441-1.086-.142-1.564.115-1.404.544.719,1.934-1.786-.861-.231-.786,10.917-1.135,19.992-6.056,29.323-10.236,14.961-6.701,30.545-10.288,46.527-5.311,4.94,1.538,9.71,2.338,14.34,2.51,11.431-3.307,22.866-6.599,34.308-9.869,1.299-.765,2.594-1.56,3.883-2.392,5.624-3.627,10.934-7.484,18.063-8.01,12.673-.936,24.557-5.878,37.044-7.878,9.481-5.054,19.476-8.146,30.138-10.069,9.198-1.659,19.467-2.104,25.981-10.785-.908-9.118-7.31-11.063-14.341-9.1-8.068,2.253-16.06,2.71-24.231,2.572-3.716-.063-7.565.471-10.16,2.836-13.815,12.597-31.704,9.994-47.887,12.105-13.521,1.764-22.945,5.89-27.186,19.178-11.131,3.062-22.535,4.569-33.957,5.977-12.603-3.224-24.956-4.021-37.972-.642-10.286,2.672-20.991,5.293-31.986,3.897-5.907-.75-11.248,1.257-16.173,4.225-6.889,4.15-14.312,6.133-22.198,4.967-17.917-2.648-34.315,5.868-51.75,6.719-2.266.11-5.089,1.792-6.528,3.628-6.186,7.89-14.417,8.884-23.567,8.383-7.717-.423-15.514.409-23.208-.188-12.2-.947-20.666,5.072-27.933,13.674-4.46,5.279-3.974,5.884,5.795,8.167Z"/>
      <path class="ay" d="m2922.55,23.067c-2.088,1.983-4.103,4.259-7.601,1.684,2.437-.671,4.627-1.273,6.811-1.876-.005,0,.789.193.789.193Z"/>
      <path class="q" d="m410.037,337.585c-7.433-3.125-13.834-3.634-18.089-8.663-2.537-2.999-3.715-6.255-.771-9.55,3.208-3.591,7.388-4.042,10.834-.93,4.995,4.511,7.617,10.429,8.025,19.143Z"/>
      <path class="r" d="m664.218,281.664c.324,5.072-4.189,10.583-8.856,10.279-5.242-.341-8.091-3.731-8.791-8.727-.754-5.388,3.425-9.983,8.731-9.979,4.771.004,8.609,3.632,8.916,8.427Z"/>
      <path class="au" d="m910.167,218.501c5.583-4.475,11.5-3.793,17.545-1.142,2.62,3.665,6.107,6.804,7.369,12.417-6.173-.537-11.593-3.484-17.616-2.737-5.925.735-8.2-2.831-7.298-8.538Z"/>
      <path class="at" d="m947.923,328.34c-4.729,2.4-9.098-1.135-13.655-.418-2.736.43-6.514,2.834-7.994-1.212-1.325-3.622,1.079-6.898,3.758-9.434,2.914-2.758,6.394-3.528,9.746-1.044,4.06,3.009,7.666,6.526,8.146,12.109Z"/>
      <path class="e" d="m650.541,387.627c-6.566,2.182-12.075.288-17.559.465-2.667.087-5.131-.866-5.488-3.893-.314-2.663,1.202-4.846,3.207-6.491,6.388-5.245,12.108-2.557,19.841,9.919Z"/>
      <path class="ab" d="m1432.195,220.253c-5.844-1.347-11.186-4.032-16.545-1.397-1.948.958-3.972,1.584-4.753-1.19-.376-1.336-.337-3.179.315-4.345,2.333-4.17,5.713-7.88,10.816-6.946,6.48,1.186,10.622,5.155,10.167,13.877Z"/>
      <path class="u" d="m1106.042,273.011c-4.511,1.773-8.574,1.604-12.449.81-3.996-.819-5.909-3.738-4.636-7.853,1.297-4.194,4.694-5.134,8.391-3.868,4.521,1.547,7.253,5.027,8.695,10.91Z"/>
      <path class="ba" d="m134.779,494.888c5.457-.279,11.217,4.873,11.687,10.163.226,2.541-1.468,3.864-3.617,3.404-4.569-.977-7.933-4.13-11.091-7.371-1.059-1.087-1.561-2.703-.297-3.961,1.013-1.009,2.404-1.638,3.319-2.235Z"/>
      <path class="x" d="m1639.102,176.616c-4.853,2.404-9.015.201-12.849-2.146-2.298-1.407-2.923-4.245-1.4-6.699,1.556-2.507,4.268-2.899,6.676-1.568,4.012,2.217,7.663,4.95,7.573,10.413Z"/>
      <path class="bc" d="m2045.351,270.618c-13.301,9.24-28.885,13.353-44.04,17.327-22.441,5.884-44.319,13.339-66.371,20.337-11.338,3.598-22.762,6.116-34.811,5.765-17.708-.516-34.91,4.368-51.348,9.334-22.757,6.876-46.369,9.082-69.01,15.825-5.411,1.612-11.284,2.332-16.169,4.924-16.67,8.845-35.074,12.505-53.084,15.369-19.985,3.177-38.926,9.031-57.9,15.215-9.461,3.083-18.925,5.323-28.763,4.148-8.495-1.014-15.947,3.997-24.258,3.248,14.409-12.318,31.459-18.04,49.761-22.326,49.668-11.632,100.148-18.983,149.973-29.735,49.875-10.763,99.132-23.866,148.29-37.431,32.216-8.89,64.587-17.182,97.73-22.001Z"/>
      <path class="z" d="m2553.2,153.274c-9.963,6.888-21.952,2.332-32.664,5.93-22.192,7.455-46.706,7.555-66.824,21.789-6.881,4.869-15.86,5.204-23.791,5.734-11.125.744-20.752,5.647-31.172,7.878-31.047,6.649-60.069,21.101-92.17,23.601-4.523.352-8.95,1.928-13.422,2.937,2.989-5.379,8.5-8.733,11.031-14.644,3.055-7.135,10.606-7.761,16.913-9.221,27.462-6.355,54.882-13.05,82.588-18.154,37.332-6.878,74.178-15.859,111.213-24.015,12.765-2.811,25.488-2.204,38.298-1.837Z"/>
      <path class="bc" d="m1587.21,385.353c-4.109,4.529-10.093,4.555-15.336,6.331-5.844,1.98-12.496,2.613-17.498,5.843-14.784,9.546-30.944,10.201-47.561,9.462-1.009-.701-1.344-1.401-1.009-2.103.334-.701.67-1.052,1.008-1.052.717-.425,1.468-.496,2.251-.212,4.076-2.604,9.527.885,13.314-3.001,21.367-6.122,42.764-12.116,64.83-15.268Z"/>
      <path class="j" d="m1506.815,403.834c0,1.052,0,2.104,0,3.156-19.343,4.069-38.588,8.438-56.847,16.33-7.68,3.32-15.812,3.026-23.935,2.081,25.922-10.947,53.033-17.45,80.781-21.567Z"/>
      <path class="z" d="m2575.185,144.239c-6.415,5.026-13.208,9.134-21.765,8.947,6.154-5.663,13.014-9.604,21.765-8.947Z"/>
      <path class="z" d="m2256.048,233.682c-4.299,4.208-9.224,6.854-15.472,6.195,4.285-4.242,9.212-6.883,15.472-6.195Z"/>
      <path class="z" d="m2293.054,221.192c-3.115,4.458-7.608,3.889-12.102,3.315,3.214-4.098,7.741-3.402,12.102-3.315Z"/>
      <path class="j" d="m1522.38,400.622c-3.549,4.922-8.621,3.102-13.309,3.003,3.958-3.109,8.62-3.114,13.309-3.003Z"/>
      <path class="bc" d="m1599.522,382.138c-3.136,4.65-7.731,3.715-12.218,3.189,3.407-3.612,7.767-3.574,12.218-3.189Z"/>
      <path class="z" d="m2271.349,227.34c-2.066,3.644-5.342,4.049-9.024,3.367,2.197-3.295,5.431-3.81,9.024-3.367Z"/>
      <path class="z" d="m2280.86,224.531c-2.428,3.305-5.817,3.344-9.389,2.762,2.361-3.533,5.748-3.58,9.389-2.762Z"/>
      <path class="bc" d="m2064.24,264.93c-2.476,3.479-5.928,3.361-9.557,2.592,2.565-3.153,5.911-3.425,9.557-2.592Z"/>
      <path class="bc" d="m2054.639,267.532c-2.183,3.741-5.581,3.833-9.26,3.079,2.369-3.183,5.647-3.637,9.26-3.079Z"/>
      <path class="bb" d="m1123.072,540.264c-10.016,9.395-21.373,11.181-33.959,5.978,9.1-10.033,20.791-10.463,32.987-8.75.445.063.653,1.81.972,2.772Z"/>
      <path class="t" d="m637.576,640.168c17.215-2.781,34.51.368,51.748-.691-3.607,4.126-8.49,2.809-12.94,2.841-13.292.096-26.586-.046-39.881-.095.222-.756.58-1.441,1.074-2.055Z"/>
      <path class="i" d="m535.779,269.541c-4.721,1.902-8.766,1.731-12.565-.104-3.14-1.517-4.562-4.279-2.611-7.545,1.4-2.344,3.885-3.485,6.592-2.246,3.812,1.746,6.693,4.537,8.584,9.894Z"/>
      <path class="ai" d="m200.355,62.28c-11.796,1.448-24.013,5.264-35.728-7.798,14.502.02,26.923-5.772,35.728,7.798Z"/>
      <path class="d" d="m2868.884,4.39c-298.553,2.014-597.114,4.028-895.713,4.888-261.322.753-522.71.891-783.892-2.734-108.718-1.509-217.273-3.777-325.775-6.543-23.25.005-46.501.023-69.751.056-10.872.549-21.674,1.4-32.364,2.742-.401.206-.812.399-1.22.596-.877-.358-1.752-.717-2.638-1.07-5.81-1.103-12.032-1.688-18.325-2.175-78.755.164-157.51.433-236.266.707-88.099,2.977-176.845,1.923-265.151,2.439-59.735.35-119.528-.459-179.218-2.121-13.709-.102-27.422-.212-41.154-.355-3.437-.036-6.874-.068-10.31-.104.1.933.195,1.865.256,2.794.492,8.928-1.985,17.302-7.362,25.134,15.368.119,30.736.239,46.103.357h.003s-.001,0-.002,0c15.448,3.541,32.599,1.532,48.998,2.054,38.477,1.226,77.958-2.061,115.491,3.382,23.995.138,47.99.384,71.985.393,75.214.026,150.429-.006,225.643-.053,8.018-3.024,16.522-4.694,24.84-4.694h95.901c.005-.086.002-.171.01-.257,31.856.176,61.17-.354,90.923.634,54.837,1.818,110.297,4.45,164.854,3.155,54.315-1.29,107.215.142,160.354,2.742,35.311,1.729,70.865,1.996,105.703.591,32.624-1.316,65.146-1.998,97.236-.739,73.52,2.882,146.49,1.253,220.064.167,92.897-1.37,185.83-2.107,278.785-3.66,87.152-1.455,175.054,1.202,262.569-1.327,68.928-1.937,137.377-.029,206.35,1.283,187,3.557,374.42,3.891,561.684,5.362,34.038.267,67.462-2.379,101.47-1.628,7.985.176,15.967.384,23.949.585V3.088c-11.257.779-22.657,1.225-34.029,1.302Z"/>
      <path class="ak" d="m278.441,12.661c-8.348.699-16.283-.352-24.283-2.021-3.639-.759-7.519-.958-10.512.879-15.933,9.781-33.016,3.867-49.307,2.904-13.612-.805-23.642,1.479-30.302,13.736-11.508.919-22.992.259-34.476-.502-11.774-5.532-23.758-8.633-37.177-7.756-10.604.694-21.611,1.26-32.149-2.174-5.662-1.846-11.284-.876-16.679,1.115-7.545,2.784-15.209,3.338-22.736.714-2.879-1.004-5.774-1.683-8.682-2.14v39.112c28.011-2.927,56.031-5.768,84.063-8.479-5.612-1.896-11.387-3.172-17.433-3.349-11.401-.333-22.497-.298-33.38-3.892-1.04-.343-1.558-.18-1.481.271.344,2.035-1.593-1.181-.08-.815,10.936.934,20.773-2.197,30.723-4.551,15.952-3.774,31.933-4.373,46.697,3.515,4.564,2.438,9.099,4.118,13.615,5.156,11.848-1.104,23.698-2.19,35.55-3.255,1.42-.507,2.84-1.046,4.262-1.621,6.204-2.508,12.145-5.3,19.246-4.479,12.623,1.459,25.224-1.165,37.864-.787,10.261-3.185,20.659-4.347,31.492-4.235,9.346.097,19.516,1.587,27.543-5.718.819-9.126-5.104-12.239-12.378-11.629Z"/>
    </g>
  </g>
</svg>