<?xml version="1.0" encoding="utf-8"?>
<!-- Generator: Adobe Illustrator 27.9.0, SVG Export Plug-In . SVG Version: 6.00 Build 0)  -->
<svg version="1.1" id="b" xmlns="http://www.w3.org/2000/svg" xmlns:xlink="http://www.w3.org/1999/xlink" x="0px" y="0px"
	 viewBox="0 0 3237.3 1500" style="enable-background:new 0 0 3237.3 1500;" xml:space="preserve">
<style type="text/css">
	.st0{fill:#CEC2A9;}
	.st1{fill:#C1B69E;}
	.st2{fill:#B0AF91;}
	.st3{fill:#C8BDA5;}
	.st4{fill:#CCD4D0;}
	.st5{fill:#CCD4CF;}
	.st6{fill:#EBEFEC;}
	.st7{fill:#353A30;}
	.st8{fill:#EDE368;}
	.st9{fill:#444647;}
	.st10{fill:#404142;}
	.st11{fill:#464747;}
	.st12{fill:#474848;}
	.st13{fill:#646869;}
	.st14{fill:#525253;}
	.st15{fill:#414343;}
	.st16{fill:#505454;}
	.st17{fill:#656565;}
	.st18{fill:#5D6161;}
	.st19{fill:#585758;}
	.st20{fill:#747776;}
	.st21{fill:#828080;}
	.st22{fill:#787575;}
	.st23{fill:#58595A;}
	.st24{fill:#7D8180;}
	.st25{fill:#838482;}
	.st26{fill:#DDDBA0;}
	.st27{fill:#615F5F;}
	.st28{fill:#686868;}
	.st29{fill:#8A8B8A;}
	.st30{fill:#696A6A;}
	.st31{fill:#2D472D;}
	.st32{fill:#131617;}
	.st33{fill:#4A4F4F;}
	.st34{fill:#4A4F4E;}
	.st35{fill:#656660;}
	.st36{fill:#686C6C;}
	.st37{fill:#4C5251;}
	.st38{fill:#5A5D5D;}
	.st39{fill:#595B5B;}
	.st40{fill:#676E6D;}
	.st41{fill:#6E7372;}
	.st42{fill:#696865;}
	.st43{fill:#868980;}
	.st44{fill:#7A736C;}
	.st45{fill:#6A675B;}
	.st46{fill:#2D3131;}
	.st47{fill:#79733A;}
	.st48{fill:#414243;}
	.st49{fill:#FFFF00;}
	.st50{fill:#ECF0ED;}
	.st51{fill:#121816;}
	.st52{fill:#2E4B2D;}
	.st53{fill:#2C482C;}
	.st54{fill:#131816;}
	.st55{fill:#314E2F;}
	.st56{fill:#151B18;}
	.st57{fill:#161D19;}
	.st58{fill:#2E4C2D;}
	.st59{fill:#4A853F;}
	.st60{fill:#334E2F;}
	.st61{fill:#4B8540;}
	.st62{fill:#212A22;}
	.st63{fill:#292E27;}
	.st64{fill:#262825;}
	.st65{fill:#343930;}
</style>
<g id="c">
	<g>
		<g>
			<path class="st0" d="M503.7,365.2c1.4,2.3,4.7,3.9,9.8,5.1c13.1,3,26.2,6,39.3,8.9c6.3,2.1,12.9,3.9,22.9,3
				c22.1-2,41.2,0.6,60.1,3.3c4.1,0.6,7.6,2.1,12.4,1.5c16.6-2.1,22.9,2.2,30.4,5.8c3.3,1.6,5,3.7,10,4.7c1.9,0.4,4,0.6,6.3,0.7
				c3.7,1.4,6.2,3,11.2,4c2.3,0.5,4.5,1,6.6,1.6c2.1-0.5,4.3-0.9,6.4-1.4c42.3-9.2,83.7-21.6,124.9-34.8c1.4-0.5,2.8-0.9,4.2-1.3
				c-0.9-1.5,0-3.3,3.1-5.5c8.7-6.1,18.6-12.1,36.1-15.3c5.4-1,10.8-2,15.7-3.5c3.1-0.9,5.9-2,5.8-3.6c-0.2-1.7-3.8-2-7.2-2.3
				c-6.9-0.6-14.2-0.6-21.5,0c-42.9,3.5-85.7,7.2-127.5,13.6c-6.7,1-13.3,2.3-16.5,4.9c-5.1,4.2-14.4,6.3-23.7,8.6
				c-13.7,3.4-28.6,5-43.3,6.9c-8.2,0.7-16.5,1.8-24.4,1c-7.2-0.7-12.4-2.5-12-5.6c0.4-3.5,8-3.4,14-3.9
				c17.6-1.1,30.2-4.6,35.1-11.7c1.9-2.8,7.4-4.5,13.9-5.7c4.9-1,9.5-2.3,14.2-3.5c4.8-1.2,10.1-1.4,15.2-1.7
				c21.9-1.6,23.8-2.5,20.8-10.4c1.8-1.7,3.7-3.4,5.2-5.2c2.4-2.7,6.1-6.1-1-7.6c-7.8-1.6-11.2,2.3-15.3,4.2
				c-7.1,3.4-10.6,2.9-12.8-0.6c-1.6-2.5-5.9-4.2-11.1-5.7c-2.8-0.7-4.1-1.9-6.5-2.6c-4.4-0.1-10.6-2.4-11.6,1.9
				c-1.4,1.5,2.7,2.4,2.1,3.8c-11.8-0.6-12-0.7-19.5,1.8c-4.1,1.4-8.2,1.8-12.9,2.4c-11.6,1.3-13.8,3.6-6.7,6.8
				c1.6,0.7,3.8,1.2,5.5,1.8c3.5,1.3,5.1,2.8,1.5,4.7c-3.8,2-8.2,1.7-12.4,0.8c-4.3-0.9-8.1-2-12.7-2.8c-4.9-0.8-9.9-2.2-15.8-0.5
				c-6.4,1.9-5.3,4.3-4.5,6.7c1.2,3.6,5.7,6.8,6.5,10.5c-6.4,0.4-7.8-1.3-10-2.4c-6.9-3.4-12.9-7-19.6-10.4
				c-6-3.1-12.1-6.2-24.5-1.4c-3.8,1.5-9.9,1.3-15.1,1.3c-7.7,0-15.4,0.1-22.8,1.8c-13.2,2.1-18.3,6.7-24.3,11
				c-1.5,2.6,5.2,5.9-7.3,7.6c-6.2,0.8-10.6,2.4-9.6,5.1C491.7,364.5,496.6,365.5,503.7,365.2z"/>
			<path class="st0" d="M312.3,627c-5.7,1.6-11.4,3.3-17.1,5.2c-15.4,5.3-30.5,11.5-45.6,17.6l72.7-4.4
				C318.1,639.9,314.7,633.7,312.3,627z"/>
			<path class="st1" d="M654.8,363c19.4,1.7,19.4,1.7,13.4,8.9c20.7-2,40.1-5.4,58.6-10.2c5.5-1.4,9.3-2.5,10.8-5
				c1.8-2.9,7.4-4.5,14.8-5.3c10.7-1.2,21.5-2.3,31.8-3.9c16.5-2.6,33-4.8,50.3-5.8c11.3-0.6,22.6-1.2,33.9-2.9
				c11-1.7,22.6-1.7,33.8-1.1c2.1,0.1,4.2,0.3,4.2,1.2c0,0.8-1.6,1.5-3.6,2c-1.9,0.4-4,0.7-5.9,1.1c-16.1,3.4-34,6-40.9,13.8
				c-0.3,0.3-1.6,0.6-2.5,0.8c-7.6,2.4-9,5.7-10.1,8.9c-0.3,0.9-0.2,1.7,0.2,2.4c0.1,0,0.2-0.1,0.3-0.1
				C884,355,924,342.8,963.9,330.3c43.6-13.7,88.9-20.5,134.3-25.7c8.1-0.9,16.2-1.7,24.3-2.5c0.4-0.2,0.9-0.4,1.3-0.7
				c6.1-3.3,5.4-5.8-2.7-7.4c-3-0.6-6.5-1.1-9.9-1.1c-11.1,0-22-0.7-33.5,1.7c-8,1.6-17,2.4-25.6,3.6c-10.3,1.4-15.7,0.9-21.6-2.2
				c-0.6,0.3-1.4,0.7-1.8,1c-2,1.9-3.7,4.2-10,4.3c-7.2,0.2-7.5-2.4-9.1-4.3c-2-2.5,0.7-5.5-3.8-7.7l0,0c-0.1,0.8-0.1,1.6-0.2,2.4
				c-0.4,2.6,2.1,5.2-1,7.7c-3.5,2.8-12,2.5-17.8,4c-0.9,0.2-1.9,0.4-2.8,0.7c-14.1,4.3-29.8,4.5-45,4.5c-12.4,0-24.7,0.5-36.8,2
				c-4.4,0.5-8,0.6-11.9,0.3c-0.5,1.4,3.5,3-1.9,4c-4,0.7-4.8-1.3-7.2-2c-0.7-0.2-1.6-0.3-2.4-0.4c-6.4,1.7-12.1,5.8-19.5,4.1
				c-6-1.3-0.3-5,1-7.7c-1.2-0.3-2.2-0.8-3.5-0.9c-3.2-0.4-6.3-1.4-9.9-0.3c-3.8,1.1-2.1,2.6-1.5,3.9c3.1,6.3-1.7,13-0.4,19.4
				c0.1,0.6-0.5,1.2-1,1.8c-1.1,1.2-2.7,2.3-6.1,2.8c-4.1,0.5-6.8-0.2-8.8-1.4c-2.8-1.7-3.6-4-8.6-5c-22.1,4.7-43.3,5.2-63.9,1.6
				c-4.8-1-10-1.6-14.7-2.6c-4.6,1.5-3,2.7-0.3,4c4.5,2.1,3.8,3.4-2.9,4.3c-4.9,0.7-10.1,0.7-15.1,1.2c-5.3,0.5-11.3-0.1-15.7,2.1
				c5.6,1.8,12.7,0.5,19.3,0.4c7.5-0.2,13.5,0.4,13.6,3.7c0.1,3-4.8,4.9-12.1,6c-17.3,2.6-28.4,0.3-32.9-7
				c-11.1,1.4-19.3,3.7-18.9,8.7c0.1,1.5-2.5,2.7-5.4,3.7c-7.3,2.7-15.1,4.9-25.2,4.8C645.4,362.7,650.9,362.6,654.8,363z"/>
		</g>
		<path class="st0" d="M488.4,442.7c-3.2-3.1-9.3-5.1-21-5c-10.8,1.8-17.5,6-25.6,9.4c-4.2,1.8-3.4,3.5-0.1,5
			c8.8-1.9,17.6-3.7,26.4-5.5C474.9,445.3,481.7,444,488.4,442.7z"/>
		<path class="st0" d="M511.9,438.5c11.5-2,22.9-3.9,34.4-5.8c-1.6-0.8-3.5-1.3-6.3-1.4C529,432.4,516,432,511.9,438.5z"/>
		<path class="st0" d="M312.3,627c-5.7,1.6-11.4,3.3-17.1,5.2c-15.4,5.3-30.5,11.5-45.6,17.6l72.7-4.4
			C318.1,639.9,314.7,633.7,312.3,627z"/>
		<path class="st0" d="M360.1,367.9c1.2,2.3,4.1,4,8.5,5.2c11.3,3.1,22.7,6.2,34,9.3c5.5,2.2,11.2,4,19.8,3.2
			c19.1-1.8,35.6,1,51.9,3.8c3.6,0.6,6.6,2.2,10.7,1.6c14.3-2,19.8,2.4,26.3,6c2.9,1.6,4.3,3.7,8.7,4.8c1.6,0.4,3.5,0.7,5.5,0.8
			c3.2,1.4,5.4,3.1,9.7,4.1c5.5,1.3,10.6,3.2,14.6,5.4c5.7,3,10.9,6.3,6.3,11.1c-1.6,0.7-1.9,1.5-1.8,2.4c0.6,1.3,1.2,2.6,1.4,4
			c0,0.6,0.2,1.1,0.5,1.7c13.1-2.1,26.1-4.2,39.2-6.3c32.9-5.2,65.8-10.7,98.5-17.1c-5.1,0.5-10.2,1-15.3,1.4
			c-7,0.6-13.8,0.7-17.6-2.2c-3.6-2.7-0.6-5.4,3.3-7.9c11.3-7.4,25.8-12.9,44.6-15.7c9.7-1.5,19-3.3,27.2-6.3
			c2.2-0.8,4.6-1.8,3.6-3.1c-0.9-1.2-3.6-1.5-6.4-1.4c-13.4,0.3-26.7-0.2-40.1,1.9c-7,1.1-14.2,1.7-21.3,1.5
			c-13.1-0.4-18.1-4-11.4-9.4c7.5-6,16-11.9,31-15c4.6-1,9.3-1.9,13.5-3.3c2.7-0.9,5.1-2,4.9-3.6c-0.2-1.7-3.3-2.1-6.2-2.4
			c-6-0.6-12.2-0.7-18.5-0.2c-37,3.1-74,6.5-110,12.6c-5.8,1-11.5,2.1-14.3,4.8c-4.4,4.1-12.4,6.1-20.4,8.4
			c-11.8,3.3-24.6,4.8-37.4,6.5c-7.1,0.6-14.3,1.7-21.1,0.8c-6.2-0.7-10.7-2.6-10.4-5.7c0.3-3.4,6.8-3.3,12-3.8
			c15.2-1,26-4.3,30.2-11.4c1.6-2.8,6.4-4.4,12-5.6c4.3-1,8.2-2.3,12.3-3.4c4.1-1.2,8.7-1.3,13.1-1.6c18.9-1.4,20.5-2.3,17.9-10.2
			c1.5-1.7,3.2-3.4,4.5-5.2c2.1-2.7,5.2-6.1-0.9-7.6c-6.8-1.6-9.7,2.2-13.2,4c-6.1,3.3-9.1,2.8-11-0.7c-1.4-2.5-5.1-4.3-9.6-5.7
			c-2.4-0.7-3.5-1.9-5.6-2.7c-3.8-0.1-9.1-2.5-10,1.8c-1.2,1.5,2.4,2.4,1.9,3.8c-10.2-0.7-10.4-0.8-16.9,1.7
			c-3.5,1.3-7.1,1.8-11.1,2.2c-10,1.2-11.9,3.5-5.8,6.7c1.4,0.7,3.3,1.2,4.8,1.8c3,1.3,4.4,2.9,1.3,4.8c-3.2,2-7.1,1.6-10.7,0.7
			c-3.7-0.9-7-2.1-11-2.9c-4.2-0.8-8.5-2.3-13.6-0.6c-5.5,1.8-4.5,4.3-3.8,6.7c1.1,3.6,5,6.8,5.7,10.6c-5.5,0.3-6.7-1.3-8.7-2.5
			c-5.9-3.4-11.2-7.1-17-10.6c-5.2-3.1-10.5-6.3-21.2-1.6c-3.3,1.5-8.6,1.2-13.1,1.2c-6.6,0-13.3-0.1-19.7,1.6
			c-11.4,2-15.8,6.6-21,10.8c-1.2,2.6,4.5,6-6.3,7.5c-5.3,0.8-9.1,2.3-8.3,5C349.8,367.1,354,368.2,360.1,367.9z"/>
		<path class="st0" d="M243,490.3c2.3-0.6,4.5-1.1,6.8-1.7c12.2-2.9,24.6-5.3,36.9-7.5c-0.8-0.3-1.6-0.7-2.3-1.2
			c-3.4-1.1-7.6-0.7-11.5-0.9c-1-0.1-1.9-0.4-2.6-0.8c-1.3-1.6-3.8-2-7-0.8c-5.4,2-10.6,4-15.8,6.1c-3.7,1.5-5.2,3.4-4.7,5.5
			C242.8,489.4,242.9,489.8,243,490.3z"/>
	</g>
	<path class="st2" d="M1677.8,315.5c-0.5-2-1.4-3.8-3.9-5.2c-26.8-2.8-53.5-5.8-80.9-3.9c-16.5,1.2-33.1-0.6-49.8-0.2
		c-28.7,0.8-57.2,2.5-85.2,6.5c-16.7,2.4-33.2,0.5-49.7,0.1c-15.2-0.3-30.4-1.9-45.4-3.5c-19.8-2.1-25.3-9.7-15.8-20.6
		c10.2-11.6,2.9-19.9-18.4-20.6c-18.8-0.6-37.5-1-56.6,0.4c-18.9,1.4-39.3,0.9-52.7-10.7c-3.9-3.3-9.6-4.3-16-4.2
		c-8.8,0.1-17.6,0.4-26.3,0.5c-19.2,0-38.9,3.1-57.7-3.2c12.3-4.1,28.1,1.4,39-5.7c2.7-1.3,5.9-1.7,9-2.2c7.9-1.4,13.2-4.7,13.7-9.8
		c0.5-5.5-6.3-8.2-13.4-9.8c-10.1-2.3-20.7-3.6-31.4-3c-34.1,1.8-68.3,2.6-102,6.2c-20.7,2.2-30.9,13-25.4,25.8
		c2.1,5,6.3,7.6,14.9,8.8c22.6,3.2,46,2.9,68.5,6.2c3.1,0.5,6.5,0,10.2,1.8c-1.7,4.4-8.6,6.1-13.4,8.8c-9.8,5.6-8.8,9.5,3.8,12.5
		c6.1,1.5,12.5,2.3,18.8,3c13.1,1.3,24.8,4.3,34.8,9.8c6,0.2,11.9-0.3,17.8-1c-7.4,1-14.5,2.8-20.8,6c-4,2.1-8.3,3.5-12.8,4.4
		c3.8-0.8,6.8-2.4,8.1-6c-3-5.7-10.8-5.6-18.1-5.9c-13.6-0.7-26.9,1.1-39.8,3.1c-16.8,2.6-33.1,1-49.5,0.1
		c-14.4-0.9-28.6-0.8-42.8,0.9c-4.6,0.6-9.3,1.2-13.8,0.3c-15.6-3-31-0.7-46.3,0.6v17.4c23,4.4,46.8,7,69.6,11.9
		c10.7,2.3,20,5.8,29.7,9c34.9,11.4,72.5,14.6,111.1,15.3c10.1-1.1,18.9,2.1,28.2,3.5c4.7,0,8-0.9,7.1-4.4c-1.9-3.3,3.4-5.3,3.9-8.3
		c0.9-1.7-2.2-5.7,5.2-3.6c5,1.5,9,4,13.9,5.6c8.9,2.9,11.7,1.9,12-4.2c0-0.7-1.5-1.6,0.2-2.3c0.7,0.7,1.7,1.4,2.8,1.9
		c10.5,1.7,7.3-3.5,8.4-6.5c-1.2-7.5-7.1-14.4-7.6-23.1c8.8,3.2,10.8,8.4,14.6,12.6c3,3.3,4.7,7,8.2,10.1c2.2,1.9,4.5,4.1,8.8,3.3
		c4.1-0.7,5.2-3.1,6-5.4c3.2-10.3,2.5-20.7,1-32.4c6.9,13.3,12.2,25.5,12.1,38.4c0,1.4,0,2.9,0.5,4.3c0.9,2.6-0.2,6.7,6.2,6.5
		c5.6-0.2,6-3.7,6.4-6.7c6.4-5.8,8.8-13.1,17-19.4c3.7,8.2-7.7,13.6-5.9,20.5c5.9,5.4,11.1,1.4,16-0.7c6-2.5,9.3-7.2,17.7-8.8
		c2,3.2-3.2,5.3-2.9,8c5.4,7.6,11.6-0.6,17.4,0.4c14.5-2.3,29.8-3.1,42.3-9.3c4.7-2.4,11.4-2,17.3-1.9c14.2,0.2,28.3-1,42.5-1.3
		c10.6-1.2,20.7-4.7,32-2.6c6,0.1,11.9,0,17.9-0.6c6.5-1.9,13.2-0.5,19.8-0.6c20.5-3.8,41.8-3.6,62.8-4.8
		c10.4-2.7,20.9-4.8,32.3-2.6c7.7,0.5,15.7-0.1,22.8,2.6c0.6,3-3.2,3.7-5.9,4c-16.3,2-32,5.4-48.1,7.8c-33.5,4.9-67.5,8.4-100,16.6
		c-27.6,7-56.3,12.9-86.3,15.4c-9.2,0.7-18.4,1.7-26.9,4c-8.6,2.4-9.1,6.2-1.5,9.8c4.2,2,9.2,2.8,14.2,3.1c12,0.8,23.6,3.9,35.3,4.3
		c2.7,0.1,5.4,0.3,8.1,0.5l94.1-2.3c-3.3-0.3-6.7-0.8-9.9-1.3c-3.5-0.6-8.6-1.1-8.6-3.6c-0.1-3.9,6.2-2.1,9.6-3.1
		c7.4-2.7,18.4-0.8,23-7.1c-1.4-1.2-3.5-1.8-5.4-2.6c-6-2.7-9.9-6.7-9.6-11c0.3-4.7,8.9-3.9,13.9-5.6c24.7-8.2,52.8-7.1,78.9-11.6
		c17.3-3,34.6-5.9,51.9-8.9c7.9-1.4,15-1.5,22.2,1.9c4.9,2.3,11.4,4.7,15.4-1.2C1676.2,331.9,1678.9,323.2,1677.8,315.5z
		 M1117.9,314.1C1117.9,314.1,1118,314.1,1117.9,314.1c4.1-0.4,8.5-0.4,12.2-1.1c-3.6,0.7-7.3,1.1-11,1.1
		C1118.6,314.1,1118.2,314.1,1117.9,314.1z M1176.9,301.5c-2.9,0.1-5.8,0.3-8.7,0.5c9.5-1.1,18.9-2.2,28.5-1.2
		C1190.4,301.5,1183.6,301.3,1176.9,301.5z"/>
	<g>
		<g>
			<path class="st0" d="M1135.9,256c1.3,2,4.5,3.6,9.5,4.8c12.9,3.3,25.8,6.7,38.7,10.1c6.2,2.2,12.6,4.1,22.7,4
				c22.2,0,41.1,3.4,59.8,6.9c4.1,0.8,7.5,2.3,12.3,2.1c16.7-0.6,22.7,3.4,30,6.9c3.2,1.5,4.8,3.4,9.8,4.5c1.9,0.5,4,0.8,6.3,1
				c3.6,1.4,6,2.9,11,4.1c2.2,0.5,4.4,1.1,6.4,1.7c2.2-0.2,4.3-0.4,6.5-0.7c42.7-4.6,84.7-11.7,126.6-19.5c1.4-0.3,2.9-0.5,4.3-0.8
				c-0.8-1.3,0.2-2.7,3.4-4.2c9-4.4,19.2-8.5,36.9-10c5.4-0.4,10.9-0.9,15.8-1.7c3.2-0.5,6-1.2,5.9-2.5c-0.1-1.4-3.7-1.9-7.1-2.4
				c-6.9-1-14.1-1.5-21.4-1.5c-43-0.2-85.9-0.2-128,2.1c-6.8,0.4-13.4,0.9-16.8,2.8c-5.3,3-14.7,4.1-24.1,5.3
				c-13.9,1.8-28.8,2.1-43.6,2.5c-8.2,0-16.6,0.3-24.4-0.9c-7.1-1.1-12.2-2.9-11.7-5.4c0.6-2.8,8.1-2.2,14.2-2.2
				c17.6,0.3,30.4-1.6,35.7-7.1c2.1-2.2,7.7-3.1,14.2-3.7c5-0.5,9.6-1.2,14.4-1.9c4.9-0.7,10.1-0.4,15.3-0.3c22,0.3,23.9-0.3,21.4-7
				c1.9-1.3,3.9-2.6,5.5-3.9c2.6-2.1,6.4-4.6-0.5-6.2c-7.7-1.8-11.3,1-15.5,2.3c-7.3,2.2-10.7,1.6-12.7-1.4
				c-1.4-2.2-5.6-3.9-10.7-5.4c-2.8-0.7-3.9-1.8-6.4-2.6c-4.4-0.4-10.4-2.7-11.7,0.7c-1.5,1.2,2.6,2.1,1.9,3.3
				c-11.7-1.3-12-1.4-19.6,0.1c-4.1,0.8-8.3,0.9-13,1c-11.7,0.2-14,2-7.1,5.1c1.5,0.7,3.7,1.2,5.4,1.9c3.4,1.3,4.9,2.7,1.2,4
				c-3.9,1.4-8.3,0.8-12.4-0.2c-4.2-1-8-2.2-12.5-3.2c-4.8-1-9.7-2.5-15.7-1.5c-6.5,1.1-5.5,3.2-4.9,5.2c1,3,5.3,5.9,5.9,9.1
				c-6.4-0.1-7.7-1.6-9.9-2.7c-6.6-3.2-12.5-6.6-19-9.9c-5.8-2.9-11.7-5.9-24.4-2.8c-3.9,0.9-10,0.3-15.2,0
				c-7.7-0.5-15.4-1-22.9-0.1c-13.3,0.8-18.6,4.2-24.9,7.3c-1.6,2,4.8,5.2-7.7,5.7c-6.2,0.2-10.7,1.2-9.9,3.5
				C1124,254.6,1128.8,255.7,1135.9,256z"/>
			<path class="st0" d="M929.9,456c-5.8,0.9-11.6,1.9-17.3,3.1c-15.6,3.2-31.1,7.2-46.5,11.1l72.7,1.6
				C935,466.9,931.9,461.6,929.9,456z"/>
			<path class="st1" d="M1286.8,264.8c19.2,2.8,19.3,2.7,12.9,8.2c20.8-0.2,40.3-1.6,59.1-4.2c5.6-0.8,9.4-1.4,11.1-3.3
				c2-2.2,7.7-3.1,15.1-3.3c10.7-0.2,21.5-0.4,32-1c16.6-1,33.2-1.6,50.5-1.2c11.3,0.3,22.6,0.6,34,0c11.1-0.6,22.7,0.2,33.7,1.5
				c2.1,0.3,4.2,0.5,4.1,1.3c-0.1,0.7-1.7,1.1-3.7,1.4c-1.9,0.2-4,0.3-5.9,0.5c-16.2,1.7-34.2,2.5-41.6,8.3
				c-0.3,0.2-1.7,0.3-2.5,0.5c-7.7,1.5-9.3,4-10.6,6.6c-0.4,0.7-0.3,1.4,0.1,2c0.1,0,0.2,0,0.3-0.1c40.5-7.6,81.1-14.6,121.7-22
				c44.3-8.1,89.9-10.4,135.4-11.5c8.1-0.2,16.3-0.3,24.4-0.3c0.5-0.2,0.9-0.3,1.4-0.5c6.3-2.2,5.7-4.3-2.2-6.2
				c-2.9-0.7-6.4-1.4-9.8-1.6c-11.1-0.8-21.9-2.1-33.5-1c-8.1,0.8-17.1,0.8-25.7,1.1c-10.4,0.4-15.7-0.4-21.4-3.4
				c-0.6,0.2-1.5,0.4-1.9,0.7c-2.1,1.4-3.9,3.1-10.2,2.8c-7.2-0.4-7.3-2.4-8.8-4.1c-1.9-2.2,1-4.5-3.3-6.6l0,0
				c-0.1,0.6-0.2,1.3-0.4,1.9c-0.5,2.1,1.8,4.4-1.4,6.2c-3.7,2-12.1,1.2-18,2c-0.9,0.1-1.9,0.2-2.8,0.4c-14.3,2.5-30,1.6-45.1,0.5
				c-12.4-0.9-24.6-1.3-36.9-1c-4.4,0.1-8-0.1-11.9-0.6c-0.6,1.1,3.3,2.7-2.2,3.1c-4.1,0.3-4.7-1.4-7.1-2.1
				c-0.7-0.2-1.6-0.4-2.4-0.5c-6.4,0.9-12.4,3.9-19.7,2c-5.9-1.5,0-4.1,1.4-6.2c-1.1-0.3-2.1-0.8-3.4-1c-3.1-0.5-6.2-1.6-9.9-1
				c-3.9,0.7-2.3,2-1.7,3c2.8,5.4-2.5,10.5-1.5,15.8c0.1,0.5-0.6,0.9-1.1,1.4c-1.2,0.9-2.8,1.7-6.2,1.8c-4.1,0.1-6.8-0.6-8.7-1.7
				c-2.7-1.6-3.4-3.5-8.3-4.7c-22.3,2.3-43.5,1.2-63.8-3.2c-4.7-1.1-9.9-2-14.5-3.2c-4.6,0.9-3.1,2-0.5,3.2c4.4,2,3.6,3.1-3.1,3.3
				c-4.9,0.2-10.1-0.1-15.2-0.1c-5.4,0-11.3-0.9-15.8,0.6c5.5,1.8,12.7,1.3,19.2,1.7c7.5,0.4,13.4,1.3,13.4,4
				c-0.1,2.5-5,3.7-12.4,4.1c-17.5,0.9-28.4-1.8-32.4-8c-11.2,0.4-19.5,1.6-19.3,5.8c0.1,1.2-2.7,2-5.6,2.7
				c-7.5,1.7-15.4,2.9-25.4,2.2C1277.4,264,1282.9,264.3,1286.8,264.8z"/>
		</g>
		<path class="st0" d="M1116.2,318.1c-3-2.7-9-4.8-20.7-5.6c-10.9,0.7-17.8,3.7-26.1,5.9c-4.3,1.1-3.6,2.6-0.4,4
			c8.9-0.9,17.8-1.8,26.7-2.6C1102.6,319.3,1109.4,318.7,1116.2,318.1z"/>
		<path class="st0" d="M1139.9,316.3c11.5-0.8,23.1-1.6,34.6-2.3c-1.5-0.7-3.4-1.3-6.2-1.6C1157.3,312.6,1144.3,311.4,1139.9,316.3z
			"/>
		<path class="st0" d="M929.9,456c-5.8,0.9-11.6,1.9-17.3,3.1c-15.6,3.2-31.1,7.2-46.5,11.1l72.7,1.6
			C934.9,466.9,931.9,461.6,929.9,456z"/>
		<path class="st0" d="M1413.1,240.2c1.2,1.9,4,3.4,8.3,4.5c11.2,2.9,22.4,5.9,33.7,8.8c5.4,2,11,3.7,19.7,3.3
			c19.1-0.7,35.5,2.1,51.8,5.1c3.5,0.6,6.5,2.1,10.7,1.7c14.4-1.1,19.7,2.7,26.1,5.9c2.8,1.4,4.2,3.2,8.5,4.2
			c1.6,0.4,3.5,0.7,5.4,0.8c3.1,1.3,5.3,2.7,9.6,3.7c5.5,1.3,10.4,3,14.4,4.9c5.6,2.7,10.7,5.6,6,9.3c-1.6,0.5-2,1.1-1.9,1.9
			c0.5,1.1,1.1,2.2,1.3,3.3c-0.1,0.5,0.1,0.9,0.4,1.4c13.1-1.2,26.3-2.4,39.4-3.6c33.1-3,66.1-6.2,99-10.3
			c-5.1,0.2-10.2,0.4-15.4,0.6c-7,0.2-13.8,0.1-17.5-2.4c-3.5-2.3-0.4-4.4,3.5-6.3c11.5-5.6,26.2-9.5,45.1-11.1
			c9.7-0.8,19.1-2,27.3-4.2c2.2-0.6,4.7-1.3,3.7-2.4c-0.9-1-3.5-1.4-6.4-1.4c-13.4-0.2-26.6-1.2-40.1,0c-7,0.6-14.2,0.9-21.4,0.4
			c-13.1-0.9-17.9-4-11.1-8.1c7.6-4.6,16.3-9.1,31.5-11.1c4.6-0.6,9.4-1.2,13.6-2.2c2.7-0.6,5.2-1.4,5.1-2.7
			c-0.1-1.4-3.2-1.8-6.2-2.2c-6-0.7-12.2-1-18.5-0.8c-37.1,1.2-74.1,2.5-110.3,6.1c-5.8,0.6-11.5,1.3-14.4,3.4
			c-4.5,3.2-12.6,4.5-20.7,6.1c-11.9,2.2-24.7,3-37.5,3.9c-7.1,0.3-14.3,0.8-21.1-0.1c-6.2-0.8-10.6-2.5-10.2-5
			c0.4-2.8,6.9-2.4,12.1-2.6c15.2-0.2,26.1-2.6,30.5-8.2c1.7-2.2,6.5-3.4,12.1-4.1c4.3-0.7,8.3-1.5,12.4-2.3
			c4.2-0.8,8.7-0.7,13.2-0.8c18.9-0.4,20.6-1.1,18.2-7.7c1.6-1.3,3.3-2.7,4.6-4c2.2-2.1,5.4-4.8-0.6-6.2c-6.7-1.6-9.7,1.4-13.3,2.8
			c-6.2,2.5-9.2,2-11-1c-1.3-2.1-5-3.7-9.4-5.1c-2.4-0.6-3.4-1.7-5.6-2.4c-3.8-0.2-9.1-2.4-10.1,1.1c-1.2,1.2,2.3,2,1.7,3.2
			c-10.1-0.9-10.4-1-16.9,0.7c-3.5,1-7.1,1.2-11.2,1.4c-10,0.6-12,2.4-6,5.3c1.3,0.6,3.2,1.1,4.7,1.7c3,1.2,4.3,2.5,1.2,3.9
			c-3.3,1.5-7.2,1.1-10.7,0.2c-3.7-0.9-7-2-10.9-2.8c-4.2-0.8-8.5-2.2-13.6-1c-5.5,1.3-4.7,3.3-4,5.3c1,3,4.7,5.8,5.4,8.9
			c-5.5,0.1-6.7-1.4-8.6-2.4c-5.8-3-11-6.2-16.7-9.3c-5.1-2.8-10.3-5.6-21.1-2.1c-3.3,1.1-8.6,0.7-13.1,0.5
			c-6.6-0.3-13.3-0.5-19.7,0.6c-11.5,1.2-15.9,4.8-21.3,8.1c-1.3,2.1,4.3,5.1-6.5,5.9c-5.4,0.4-9.2,1.5-8.4,3.8
			C1402.8,239.1,1407,240.1,1413.1,240.2z"/>
		<path class="st0" d="M868.6,339.6c2.3-0.3,4.6-0.6,6.9-0.9c12.4-1.5,24.8-2.6,37.3-3.5c-0.8-0.3-1.6-0.7-2.3-1.2
			c-3.3-1.1-7.6-1.1-11.4-1.6c-1-0.2-1.9-0.5-2.5-0.8c-1.2-1.4-3.7-1.9-7-1.2c-5.5,1.2-10.8,2.5-16.1,3.9c-3.8,1-5.3,2.4-5,4.1
			C868.6,338.9,868.6,339.2,868.6,339.6z"/>
	</g>
	<path class="st3" d="M1082.4,335.4c-13.8,1.6-27.5,3.7-40.8,6.1c-5.4,1-11.8,2.1-12,4.7c-0.2,2.4,6.4,2.5,11.1,2.9
		c6.9,0.6,13.5,1.3,18.6,3.2c4.8,1.8,6.2,3.5-2.6,4.9c-7.4,1.2-12.7,3.4-17.4,5.8c-3.1,1.6-8.7,3.5-4.6,5.3
		c3.1,1.4,8.6,0.5,13.2-0.3c2-0.3,3.9-0.8,5.9-1.1c37.3-5.5,73.6-12.3,111.9-16.3c21.1-2.2,42.5-2.6,63.5-5.8
		c35.2-5.4,71.1-9.6,106.3-15c25-3.8,49.4-8.9,69.7-16.6c14.9-5.6,33.5-7.4,50.2-4.7c6.7,1.1,9.1,2.8,4.4,5.6
		c-4.5,2.7-9.7,5.8-17.9,6.3c-19.2,1.1-37.9,4.6-57.3,4.2c-17.6-0.4-34,2.3-49.5,6.3c-37.5,9.8-74,20.1-111.3,29.9
		c-5.6,1.5-11.1,2.9-11.9,5.7c0.2,4.3,8.8,7.3,7.4,11.8c4,3.7,12.1,3.3,20.7,2.1c11.2-1.5,22.1-3.4,33-5.3c4.8-0.8,9.4-1.4,10,1.4
		c0.9,4.4,9.2,4.9,18.7,4.6c16.7-0.6,33-2.1,49.1-5.2c17.5-3.3,35.4-6.7,53.7-8.6c15-1.5,29.6-3.1,44.3-5.2
		c29.2-4.3,57.9-9.5,88.1-12.1c13.3-1.2,26.5-3.3,39.7-5c13.1-1.6,16.4-4.4,11.5-8.2c9.9-5.3,24.5-6.4,38.1-6.8
		c15-0.4,29.7-1.5,42.4-4.6c26.2-6.4,52.3-7.2,78.3-5.1c17.9,1.4,33.4-0.5,48.7-5c6.5-1.8,13.4-3.2,18.9-4.3
		c-3.1,0.7-6.9,1.7-11,2.5c-2.7,0.5-4.9,1.3-7.2,2c-3.1,1.2-6.6,2.3-10,3.4c-5,1.9-10.1,3.7-15.3,5.5c-15.5,4.9-31.5,9.8-49.8,12.3
		c-32.3,4.3-62.4,10.8-93.4,16.4c-13.8,2.5-27.9,4.7-42.7,5.3c-14.9,0.6-28.8,2.7-42.3,5.6c-14.3,3.1-29.1,5.9-43.1,9.3
		c-28.8,7-59.9,12.3-87.2,20.4c-4.5,1.3-13.1,2.4-6.5,5.4c9,0.3,18,0.5,26-2.5c0-2.9,5.9-3.7,11.4-4.6c27.9-4.6,54.2-10.7,81.2-16.1
		c22.7-4.5,45.4-9.2,69.8-11.6c21.8-2.1,43-5,62.6-9.7c19.7-4.7,41.2-5.7,61.7-8.5c4.8-0.7,9.4,0,13.1,0.9
		c9.8,2.3,21.7,2.6,32.6,3.7c5.5,0.6,10.6,0.3,16.6-0.6c11.2-1.7,22.7-2.4,34.7-2c-3.7,2.8-9.1,3.9-14.4,4.9
		c-23.2,4.5-47.9,7.9-67.6,15.3c-3.9,1.5-9,1.4-13.5,1.6c-12.1,0.5-24.2,1.9-35,4c-26,4.9-53.4,7.5-79.2,12.5
		c-22.4,4.3-46,7.1-67.7,12.2c-18.6,4.4-38.3,7.8-55.7,13.3c-8.8,2.7-18.5,5.2-27.2,8.1c-2.2,0.7-3.4,1.8-2.7,2.8
		c0.8,1.1,3.3,1.3,6.1,1.1c9.8-0.7,19.8-0.6,29.4-2.2c10.8-1.7,21.2-2,32.2-1.8c15.3,0.2,29.5,2.4,45.4,1.2
		c20.2-1.6,40.2-0.9,60.4-2.1c9.1-0.5,18.7-1.6,27.1-1.6c14.6,0.2,29-1.1,43.4-1.8c6-0.3,11-0.2,15.5,1.3c12.3,4,28.4,4,44.4,3.1
		c20.6-1.2,41.1-3.1,61.6-4.7c-12.4-3.8-29-4.6-43.4-6.9c-14.5,1-30.8,1.4-38-3.1c-11.1-6.8-27.7-6.7-44-3.9
		c-24.1,4-48.4,4.2-72.5,6.7c-9.3,0.9-21.1,1.7-24.3-2.1c-3.2-3.7,7.7-6,15.1-8.1c52-15.1,109.9-20.5,169.1-23.9
		c6.3-0.4,12.6-0.1,17.4,1.3c10.8,3.3,24,3.1,37.7,2.4c23.9-1.2,47.4-4.5,71.4-5.6c25.7-1.1,27.7-0.5,22,9.3c-0.5,0.8,0.4-0.2,0,0.6
		c0.3,1,1.5,1.8,3.2,2.5c1.1,1.1-1.5,1.3-3.2,1.8c-1.2,0.2-2.3,0.5-3.4,0.8c-8.7,2.2-15.5,6.4-27.6,5.6c-4.7,2-8.6,4.1-3.7,6.4
		c4.7,2.2,11.3,1.9,18.2,0.7c2.4-0.5,4.7-1.1,7-1.7c4.5-1.1,8.9-1.4,13.4-0.8c8.3,1.2,17.1,1.8,24,4.1c8.1,2.7,18.6,3.1,29.7,2.7
		c4.7-0.2,9.6-0.8,13.9-0.6c19.4,1.1,37.8-2.4,56.3-4.7c16-2,31.3-4.6,47.7-3c14.9,1.4,30.8-0.6,46.2-1.6
		c18.5-1.2,37.2-2.4,51.9-8.7c2.8-1.2,7.3-1.7,11.4-2.3c6.5-1,13-2.2,18.8-3.7c14.3-3.7,30-5.9,45.4-8.3
		c14.8-2.3,23.6-6.4,24.4-12.4c-11.4,4.2-22,9-39,8.5c-5,0.9-10.1,1.3-15.2,2c-22.8,3.2-45.9,6.1-59.2,15.5c-2.4,1.7-7,2.3-10.7,1.2
		c-5.1-1.5-3.6-3.6,1.1-5.1c6.6-2.3,13.9-4.2,17.4-7.5c3.5-3.3,9.6-5.5,17.8-7.2c11.3-2.4,21.4-5.8,24-10.8
		c1.8-3.4,4.2-6.1,12.3-8.3c6.7-1.9,7.8-4.4,0.4-5.7c-12.6-2.2-6.5-4.5,0.6-7.6c18.1-8.1,41.3-13.5,63.2-19.4
		c21.3-5.8,45.9-9.1,70.2-10.9c40.2-2.9,80.5-4.1,120.8-5.8c6.9-0.3,13.8-0.7,20.7-1.2l-6.2-139c-4.8,0-9.6-0.2-14.4-0.5
		c-9.2-0.5-18.4,0.2-27.6,1.5c-3.5,0.5-7.1,0.9-10.6,1.3c-23.8,2.9-48.1,4.7-71.6,8.5c-8.9,1.4-18.2,2.6-27.4,3.3
		c-21.2,1.6-42.3,2.8-63.5,4.8c-17,1.6-33.6,3.7-50.4,5.6c-16.7,1.8-33.7,2.7-48.8,7.2c-6,1.8-13.1,0.3-19.3,0
		c-5.6-0.3-1.4-2.7-1.8-4.1c-0.7-2.5-4.6-3.6-10.5-4.1c-11.4-0.9-22.6,0.2-33.1,2.5c-20.2,4.5-37.2,3.5-52.3-1.3
		c-3-1-6-1.9-10.8-1.4c2.4,6,20.3,6.7,26.8,11.8c-9.7,0.6-15.2-1.6-22.3-2.3c-5.2-0.5-10.8-2.1-15.8-0.3c-5.9,2.1-1.1,4.5-0.2,6.7
		c1,2.4,7.2,3.9,6.3,6.9c-12.8-1.3-27.1-7.8-27.2-12c0-1.7,2.5-3,5.2-4.4c7.1-3.8,17.6-4.7,27.3-6.3c-6.6-2-13.1-3.7-23.2-1.6
		c-6.1,1.3-11.2,0.2-14.5-1.5c-4.6-2.4-11.1-2.6-18.8-2.1c-11.8,0.7-23.5,1.4-35.5,1.3c-12.5-0.1-25.8,0.7-38.6,2.5
		c-30.7,4.4-60.7,9.6-90.1,15.5c-16.8,3.4-34.3,6.3-50.2,10.3c-13.3,3.3-26.3,6.8-40.2,9.8c-11.3,2.4-16.9,1.2-18.5-3.5
		c-1.5-4.7,2.4-9.6,3-14.3c0.3-2.2,5.1-3,10-3.6c-10.2-0.6-13.3,0.2-14.1,3.9c-1.5,7-2.4,14-0.8,20.9c0.4,1.5,1.7,3.5-3.9,4.1
		c-5,0.6-7-1.1-8.5-2.5c-3.1-3-6-6-9.2-9.3c-6.6,1.8-16.3,0.7-19.1,3.2c-6,5.4-20,6.4-29.4,9.8c0.8,1.6,5.5,2,7.3,3.3
		c1.7,1.2,2.9,2.5-0.5,3.8c-3.1,1.3-6.6,1.4-10,0.8c-3.5-0.7-6.6-1.6-10.3-2.1c-3.7-0.5-8.1-1-11.6,0.5c-3.7,1.6-3.5,3.5-1.2,5
		c1.9,1.3,4.8,2.3,7,3.6c5.6,3.1,9.9,6.5,10,10.6c0,1.3-1.2,2.4-4.7,3c-3.5,0.6-6.2,0.1-7.8-0.9c-2-1.3-3.4-2.7-5.4-4
		c-5.6-3.5-10.2-7.5-20.6-9.7c-1.1,1-1.8,1.6-2.3,2.1c-1.7,2-3.6,4.1-10.1,4.5c-6.5,0.4-8.3-1.4-10.7-3.1c-1.9-1.4-1.3-3.6-7.3-3.8
		c-1,0.8-1.8,1.6-3.1,2.3c-7.3,3.8-13.3,3.9-18.9,0.4c-2.2-1.4-2.3-3.3-6.5-4.1c-0.8,0.4-1.6,0.7-2.3,1c-7.9,4.4-9.1,4.6-17,1.5
		c-4-1.6-9.6-1.8-13.9-2.9c-1.6-0.4-4.4-0.6-5.7,0.1c-4.5,2.8-13,4.1-17.2,6.2c-5,2.6-16.6,4-15,8.5c0.6,1.8-5.5,2.9-10.9,2.7
		c-3.4-0.1-5.7-1.5-9.9-0.7c-3.2,2-1,3.9-1.1,5.8c0,3.2,0,6.4-0.1,9.5c0,1.2-0.5,2.5-4.3,3c-2.8,0.4-4.9-0.1-6.5-0.9
		c-1.2-0.6-2.2-1.2-3.5-1.8c-2.1-1-3.3-2.6-7.9-1.9c-3.6,0.6-3.3,2-3.8,3.2c-0.4,1-1,2-1.8,3c-1.2,1.4-2.7,2.9-7.4,2.9
		c-3.7,0-4.8-1.1-5.4-2.3c-0.7-1.1-0.7-2.4-1.7-3.4c-2.1-2.3-3.2-4.9-9.2-6c-5.5,1.1-3.6,3.7-8.6,4.6c-6.7,1.3-5.8-2.9-11.7-2.2
		c-3,1.4-5.7,2.7-8.8,3.9c-2.9,1.1-5.7,0.9-8-0.1c-7.9-3.7-17.6-0.7-26.7,0.4c-13.8,4.9-26.6,3-39.5,1.4c-7.5-0.2-12.3,1.9-17.2,3.8
		c-5.4,1.1-8.7-0.1-12.1-1.1c-3.2-0.9-7.3-2-11-0.9c-10.5,3.1-25.9,3.5-31.5,9.4c-2.3,2.3-6,3.5-12,2.2c-10-2.1-11.5,0.8-11.8,3.6
		c-0.4,3.8-0.2,7.6-4.8,11.3c-2.8,2.3-6,4.8-13.8,4.5c-6.9-0.3-7.2-2.6-7.7-4.8c-0.7-3.4,2.9-6.9,2-10.2c-0.9-3.2-2.8-6.3-14.4-2.9
		c-11.1,5.2-18.7,0.2-28,0.1c-4.5,0.5-8.9,1.2-13.3,0.5c-2.5-0.4-4.9-0.7-7.8-0.6c-2.2,0.1-4.2,0.5-5.8,1.2
		c-6.1,2.9-15.8,1.1-22.3,3.6c-3.7,1.9-7.1,3.8-14.2,3.2c-11.1-0.9-22.3,1.4-33.6,1.9c-8,0.3-18.2,2.2-19.9,6.4
		c-1.8,4.6-6.5,9.1-5.6,13.7c3.9,4.2,13.4,3.9,23,3c10.3-1,20.4-2.5,30.5-4c10.6-1.6,20.8-1.6,30.7-0.8c10.9,0.8,12.7,3.1,5.4,6.9
		C1115.3,327.9,1101.8,333.2,1082.4,335.4L1082.4,335.4z"/>
	<g>
		<g>
			<g>
				<g>
					<path class="st4" d="M3162.6,14.1c-5.4,2-10.8,4.1-16.1,6.4c-8.1,3.5-17.3,7.8-24.5,0.3c-2.5-2.6-5-4.8-7.6-6.7h-74
						c-14.8,4.7-31,7.7-40.2,23.2c-36.2,19-75.7,22.5-114.6,29c-36.5,9-72.6,18.6-107.1,35.4c-40.3,19.5-80.5,39.9-123.5,52.9
						c-5.6,2.8-11.5,4.7-17.6,5.8c-3.1,0.8-6.1,1.8-9,3.1c-13.1,4.6-26,9.9-39.2,13.8c-31.5,9.2-58.2,30.2-91.1,37.1
						c-25.6,5.4-51.7,9.6-77,18.3c-80.5,27.7-161.7,52.8-244.7,70.7c-5.5,1.2-10.9,3.1-16.2,5.1c-115.4,43.3-232.3,81.5-349.4,119.4
						c-15.6,5-29.7,14.1-46,17.6c-66.6,14.5-130.4,38.4-193.1,66c-75.9,33.4-151.1,68.5-230.9,91.5c-16.9,4.9-33.3,12-49.4,19.6
						c-8.9,4.2-15.3,9.8-9,20.3c-0.3,14.9-7.7,17.4-24.6,8.3c-6.3-11.4-15.9-9.3-25.6-4.6c-35.4,17-72.4,29.4-108.7,43.7
						c-28.6,11.3-56,26.4-86.5,32.5c-29.6,5.9-57.7,17.2-86.1,27.7c-5.8,2.1-12,4.6-13.8,11.8c-0.4,7.7,7.5,10.2,11.4,16.2
						c-7.8,0.3-13.7-0.7-19.4-2.3c-8.2-5.1-16.7-7.2-26.2-2.2c-46,24.3-96.2,37.4-143.6,58.1c-19.6,8.5-38.9,17.9-59,25.1
						c-6.8,2.3-13.4,5.2-20.3,7.2c-40.9,12.8-80.4,29.3-119.7,46.5c-7.8,3.4-17.2,6-18.3,17c0.6,5.9-0.7,9.7-7.9,8
						c-6.4-1.5-12.8-3.6-19.6-3.1c-3.7,0.3-7.4,1-11.1,2c-57.1,15.8-111.8,39.6-167.8,59.1c-6.5,2.3-13.1,5.2-15.1,13.1
						c-0.4,3.1,0,5.9,1.6,8.5c0.3,0.5,0.5,0.8,0.7,1c-8.1-4.1-15.2-10.3-25.1-9.9c-12.5,2.2-24,7.4-35.6,12.4
						c-17.9,7.8-34.6,19.8-53.4,23.9c-56.9,12.6-109.2,42.6-167.3,50.3c-7.9,1.1-15.6,4.8-23.3,7.4c-7.5,2.5-14.3,6-12.1,15.9
						c3.3,7.5,10.8,9.2,17.4,12.2c8.3,3.7,16.5,7.4,25,15.1c-16.5-4.3-31.2-10.6-45.9-15.8v126c44.6-16.6,89.9-31.3,130.8-57.1
						c5.9-3.7,12.6-6.1,19.5-7c18.3-2.4,35.2-9.7,51.8-17.4c59.2-27.5,119.7-50.9,181.5-71.1c15.6-5.1,33.5-7.2,45.3-21.7
						c1.4-4.2-0.9-6.8-3.3-9.5c-3.2-3.6-11-6.4-5.2-12.4c4.7-4.8,10,0,14.4,2.9c2,1.3,3.6,3.1,5.4,4.5c5.6,10.4,14.1,9.5,24,5.5
						c31.1-12.6,62.1-25.6,91.6-42c30.6-17,62.5-30.6,95.6-42c39.4-13.6,78.7-27.9,117.1-44.6c54.6-23.7,107.9-51,164-70.6
						c77.6-27.1,155-55.2,231.6-85.1c78.9-30.8,157.8-61.8,237.7-89.5c11.3-3.9,23.5-5.3,34.3-10.9c68-35.3,141.8-53.9,212.5-81.8
						c69.4-27.5,138.7-55.5,208.4-82.5c23.8-9.2,48-17,72.5-21.3c63.3-11.1,121.6-37.9,180.3-62.9c39.6-16.9,78.1-36.4,119.5-48.7
						c18.2-5.4,37.2-6.4,55.1-13.2c89.7-34.1,183-52.2,275.7-72.6c43.5-9.6,88.6-11.5,127-39.4c1.5-1.1,3.5-1.4,5.3-2.1
						c60.9-22.7,120.5-49.1,182.6-68.2c43.5-13.3,83.2-37,126.7-50.4c13.7-5.2,24.4-16.3,38.4-20.7c49.2-15.4,96.6-36.7,146.1-51.4
						c12.7-3.8,24.8-8.8,34.9-17.7V14.1H3162.6z M323.8,1017.2L323.8,1017.2c-0.2-0.1-0.3-0.2-0.5-0.2c0.1,0,0.2-0.1,0.3-0.2
						C325.5,1015,324.9,1019.3,323.8,1017.2z"/>
					<path class="st4" d="M754,1026.7L754,1026.7c-51.1,20.5-103.9,35.4-154.5,57.6c-60.9,26.8-124.5,45.5-188.1,64.3
						c-60.7,18-115.7,50.9-174.4,74.3c-40.8,16.2-82.6,32.2-119.9,57.1c-3.2,2.1-6.9,3.2-10.6,4c-35.8,8-69.7,22.6-104,35.5V1472
						c6-1.7,11.8-3.8,17.5-6.6c5-2.6,10.1-4.8,15.3-6.6c1.7-0.7,3.4-1.4,5-2.2c10.3-4.2,21.5-3.7,31.8-7.8c1.7-0.8,3.4-1.6,4.9-2.7
						c20.6-14.4,41.6-28.4,63-41.3c22.1-13.2,42.1-33.1,70.5-31.4c6.6-2.2,12.4-6.4,18.6-9.3c42.3-19.8,80.3-48,124.7-64
						c34.2-12.3,69.1-23.9,100.3-44.1c3.9-2.7,8-5.1,12.4-7c1.7-0.8,3.4-1.7,5-2.7c8.4-4.3,16.9-8.7,25-13.7
						c43.7-26.9,87.5-53.7,132.3-78.8c12-6.7,23.6-11,37.4-6.5c9.5,3.1,19.7,0.1,29.1-4.1c10-5.5,20.1-8.1,31.7-7.7
						c11.4,0.4,23.3-0.7,33.6-7.6c5-4.8,5.9-11.1,6.3-17.3c1.5-22.4,5.5-44.5,9.1-66.7C779.1,1024.8,772.6,1019.2,754,1026.7z"/>
					<path class="st5" d="M2001.8,224.3c-8.2-0.9-16.2,0.7-24.3,2.1c-35.9,6-71.8,11.6-107.3,21c-66.3,17.6-134.2,27.6-200.2,47.2
						c-21.1,6.3-42.3,12.4-64.2,15.5c-57.8,8-114.5,23-172,33.4c-35.5,6.4-71.2,15.2-105.6,27.9c-39.3,14.5-79.9,22.5-120.5,30.7
						c-33.3,6.8-67.2,9.1-100.2,18c-45.5,12.3-90.7,26.4-137.5,32.1c-41.6,5.5-81.4,21.2-122.8,27.7c-27.6,3.8-52.4,18.5-79.4,23.8
						c-62.1,12.2-123.3,29.5-185.3,41.7c-48.2,9.5-94.8,25.2-142.1,37.8C382,598.8,324,616.4,264.2,623.9
						c-54.3,6.8-107.1,22.7-160,35.8c-33.8,8.4-67.8,15.8-101.8,22.9v80.1c17.4-4,34.5-8.9,50.9-17c12.2-6,24.8-9.2,38.2-8.9
						c8.8,0.2,17.3-1.4,26-3.7c77.8-20.7,152.6-52.1,231.8-68.9c68.6-14.6,135.4-39.5,202.9-59.9c44.1-13.3,88.1-28.2,133.2-35.2
						c41.1-6.3,81.3-14.1,121-27.7c45.9-15.7,91.8-33.5,139.8-39.6c24.5-3.1,48.1-7.6,71.2-16.5c14.3-5.5,29.1-7.9,43.9-10.9
						c47.9-9.9,95.3-22.1,143.2-32.1c18.5-3.9,36.6-8.9,55.5-8.3c29.7-3.8,59.7-3.4,88.9-14c32.1-11.6,65.2-19.7,98.9-24
						c9.1-1.3,18.1-2.8,26.9-6.1c49.3-17.6,99.8-29.4,151-38.5c60.4-10.8,120.2-25.4,177.5-50.2c30.8-13.3,62.8-22.2,95.8-28.3
						c37.6-6.9,74.4-17.8,110.3-32.2C2019,229.2,2010.3,226.8,2001.8,224.3z"/>
					<path class="st6" d="M2.5,494.8v49c39-2.6,78.3-4.9,115.1-20.3c35.3-14.8,70.6-20.4,107.8-22c27.5-1.2,56.3-2.8,80.3-21.7
						c0.6-2.1,0.5-4.2-0.4-6.2c-3.5-3.7-9.1-2.9-13.2-5.3c-0.7-0.2-1.5-0.4-2.2-0.7c13.4,2.3,27,4.1,40.9,3
						c14.2-1.1,28.3-4.7,42.5-3.1c11.8,1.9,23.5-0.5,35.4-1.8c69.9-7.8,136.8-34,206.8-41.8c59.1-6.6,115.5-32.1,175.6-32.7
						c3.7,0,7.4-1.5,11-2.7c27.2-8.9,55.4-13.7,83.3-15.3c56.2-3.2,110-18.9,163.9-34c23.7-6.6,47.4-12.5,71.6-17.2
						c32.8-6.3,66.3-5.2,98.7-12.8c28.2-6.6,56.4-12.9,85-17c42-6,82.7-17.7,122.9-31.7L2.5,494.8z"/>
					<path class="st6" d="M1506.5,247.7c14.8-1.7,29.4-4.1,44-7.2L1506.5,247.7z"/>
					<path class="st4" d="M2613.6,163.5L2613.6,163.5c-65.1,9.5-130.9,10-195.6,24.4c-14.4,1.7-28.3,5.4-42.1,10
						c-50.3,16.6-101.6,29.6-152.5,43.2c-75.9,20.3-151.8,40.7-228.4,58.2c-8,1.8-15.6,5-22.6,9.6c-15.4,16.2-35.5,21.1-56,25.1
						c-37.6,7.3-75.7,10.3-112.7,21.7c-53.5,16.5-106.2,36.2-162.3,42.5c-73.2,8.1-142.2,37.3-213.4,55.2
						c-37.7,9.5-74.6,22.9-113.2,28.2c-21.9,3-43.1,8.9-63.4,18.1c-60.4,27.5-125,38.8-187.7,57.5c-26.6,7.9-54.5,8.9-80.3,19.9
						c-5.5,4.7-0.7,9.3,0.2,13.3c-11.8,3.4-19.9-4.6-29.8-6.1c-49.3,10.8-96.2,30.4-144.3,45.9c-49.3,15.9-97.3,37.1-147.7,48
						c-40.9,8.9-80.4,21.1-119.4,36.2c-52.6,20.3-106.1,38-160.5,51.3c-99.8,24.3-198.1,54.6-297.1,82c-27.6,7.6-55,15.9-82.3,24.4
						v248.7c2.7,0.6,5.5,0.4,8.1-2.6c-4-6.4-1.9-10.7,5.5-12.1c17.8-3.5,34.7-11.3,53-12.8c9.2-0.7,18.2-3.3,27.3-6.6
						c23.5-8.6,46.3-19.2,70.9-25.6c20.1-5.2,41-9.3,60.2-19.4c24-12.6,48.6-24.2,74.6-32.2c1.7-1.7-0.5-8.5,5.7-4.2
						c4.6,3.2,8.9,7.6,15.7,5.8c0.3-4.7,2.5-7.4,7.2-9.7c9.1-4.5,19-6.2,28.3-9.7c40.9-15.2,80.9-33,123-44.5
						c12.6-3.4,24.4-10.1,37.8-10.3c2.1-8.4-9.2-6.2-10-12.2c13.6-2.8,22.7,10.9,36.3,7.5c-0.1-4.2-1.7-8.8,3.9-11.2
						c9.8-4.2,19.6-8.6,29.3-12.8c34-14.8,68.7-27.4,103.5-39.7c2-5,2.1-10.8,7.1-14.4c4.7-3.5,9.8-2.6,13.5,0
						c1.8,1.2-5.2,3.9-3.2,7.8c5.7-0.2,10.8-1.9,16-4.7c29.5-15.7,61-26.2,91.7-38.9c27.8-11.5,56.9-19,83.8-32.9
						c21.1-10.9,21.2-10.8,38.4-2.3c1.2-6.6,5.3-11.7,9.4-16.8c1.1-11.4,12.1-10.9,18.5-13c30.3-10.1,59.7-23.8,91.7-27.5
						c3-0.3,6-1.8,8.9-2.9c42.6-17.1,85-34.7,127.8-51.1c18.8-7.2,37-15.8,55.5-23.8c6.7-2.9,9.2-1.5,10.3,4.8
						c0.4,2.6,2,4.3,4.4,5.4c5.9-18.2,19.3-14.5,32.2-12.1c1-5.7-5.1-8-6-13.4c19.8-11.1,41.2-19.6,62.5-25.7
						c27.8-8,54.3-19.7,81.9-28.1c29.6-9.1,56.7-24.4,85.1-36.5c40.9-17.5,82.2-34.3,122.9-52.2c15.7-6.9,31.9-11.4,48-16.6
						c24.5-7.8,49.2-15.2,74.1-20.9c13.6-3.1,26.7-6.8,39.2-13c8.5-4.2,17.8-6.5,26.3-10.2c15.4-6.7,31.9-6.4,47.1-13
						c50.4-21.7,103.1-36,154.7-53.6c31.4-10.7,63.4-20,94-33.5c30.7-13.5,62.4-23.8,95.6-27.4c6.8-0.7,14-1.6,20.2-4.3
						c33-14.8,67.4-24,102.5-31c12.8-2.5,25.9-5.7,37.8-11.3c42.2-19.8,87.4-27.1,131.6-38.2c15.5-3.9,30.2-8.7,43.8-16.7
						c11-6.5,22.6-11,34.2-15.9c15.5-6.5,32.2-9.7,46.9-18.4C2626.1,161.8,2619.8,162.6,2613.6,163.5z"/>
					<path class="st4" d="M3004.6,138.9L3004.6,138.9c-17.8,6.1-35.6,11.9-53.2,18.4c-24.2,8.9-45.9,23.7-71.2,30.4
						c-10.9,2.9-22.1,3.7-32.8,8.3c-31.2,13.4-62.6,26.2-94.6,37.5c-33.7,11.9-67.6,24.1-98.3,43.7c-9.2,5.9-19.5,8.6-30.2,10.1
						c-24.8,3.7-49.6,7.9-74.4,12c-7.4,1.2-15,2.1-22.2,4.3c-24.6,7.8-49.3,14.8-74.6,19c-20.4,3.4-40.9,5.9-60.5,13.7
						c-24,9.5-49.2,14.9-73.7,22.3c-19.2,5.7-36.9,16.2-57.3,18.3c-26.8,2.8-52.4,12.6-77.4,22.7c-26.3,10.6-52.4,21.9-77.4,35.6
						c-25.6,14-54,20.7-80.7,31.8c-32.5,13.5-65.6,24.9-100.9,29.6c-15.6,2.1-32,6.3-47.2,12.2c-45.7,17.7-91.2,36.4-136.6,54.9
						c-23.3,9.5-46.3,19.7-70.4,27.3c-14.2,4.5-28.8,8.7-42.3,15.8c-18.5,9.7-38.5,15.2-58,22.5c-28.8,10.7-58.6,17.8-86.9,30.7
						c-25.7,11.7-50.7,25.1-78.8,31.5c-16.8,3.8-34.5,7.3-50,16.1c-12.2,6.9-24.9,11.7-38,16.4c-18.3,6.6-37.3,10.6-55.3,18.7
						c-14.3,6.5-28.6,13.5-43.3,18.7c-39.7,14-78,31.9-118.1,44.6c-35.3,11.1-69.2,26.7-104.3,38.6c-29.1,9.9-59.3,17.5-86.9,30.5
						c-35.4,16.7-71.6,31.3-107.1,47.7c-18.9,8.7-37.6,18.2-57,25.5c-42.9,16.3-86.5,30.2-129.1,47.3c-52,20.9-99.5,52.4-152.4,71.5
						c-8.7,3.1-13.9,5.7-15.9-5.4c-0.3-1.4-2.6-2.3-4-3.4c-3.2,6.5-8.3,11.7-12.9,17.3c-2.1,6.3-7.3,7.6-13,9.5
						c-26.8,8.7-53.4,18.1-80,27.1c-26.8,9.1-51.6,23.5-78.8,31.4c-12.6,3.7-25.2,7.4-36.8,14.1c-22.6,13-45.8,24.2-71.8,27.4
						c-9.7,1.2-17.7,6.4-25.9,11.1c-12,7-23.5,16.9-36.3,20.1c-24.1,6-44.5,20.8-68.3,26.8c-5.8,1.5-11.5,3.4-17.2,5.4v56.7
						c10.9-4.8,22.1-9,33.2-13.4c23.6-9.4,49.1-12.6,72-23.1c32.7-15.1,64.7-31.6,97.8-46c47.4-20.6,98.3-32.9,142.7-61.2
						c9-5.7,20-7.9,29.7-12.6c23.1-11,48.1-15.4,72.1-23.2c78.7-25.4,155.1-57.9,233.2-85c68.6-23.8,136.8-49,202.6-81
						c22.2-10.8,46.4-16.7,68-29.4c18.9-11.1,39.1-18,60.6-20.9c16.2-2.2,32.4-5.3,47.1-13.3c25.1-13.8,51.7-23.7,78.1-34.3
						c66.9-26.8,132.1-58.3,200.4-81.3c56.1-18.9,108.6-49.5,168-58.2c12.3-1.8,24.1-7.5,35.3-13.8c50.1-28.3,105.6-42.6,157.7-65.6
						c37-16.4,78.1-21,113.7-41.9c45.7-26.7,97.4-38.8,144.2-63c10-5.2,21.3-7.8,32.5-10.2c37.7-8,73.6-22.2,109.9-35.2
						c53.2-18.9,104.3-44.5,162.7-61.3c-100.7,48.2-200.4,86.3-302.1,119.4c-30.9,10.1-61.6,22.6-91.7,35.6
						c-42.4,18.3-83.5,39.9-127.9,53.2c-43,12.9-85,29.9-125.9,47.7c-59.3,25.8-118.7,50.1-180.3,68.8
						c-21.7,6.6-42.1,17.3-63.5,25.2c-41.5,15.3-83.9,27.9-124.3,46.8c-60.2,28.3-123.4,49.1-183,79.2
						c-14.1,7.2-29.5,11.2-45.3,13.3c-11.9,1.5-23.6,4.6-34.5,9.9c-60.4,29.6-124.6,49.6-184.7,80c-9.7,4.9-18.3,10.7-18.3,22.1
						c-0.1,21.1-1.6,42.2-0.9,63.3c0.3,9.8,3.3,18.9,16.9,15.6c21.8-11.7,42.9-24.5,62.8-39.4c41.3-30.9,84.8-59.4,131.9-78.8
						c70.8-29.2,142.1-56.7,210.6-91.6c13.8-7,28.6-9.7,43.6-11.8c11.9-1.7,23.3-4.5,34.2-10.4c55.6-30.7,114.5-53.7,172.6-78.6
						c29.7-12.7,60.9-20.3,90.3-33.3c22.6-9.9,44.3-21.9,66.6-32.6c29.8-15.8,60.3-29.7,92-40.6c1.8-0.6,3.7-1.3,5.4-2.2
						c5.1-2.7,10.6-4.1,15.9-6c23.5-9.7,46.6-20.1,70.1-29.6c1.7-0.7,3.4-1.5,5-2.5c4.9-2.8,10.4-4.1,15.4-6.6
						c1.7-0.9,3.4-1.9,4.9-3.1c18.4-17.6,41.3-26.5,64.2-35.8c63.3-25.6,128.5-45.3,191.7-71.1c84.2-34.5,166-75.1,251.3-106.7
						c1.8-0.7,3.5-1.5,5.2-2.5c3.1-1.7,6.2-3.4,9.3-5c1.5-0.7,3.1-1.5,4.6-2.3c3.9-1.9,8.2-2.7,12.3-3.8c2.7-0.8,5.4-1.8,8-3.1
						c45.6-17.7,94.1-24.8,139.2-44.3c17.2-7.4,37.2-4.8,54-14.8c6.4-3.8,12.3-8.5,19.3-11.2c3.1-1.4,5.8-3.3,8.3-5.5
						c2.7-2.6,5.8-4.6,9.3-6c1.3-0.6,2.6-1.3,3.8-2.1c2.6-1.5,5.3-2.6,7.9-3.8c1.4-0.6,2.8-1.3,4.1-2c4.5-2.2,9.6-3.2,13.7-6.5
						c1.4-1.2,2.7-2.5,3.8-4c8.3-16,21.7-25.3,38.4-31.7c19.4-7.4,38.6-15.8,58.3-22.2c65.6-21.5,126.9-56.4,195.1-70
						c1.8-0.7,3.6-1.5,5.3-2.5c8.5-5.7,16.6-12.1,26.8-14.2c13.4-5.4,26-12.6,38.8-19.3C2998.7,150.7,3005.6,147.6,3004.6,138.9z"/>
					<path class="st7" d="M3223.2,46.2c-2.7,2.5-5.2,5.1-7.5,8.1c-3.2,4-8.8,4.6-13.5,6.5c-18.6,8-38.8,10.1-57.3,18.8
						c-13.7,6.4-27.9,11.9-42.1,16.7c-33.9,11.4-68.8,20-98.1,42.6c-3.5,6.7-10.2,9.2-16.4,12.3c-12.4,6.4-24.8,12.6-37.2,18.9
						c-8.6,4.5-16.3,10.4-24.9,14.9l-0.3,0.1c-9.4,6.3-20.4,4.8-30.5,7.8c-49.7,14.4-92.7,44.6-140.9,62.6
						c-37,13.8-71.1,35.5-108.6,48.3c-8.6,2.9-16,7.3-22.6,13.3l-0.1,0.1c-3.4,5.2-10.5,1.6-14.1,6.3l-0.1,0
						c-2.7,3.8-7.9,1.9-10.9,5.1l-0.1,0.1c-2.1,4.5-8,1.8-10.4,5.8c-2.4,1.6-4.7,3.2-7.1,4.8c-5.3,4.5-12.1,6.5-17.7,10.4
						c-24.6,10.1-51.3,11-76.1,20.5c-25.7,9.9-51.3,19.8-78.8,24.4c-16.1,2.7-32.8,8-47.2,17.8c7.5,6.3,15.3,1.8,23-0.5
						c16.1-4.9,31.8-11.8,48.8-12.9c-30.2,11.7-58.3,28-86.8,43.3c-58.2,31.2-119.2,56.5-177.3,88.2c-5.8,3.2-15.4,4-14.3,14.5
						c18.5-3.7,37.6-5.6,54.7-14.3c5.3-2.7,10.7-5.3,16.1-8c29.9-29.5,66.8-51,108.7-65c11.4-3.8,22.8-7.2,34.3-10.4
						c23.1-11.3,47.1-19.5,72.7-24.1c8.6-1.5,17-4.3,25.2-8c21.4-9.6,43.3-17.6,66.3-22.3c17.2-3.5,34.9-6.6,50.3-16.2
						c26.5-16.6,54.7-29.3,83.6-40.6c17-6.7,33.3-15.4,49.8-23.5c19.8-9.8,38.6-23.1,59.2-29.5c37.1-11.6,68.9-34.6,105-48
						c10.6-3.9,20.8-9.3,32-11.3c6.2-1.1,12.6-1.7,18.2-5c33.9-20,70.9-34.1,103.2-57c12.6-9,25.9-16,40.7-20
						c40.5-10.9,78.9-28.3,118.4-42.6c10.3-5.1,20.6-10.1,31-15.2V46.2z"/>
					<path class="st8" d="M2417.5,193.4c9.5-7.5,21.3-7.3,31.9-10.5c44-13.1,88.5-23.7,133.4-33.2c74.8-15.9,149-34.5,220.9-62.7
						c25.9-10.2,52.7-16.8,80.4-15.7c-22.8,6.5-45.7,12.8-68.5,19.4c-4.8,1.4-9.4,3.4-13.9,5.5c-37.6,17.3-74.4,36.8-113.1,51.5
						c-11.8,4.5-23.4,9.1-35.7,11.6c-4.2,3.5-10.3,1.2-14.4,5.2c-2.4,0.5-4.8,1.1-7.3,1.6c-23.2,3.8-46.2,11.2-69.7,10.4
						c-29.2-1-58,2.8-86.9,7.6C2455.7,187.3,2436.6,190.3,2417.5,193.4L2417.5,193.4z"/>
					<path class="st9" d="M50.3,1139.5L50.3,1139.5c-11.3-10.5-26.5-14.3-39.7-21.4c-2.7-0.7-5.4-1.4-8.1-2.1v17.8
						c17.2,6.5,35,11.3,52.8,17.2C56.3,1143.8,52.9,1141.9,50.3,1139.5z"/>
					<path class="st10" d="M1256.6,658.2c-0.5-7.6-0.4-15.2,7.7-19.5c10.8-5.7,17.1,2.6,24.5,7.3c0.7,4.6,3.7,9,0.3,15.1
						C1279.1,655.1,1266.8,666.9,1256.6,658.2L1256.6,658.2z"/>
					<path class="st11" d="M519.8,936.9c-5.4-2.7-10.9-5.2-16.2-8.1c-2.8-1.5-4.9-4.1-3.3-7.5c1.6-3.4,4.9-3.4,8.1-2.8
						c13.5,2.3,25.9,7.4,37.7,13.8c1.3,2.7,2.7,5.3,4.3,8.6C538.7,944.6,529.6,938.4,519.8,936.9z"/>
					<path class="st12" d="M443.5,1058.2c1,9.9-3.3,15.6-12.9,17.3c-3.2-1.7-6.2-3.7-9.5-5c-6.3-2.4-8.6-6.8-5.8-13
						c3.1-7,9.2-8.7,15.6-6.4C435.4,1052.7,439.3,1055.8,443.5,1058.2L443.5,1058.2z"/>
					<path class="st13" d="M2414.1,279.4c14.8-12.8,31.4-14.3,42.7-4.7c1.8,1.5,3.7,3.3,2.9,6.2c-1,3.8-4.4,5-7.2,4.3
						C2440.3,281.8,2427.5,281.3,2414.1,279.4L2414.1,279.4z"/>
					<path class="st14" d="M1991.5,418.3c-0.8-7.8,5.7-17.5,12.6-18.6c5.8-0.9,9.5,1.9,10.6,7.4c1.4,7-5.7,15.4-14.2,17.2
						C1995.5,425.4,1992.1,423.7,1991.5,418.3L1991.5,418.3z"/>
					<path class="st15" d="M682.8,868.5c-6.1-8.3-2.9-14.8,4.9-20.1c7.6-5.2,11.3-3.9,20.8,6.3c-2.8,2.4-5.6,4.7-8.4,7.1
						C694.5,864.2,690.4,871.4,682.8,868.5z"/>
					<path class="st16" d="M930.1,783.1c-7.5-11.9-7-12.7,9.4-16.8c6.5,4,14.4,6.3,18.9,14.2C949,786.5,939.3,781,930.1,783.1z"/>
					<path class="st17" d="M2297.9,341.3c-14.1-1.1-24.2-6.9-35.1-9.7c-3.7-1-5.2-5.2-3.1-9.1c2.2-4.2,6.5-4.2,9.7-2.3
						C2278.7,325.5,2289.2,329.4,2297.9,341.3L2297.9,341.3z"/>
					<path class="st18" d="M302.1,1009.4c-1.8-4.7-8.2-7.3-5.7-15.3c11.8,1.5,18.2,11.3,27,16.9c0,3.5,3.1,9.7-4.7,7.3
						C312.8,1016.5,307.7,1012.5,302.1,1009.4L302.1,1009.4z"/>
					<path class="st19" d="M1802.9,528.9c-6.3-0.9-9.6-4.5-9.4-10.9c0.2-5.6,3.1-9.4,9.1-9.4c6,0,8.6,3.8,8.4,9.4
						C1810.7,523.1,1809,527.6,1802.9,528.9L1802.9,528.9z"/>
					<path class="st20" d="M2695.7,191c8.7-12.5,13.8-15,20.1-11.1c3.1,1.9,5.8,4.9,4.9,8.9c-1.4,5.9-5.5,2.5-8.7,2.2
						c-2.4-0.2-4.8-0.3-7.3-0.3C2702.3,190.7,2699.9,190.9,2695.7,191L2695.7,191z"/>
					<path class="st21" d="M2562.1,231.5c-5.6,2.9-10,0.1-14.2-1.3c-4.4-1.5-13.2-1.8-9.7-9c3-6.1,9.8-1.3,14.6,0.5
						C2557.2,223.3,2561.1,226,2562.1,231.5z"/>
					<path class="st22" d="M1516,577.2c-9.8,7.5-17.5,12-27.7,16.3C1496.4,575.5,1496.8,575.2,1516,577.2z"/>
					<path class="st23" d="M1341.9,672.9c4.2-0.2,7.7,1.1,7.7,5.4c0.1,5.1-4,7.3-8.4,8c-3.2,0.5-5.9-1.3-6.3-4.7
						C1334.3,676.5,1337.3,673.9,1341.9,672.9L1341.9,672.9z"/>
					<path class="st4" d="M2638.6,164.5c3.7-4.9,9.2-4.8,14.4-5.2C2649.4,164.6,2643.7,163.6,2638.6,164.5z"/>
					<path d="M2401.9,400.4L2401.9,400.4c-13.7,4.2-26.6,12.1-41.4,12.1c-2.1,0.6-4.1,1.2-6.2,1.8c-2.9,3.5-8,1.8-11.1,5l-0.1,0
						c-2.3,4.5-7.8,2.2-10.7,5.5l0,0c-62,26.2-120.6,59.4-184.8,81.4c-82,28.1-161.1,65.4-241.1,99.6
						c-31.1,13.3-64.1,22.5-93.7,39.5l-0.1,0c-3.5,5.2-10.4,1.7-14.2,6.2l-0.1,0c-31.7,12.7-60.2,33.5-94.3,40
						c-32.8,9-61.3,29.1-93.6,39.4c-9.3,4-18.6,8-27.8,12.1c-27.5,12.4-52.4,31.3-83.8,33.7c-5.9,0.5-11.6,4.8-17.4,7.3
						c-6.9,3-13.7,6.8-20.9,9c-48.4,14.8-92.1,41.5-139.3,59.7c-12.8,5-25.6,10.9-37.1,19c-13.9,9.8-29.4,14.6-46.1,15.1
						c-10.1,0.3-19.7,2.4-29,7.2c-16.3,8.4-32.8,16.5-49.5,23.9c-47.3,21.1-94.4,43-143.5,59.8c-19,6.5-37.9,13.8-54.3,26.8
						c-5.8,4.6-13.3,7.2-20.3,10.1c-8.8,3.7-17.2,7.9-25.2,13.2c-38.1,25-73.7,54-113.7,76.3c-1.6,0.9-2.7,2.6-4,3.9
						c-13.9,7.1-31.7,5.9-42,20.8c-1.7,0.8-3.5,1.6-5.3,2.2c-19,5-39.1,3-57.7,10.7c-35,2.4-63.4,22-93.4,38
						c-43.8,23.5-90.2,41.6-134,65.4l-0.2,0.1c-2.2,4.5-7.8,2-10.5,5.5c-32.4,19.2-68.6,28.9-102.3,44.8
						c-18.4,8.7-38.8,12.3-55.6,24.1c-19.4,13.6-40.1,24.3-61.2,34.5c-9.6,4.7-18.5,10.9-27.7,16.5c-16.3,6.6-33.9,11.7-47.2,23.4
						c-26.2,23.2-56.8,37.6-88.3,50.8l-0.1,0.1c-11.1,7.6-25.2,2.8-36.4,10l-0.1,0c-4,4.6-10.5,1.9-14.8,5.6
						c-6.5,2.1-12.9,4.5-19.4,6.4v27c0,1.8-0.1,3.6-0.2,5.4c1.4-0.4,2.9-0.7,4.4-1c33.6-7.9,67.2-16.5,100.1-26.9
						c45.1-14.1,81.4-45.6,122-68.6c33.6-19.1,68.6-35.6,102.8-53.3c37.5-19.4,78.7-30.6,117.9-46.9
						c88.8-36.9,174.3-81.4,262.4-119.5c6.9-4.9,15.1-5.2,22.9-6.6c16.9-3.2,34.2-4,50.1-12.2c5.8-2.5,11.4-5.5,16.8-8.8
						c36.6-22.2,73-45,107.2-70.7c13.9-10.5,32.1-17.5,39.8-35.4c-3.4-14.2,7.1-18.8,17.2-22.5c10.6-3.9,22-4.4,33.1-6.4
						c9.3-1.7,18.6-3.5,25.7-10.7c6.9-7,15.9-9.8,24.3-14.1c21.2-10.8,45.3-10.2,66.5-20c33.9-15.5,68.5-27.7,105.3-31.5
						c14.1-8.7,28.4-16.5,45.2-17.1c7.2-13.6,18.5-20.6,33.4-24.6c18.4-4.9,36.1-11.2,53.2-22.3c16.1-10.4,36.5-16.6,56.7-10
						c6.4-4.8,6.4-14.6,16.1-17.4c14.4-4.2,28.6-9.9,42.6-15.2c34.1-12.8,69.9-21.3,101.7-41c18.3-11.4,37.9-20.8,59-25.5
						c15.5-3.5,30.1-9.5,43.8-17.6c18.8-11.1,38.7-18.8,60.1-22.2c13.8-2.2,27-6.9,38.6-14.9c15.8-11,33.7-17.6,50.3-26.9
						c22.2-12.4,48.2-10.6,69.9-22.8c25.6-14.4,52.2-25.9,79.8-35.2c31.9-10.8,59.4-33.3,91.2-42.1c32.1-8.9,56.9-31.7,88.1-40.7
						c1.2-1.2,2.3-2.5,3.5-3.7c13.5-10.4,28.8-17.8,43.9-25.1c47.2-22.8,94.8-44.9,141.5-69c27.5-14.2,54.1-30.3,82.6-42.6
						c8.8-3.8,19.1-5.3,27.7-16.3C2431.7,393.8,2416.8,395.8,2401.9,400.4z"/>
					<path class="st4" d="M2225.6,436.9L2225.6,436.9c-36.1,17.2-73.4,31.3-111.1,43.8c-14.4,4.8-27.3,13-41.9,17.6
						c-34.3,10.8-68.5,21.8-103.2,30.6c-14.3,3.6-27.2,9.8-40,17.1c-18.3,10.5-39.7,12.8-58.3,21.8c-21.1,10.2-42.8,19.1-63.3,30.5
						c-20.1,11.2-41.8,18-63.6,24.1c-25,6.9-49.3,15.7-73,26.4c-15.6,7.1-31.2,14.2-47.6,18.7c-21.5,5.9-41.5,15.4-61.1,25.6
						c-27.2,14.1-54.7,26.5-85.3,29.8c-6.9,0.7-13.2,3.8-19.8,6c-26.9,9.3-52.3,22.8-79.2,31.8c-35.9,12-71.8,24.5-106.6,39
						c-35.5,14.8-70.8,30.4-106.2,45.8c-16.2,7.1-32.2,15-49.4,19.4c-11.8,3-22.7,7.7-33,14.1c-19.7,12.2-40.5,20.7-63.4,23.8
						c-26.4,3.6-51.4,11.6-74.5,26.1c-8,5-17,8.7-25.9,11.7c-27.6,9.3-54.2,21.3-80.4,33.9c-24,11.5-47.5,24-73.4,30.5
						c-8.5,2.1-16.5,6.5-24.9,9.1c-26.6,8.1-51.4,21.4-78.5,27.6c-15.5,3.6-30,9.6-44.5,15.9c-20.9,9-40.8,20.4-63,26.4
						c-50.5,13.6-98.9,34.3-149.2,49c-36.7,10.7-72.4,26.5-105.3,47.7c-5.9,3.8-12.2,7.1-19.1,8.2c-19.5,3.1-37.6,10.5-55.3,19.2
						c-17,8.4-33.7,17.9-52.7,20.8c-3,0.5-6,2.1-8.7,3.6c-17.9,9.6-35.8,19.2-53.6,29c-5,2.8-9.9,5.8-15.6,6.6
						c-29.6,4.1-56.5,17.6-84.2,28.1c-2.7,1-5.5,1.9-8.3,2.8v25.7c34.9-11.2,68.2-28,104.4-34.7c3-0.6,6.3-1.6,8.8-3.3
						c37.3-24.8,79.8-38.2,119.4-57.9c9.6-4.8,18.9-10.6,29.4-13.3c24-6.2,46.6-15.7,67.7-29c4.3-2.7,9.2-4.4,13.6-6.7
						c45.3-23.9,95.5-32,142.7-50.2c38.9-15,79.9-23.4,117.6-42.1c15.3-7.6,30.9-15.6,47.1-20.1c36-9.8,70.3-24.4,105-37.8
						c4.6-1.8,9.4-4.1,14.8-1.3c-3.1,25.2-9.3,50.2-11,75.7c-0.5,7.2,2,15-3.1,21.8c-0.3,0.1-0.6,0.5-0.9,1.3c-0.3,0.8,0,1.6,1,2.4
						c7.7-6.7,16.1-12.1,26.4-12.8c6.3-0.4,10.5-3.2,13.2-8.8c-6.8,2.4-12.2,2.9-12.1-6.9c0.3-23.6,0.2-47.1,0.1-70.6
						c0-8.8,6-11.4,12.9-14c31.9-12.2,62.2-28.4,93.7-41.6c21-8.8,43.6-13,63.3-25.2c22.6-13.9,47.3-20.9,72.8-25.7
						c21.8-4.1,42.4-12,61.8-23.3c7.6-4.5,15.6-8.8,23.9-11.7c45.4-15.8,89-36.1,133.1-55.3c26.1-11.4,52.8-20.8,79.4-30.8
						c26.6-10,53.7-18.4,80-29.4c33.2-13.8,65.8-30,101.9-34.2c3-0.4,5.9-2.2,8.9-3.1c23.9-6.9,45-20.3,67.1-31.2
						c26.9-13.3,56-19.8,83.1-31.9c30.1-13.5,60.9-24.8,92.4-34.2c15.1-4.5,30.2-9.6,44.3-16.6c37.4-18.7,75.2-36.1,114.9-48.7
						c16.4-5.2,30.7-15.2,47.1-20.1c50.6-15.3,100.6-32.6,149.7-52.8c44.5-18.3,89.3-35.5,132.5-56.8c9.2-4.5,17.8-9.3,24.8-21
						C2257.2,430.3,2240.5,429.8,2225.6,436.9z"/>
					<path class="st24" d="M693.1,1144.4c-26.6,1.7-49,15.8-71.1,28.9c-27.3,16.2-55.3,30.4-84.9,41.2
						c-15.5,5.7-29.9,13.4-44.5,20.9c-8.4,4.3-16.4,9.8-26.2,9.8c39.3-23.8,78.5-47.7,117.9-71.3c17.9-10.7,36.2-20.5,54.3-30.7
						c7.3-4.1,13.9-7.2,22.4-2.1c9.6,5.8,20.5,0.6,30.9-1.1c0.7,0.2,1.4,0.4,2.1,0.7C694.8,1142.2,694.5,1143.4,693.1,1144.4
						L693.1,1144.4z"/>
					<path class="st25" d="M208.8,1370.8c-4.2,5.8-10.4,10.2-16.5,12.3c-20.8,7.3-36.6,22-53.9,34.7c-19.5,14.4-41,24.5-65.2,27.2
						c27.8-21.9,57.9-40,87.8-58.6c4.3-2.7,9-4.7,12.9-7.8C184.7,1369.9,196,1366.8,208.8,1370.8L208.8,1370.8z"/>
					<path class="st24" d="M759.2,1126c0.4,1.2,0.4,2.4,0.1,3.7c-1.1,0.2-2.1,0.6-3.1,1.1c-20.3,6.4-41.3,8.3-62.1,11
						c-0.7-0.6-1.4-1.2-2.1-1.7c10.5-7.1,21-11.3,34.5-9.4C736.8,1132,748.2,1127.7,759.2,1126L759.2,1126z"/>
					<path class="st25" d="M73.2,1445.1c-10.8,9-24.2,6.9-36.4,10C47.4,1445.5,60.9,1448.1,73.2,1445.1z"/>
					<path class="st25" d="M36.6,1455.1c-3.8,5.1-9.2,5.6-14.8,5.6C25.6,1455.4,31,1455,36.6,1455.1z"/>
					<path class="st24" d="M466.2,1245.3c-2.1,4.6-6.1,5.5-10.5,5.5C457.9,1246.3,461.8,1245.3,466.2,1245.3z"/>
					<path class="st4" d="M1259.5,429.3L1259.5,429.3c-17.6-1.8-34.6,0.1-51.7,6.3c-11.8,4.2-23.8,9.6-36.4,9.9
						c-17.1,0.4-33.4,4.3-49.9,8.7c-13.4,3.5-26.2,9.4-40,11.2c-32.5,4.3-64.1,12.9-94.8,25.1c-6.5,2.6-13.2,5.1-20.1,4
						c-9.5-1.5-18.7,0.3-27.9,2.3c-38.1,8.2-75.4,20.4-112.6,32.3c-38.5,12.3-76,28.1-116.6,30.7c-11.2,0.7-22.6,1.9-33.5,4.5
						c-26.3,6.4-52.3,13.8-78.5,20.8c-54.1,14.4-107.1,33.1-160.9,48.8c-10.9,3.2-22.3,4.6-32.8,8.5
						c-32.7,12.1-66.2,20.4-100.2,26.9c-16.6,3.1-33.3,7.3-49.1,13.4c-31.9,12.2-63.9,23.3-96.8,32.3c-28.6,7.8-56.6,17.4-86.2,18.9
						c-7,0.4-13.5,3.3-19.7,6.5c-15.7,8.1-31.8,13.8-49.3,15v27.2c9.7-2.1,19.4-4.2,29.1-6.2c6.1-1.2,12.3-3.4,17.8-6.4
						c14.3-7.7,29.5-11,45.3-12.2c20.2-1.4,39.2-8.3,58.4-14.6c9.9-3.2,20.1-8.9,30.2-1.4c2.1,1.5,5.7,1.6,6.7-0.7
						c5.1-12.4,17.6-11.1,26.8-15.2c26.6-12.1,54.3-21.2,82.6-27c71.5-14.6,141.5-35.3,211.1-58c43.7-14.3,88.3-25.7,132.3-38.9
						c29.1-8.7,58.6-14.7,88.5-18.7c15.5-2.1,31-5.2,46.1-10.1c33.6-10.8,67.1-22.3,101-31.9c31.9-9,62.9-23.7,97-21.7
						c4.6,0.3,9.7-2.4,14.4-4c9-2.9,18-6,26.9-9.2c36.5-13.1,75.3-14.1,112-26.4c25.2-8.5,52.1-7.1,77.1-17.2
						c12.8-5.2,25.8-10.1,39.5-13c8.9-1.9,16.7-7,25.3-13.7C1265.6,433.2,1262.5,431.2,1259.5,429.3z"/>
					<g>
						<path class="st4" d="M826.4,479.6L826.4,479.6c-29.7,1.9-57.2,17-86.1,20.6c-78.2,9.8-152.2,39.9-229.8,52.4
							c-35.8,5.8-71.3,15.5-106.9,23.3c-35.6,7.8-72,8.9-107.3,19.9c-21.5,6.7-43.5,14.8-66.2,14.6c-24.3-0.2-47.1,6.3-70,13.8
							c-8.4,2.8-17.1,4.2-25.6,6.5c-43.5,11.7-88,13.4-132,19.6v38.7c20.8-4.9,41.7-9.3,63-11.4c3.1-0.3,6.3-1.1,9.1-2.4
							c20.3-9.6,41.8-13.8,63.6-17c5.6-0.8,11.3-1.4,16.6-3.2c48-16.8,97.6-23.7,147.2-31.2c10.5-1.6,21.3-2.8,31.5-5.7
							c33.2-9.5,67.4-15.1,99.8-27.5c17.4-6.7,36.1-6.4,53-13.1c39.5-15.8,80.7-24.6,121.7-33c51.6-10.5,102.3-26.5,154.4-34.1
							c5.5-0.8,10.9-2.9,16.3-4.4c22.9-6.6,44.6-17.6,68.4-21.2C842.8,474.1,833.7,479.1,826.4,479.6z"/>
						<path class="st4" d="M3107.1,14.1c3.5,2.3,6.4,5.3,8.8,9.1c6.7,11,13.8,9.3,23,5.8c12.7-4.7,25.2-10.2,37.9-15H3107.1z"/>
						<path class="st4" d="M2928.3,14.1l-539.2,88.6c-28.4,7.2-56.7,15.5-85.9,17c-14.5,0.7-28.9,2.4-43.3,4.2l-172.8,28.4
							c-0.4,0.1-0.7,0.2-1.1,0.4c-25.7,9.3-52.5,11.5-79.5,13.8c-3.3,0.3-6.7,0.5-10,0.7l-88,14.5c-20.3,4.7-40.6,8.8-60.9,13.6
							c-50.2,11.8-101.4,19.9-150.8,34.1c-84,24.1-169.4,37.5-254.4,54.7c-27.2,5.5-54.2,11.6-80.7,19.4
							c-56.5,16.6-114.4,24.8-171.6,35.8c-43.7,8.4-87.9,14.4-130.5,28c-54.9,17.5-111.2,28.1-167,40.4
							c-57.2,12.5-114,26.1-170.4,42.3c-47.3,13.6-94.9,28-143.5,31.3c-45.1,3.1-87.7,16.4-130.4,29.1
							c-53.4,15.9-106.9,29.1-162.2,32.5c-20,1.2-39.9,4.3-59.3,10.6c-50,16.3-101.9,22.6-152.7,34.4c-12.9,3-26.1,1.5-39.2,4.3
							c-10.9,2.3-21.8,4.6-32.6,6.8V650c46.5-8.2,93-17.3,138.2-30.3c47.1-13.5,95.3-15,142.1-28.1c19.3-5.4,38.7-12.1,58.8-13.7
							c48.3-3.7,95.1-17.4,142.2-28.5c23.8-5.6,48.3-8.5,71.7-16.8c43.6-15.4,88.1-27.1,133.5-34.1c26.2-4.1,51.8-10.4,76.7-20.1
							c25.1-9.7,51.2-13.7,77.5-14.9c17-0.8,33.4-4.5,50.1-8.1c40.6-8.7,80.5-19.4,120.4-31.9c50.6-15.9,103.3-22.3,155.4-30.2
							c32.4-4.9,63.6-14.4,95.1-24c38.6-11.8,76.9-27.3,116.5-32.6c102.9-13.8,202.7-45,304.6-64c0.9-0.2,1.4-0.1,1.5,0.2
							c0,0,0,0,0,0c-7.4,0.4-13.6,3.8-20.2,5.8c-57.9,17.8-115.9,40.1-174.8,48.5c-124.8,17.9-244,63.8-368.4,82
							c-20.9,3-41.9,8.4-62.7,13.5c-25.6,6.2-51.9,10.5-76.2,22.1c-5.9,2.8-14,3.6-14.5,12.8c33.2-2.4,65.2-13,97.6-20.5
							c23.7-5.5,46.8-14.6,71-18.4c49.5-7.7,99.1-14.9,147.9-27.9c5.5-1.5,11.1-2.4,16.3-4.6c42-18,86.2-28.9,130.1-37.1
							c56.7-10.6,112.8-25.7,170-32.7c25-3.1,49.1-10.7,73.3-17.1c24.2-6.5,47.9-15.1,72.9-18.3c8.1-1,16.1-2.5,24.1-4.4
							c44.5-10.7,88.8-22.4,133.5-32c32.6-7,65.6-11.2,98.4-16.7c10.5,2.1,20.9,2.5,31,1.9c-1.1,0.1-2.3,0.3-3.4,0.4
							c-8.4,0.9-16,2.2-22.6,8c-9.1,2.2-18.3,3.8-27.4,6.6c-24.5,7.8-49.1,15.9-74.2,20.6c-43.9,8.2-86.5,20.3-127.4,39.3
							c-6.3,2.9-12.7,5.8-19.3,7.7c-53.1,15.2-106.2,30.4-160.8,37.7c-24.3,3.2-47.7,10.8-71.3,16.9c-19.1,4.9-38.9,9-56.5,19.5
							c4.5,9.8,12.5,4.4,19.4,3.4c36.7-5.7,72.3-19.3,108.6-23.7c48.2-5.8,96.2-13,142.4-27.2c91.5-28.1,186.5-35.2,277.9-62.8
							c64-19.3,129.6-32,193.9-49.8c61.9-17.1,124.2-32.6,186.2-49.4c74.1-20.1,147.6-42.8,222.9-58.6c62-13,123.3-31.5,183.4-53.6
							c14.2-5.2,28.7-10.5,43.8-11.3c37.4-2,74.8-7.6,112.3-7.2c12.8,0.2,25.7,0.1,37.9-5.6c1.2-6.8,7.2-8.5,12.2-10.7
							c14.3-6.3,28.7-11.8,43.7-15.8H2928.3z M2066.2,225c25.8-5.8,50.8-15.3,75.9-18.9C2117.8,213.5,2092.3,220.2,2066.2,225z"/>
						<path class="st4" d="M1473.1,386.2c1.1,0.4,2.4,1.5,3.3,1.2c24.3-7,49.5-8.2,73.7-14.7c22.5-6,44.6-12.2,67.8-15
							c29.1-3.4,58.1-9.5,87.1-15.7c65.7-14.2,129.9-37.4,196.8-44.3c46.6-4.8,90.9-19.9,135.6-32.3c62-17.2,124.5-31.3,186.9-46.5
							c11.6-2.8,23-6.3,34.2-10.7c26.7-10.4,55.3-12,82.4-20.3c57.2-17.7,115.8-29.7,172.7-48.8c16.7-5.6,33.9-9.7,51.1-13.1
							c39.4-7.9,78.8-16.3,117.4-28.1c36.7-11.3,74.3-19.5,110.2-34.1c25.4-10.3,51.8-14.7,78.9-17.5c43.6-4.5,87-6,130.5-5.6
							c3.9,5.1-1.6,4.1-3.5,4.9c-36.7,15.7-75.5,20.6-114.2,25.9c-31.3,2.4-61,12-90.3,23.7c-57.5,23-116.5,39.9-176.7,53
							c-66.6,14.5-133.4,28.5-199.6,45.4c-29.5,3.6-56.7,16.6-85.4,23.6c-65.9,16.1-130.6,37.5-196.7,52.6
							c-47.7,10.9-95.1,24.1-142.5,36.4c-6.7,1.7-13.1,4.7-19.6,7c-15,8.8-31,13.9-48.1,16.1c-71,8.9-139.8,30.4-209.9,44.7
							c-35,7.2-70.1,12.5-105.9,15c-39.7,2.8-79.1,13.1-118.7,19.1c-12.4,1.9-24.8,4.1-37.3,2.3c-15.4-2.2-16.5-6.4-5.5-19.9
							C1456.4,389,1464.8,387.6,1473.1,386.2L1473.1,386.2z"/>
						<path class="st4" d="M1899.2,326.3L1899.2,326.3c-22.2,4.2-44.7,7.6-66.6,13.5c-61.6,16.5-123.5,30.2-186.3,39.8
							c-21.7,3.3-43.6,0.1-65.2,6.8c-33.9,10.5-69.3,10.6-103.8,17.8c-7.3,1.5-15,0.9-22.4,0.9c-14.1-0.1-14.1-0.2-7-14.6
							c-31.6,4.5-62.5,11.8-93.2,21.7c-18.4,5.9-37,13.6-56.5,13.3c-13.2-0.2-26,1.8-39,3.9c-2.2,10.4-10.6,13-19.2,16
							c-31.6,11.2-63.8,18.9-96.2,26.8c-54.3,13.3-110.4,18.5-162.8,40.9c-1.7,0.7-3.7,1.1-5.5,1.1c-37.1-0.8-71.4,13.9-106.3,24.3
							c-62.2,18.6-123.4,41.5-188.3,47.7c-6.2,0.6-12.2,3-18.3,4.6c-69.5,18.4-137.6,42.2-206.8,61.8
							c-107.1,30.4-214.7,58.5-321.3,90.9c-36.7,11.2-74.3,17.4-111.3,27.8c-7,2-14,3.9-21,5.8v102c24.3-7,48.4-15.2,72.5-23.1
							c26.9-8.8,55-12.3,81.5-23.6c12.6-5.3,26-9.4,39.8-11.8c17.2-3,34.7-6.5,51.3-12.3c52.5-18.2,106.5-29.7,159.9-43.9
							c17.1-4.5,33.4-11.4,50.3-16.1c32.8-9,64.7-20.5,96.5-32.7c24.1-9.3,48.4-19.5,73.4-24.4c35.9-7.1,70.7-17.1,105.2-29.4
							c50.4-18.1,101.4-34.1,152-51.5c25-8.6,50.1-16.9,75.6-23.2c7.2-0.5,14.7,0.5,20.9-4.8c5.2-4.6,11.8-4.2,17.8-5.3
							c14.2-2.7,28.6-4.5,42.6-7.8c36.6-8.7,72.5-20.5,109.1-29.3c26.1-6.3,52.1-13.4,77.1-24.7c31.1-14,62.8-26.2,97.1-29.8
							c31.1-3.3,61.5-11.7,91.2-22.6c18.4-6.7,36.7-13.5,56-16.2c20.6-2.9,40.1-9.8,59.9-16.4c31.1-10.3,62.1-20.9,94.8-24.4
							c14.9-1.6,29.8-4.8,44.7-6.8c28.7-3.9,56.4-12.1,83.8-21.9c38.1-13.6,76.7-24.7,116.6-30.2c18.6-2.6,37.3-5.4,55.7-9.5
							c17-3.8,34.6-7.7,45.4-24.3C1948.6,317.5,1923.9,321.7,1899.2,326.3z"/>
						<path class="st4" d="M1620.5,280.3L1620.5,280.3c-30.7,6.3-61.7,12.7-91.7,22c-23.1,7.2-46.3,11.6-69.7,16.2
							c-22.9,4.5-45.9,4.5-68.8,9.6c-28.3,6.3-55.7,15.9-83.6,23.3c-18.9,4.9-38,8.5-56.3,16.1c-16.4,6.8-33.4,11.5-50.8,14.5
							c-45.2,7.8-90.6,14.6-135.4,24.5c-27.4,6-55.8,8.3-82,21.2c-17.1,8.4-35.8,11.9-54.5,14.8c-14.2,2.2-28.3,5.3-42.4,9.1
							c-12.7,3.4-25.7,5.8-38.9,6.4c-30.1,1.2-59.7,5.8-88.4,17c-12.9,5.1-25.8,10.8-39.7,12.1c-38.2,3.6-75.1,14.4-112.3,23.7
							c-33.5,8.4-65.7,22.7-100.4,26.3c-2.5,0.3-4.9,1.2-7.3,1.9c-49.8,13.4-99.6,26.5-150.8,32.4c-14.3,1.6-28.3,5.2-42.4,8.5
							c-25.7,6-51,15.3-77.4,16.2c-13.8,0.5-27.9,0.8-40.9,5.1c-28.8,9.5-58.4,14.5-87.6,21.6c-27.5,6.7-54.6,14.9-82.8,17.6
							c-4.6,0.4-9.2,0.9-13.8,1.8v12.4c12.9-2,25.8-2.5,38.8-2.2c11.4,0.3,22.7-0.8,33.5-4.1c21.3-6.5,42.9-9.5,64.7-12.3
							c6.7-0.9,13.3-3.6,20-5.6c19.3-6,38.5-12.9,58.7-13.3c18.3-0.4,35.9-4.3,53.6-8.9c24.3-6.4,49-11.6,73.5-16.9
							c11-2.4,22.4-1.5,33.6-3.9c53.4-11.5,106.6-24.4,160.4-33.7c7.4-1.3,14.8-3.1,22-5.2c49-14.2,98-28.1,148.3-35.5
							c22.6-3.3,44.1-9.4,65.8-16.7c23.2-7.8,47.2-12.8,71.7-11.4c8-1.5,16-2.7,24-4.5c33-7.5,66-15.1,99-22.7
							c13.7-8.2,28.7-14,43.6-17.9c39-10.1,78.3-19.1,117.8-26.5c46.3-8.7,92.9-14.8,137.9-31c27.9-10.1,57.6-12.9,85.8-22.2
							c27-8.9,55-12.6,83.1-16.2c24.2-3.1,48.9-5.4,72.2-13.6c37-13,75.1-21.2,112.6-32.1c25.8-7.5,51.9-13.9,77.9-31.1
							C1671.9,271.6,1646,275,1620.5,280.3z"/>
					</g>
					<path class="st26" d="M2005,227.7c12.3-3.5,24.7-1.7,37.1-2.6c20.7-1.5,40.2-9.1,59.9-15.4c19.7-6.3,39.9-8,63.1-11.4
						c-17.8,15.3-60.9,25.9-155.1,39.8C2013.8,231.7,2007.5,230.7,2005,227.7L2005,227.7z"/>
					<path class="st4" d="M2169.6,138.7L2169.6,138.7L1396,265.8c-16.4,5.1-32.9,9.4-49.4,13.1c-45.9,10.2-92.9,14.2-138.4,27.1
						c-14.2,4-28.5,0.6-42.8,3.2c-25.4,4.5-50.8,8.4-76.2,12.7c-5.5,0.9-11,2.3-16.4,4c-29.3,9.2-58.3,20-88.7,24.6
						c-8.6,1.3-17,4-25.4,6.5c-19.3,5.6-39.2,9-59.2,9.5c-30.7,0.8-61,6.8-90.8,14.1c-17.2,4.2-33.7,8.2-51.4,8.2
						c-16.7,0-33.6,3.4-50,8.2c-19.8,5.9-39.4,12.9-59.8,16.2c-26,4.3-52.1,8.4-78.1,12.8c-22.2,3.7-44.5,6.4-66.1,14.5
						c-7.6,2.8-14.8,6.7-23.2,7.8c-37.8,5-75.1,15-113.3,15.2c0.8,9.5,11,10.4,15.2,16.7c-5.2-0.8-9.9-3.7-15.2-4.3
						c-20.7-2.5-41.2-8.7-62.7-2.6c-0.1,4.1-1.7,6.8-6,8.4c-36.6,13.7-74.4,15.7-112.2,16.6c-10.8,0.2-20.8,1.7-31,5.5
						c-29.4,10.8-57.9,23.6-89.5,28c-20.9,2.9-42,3.1-62.9,6.3V605c31.3-5.7,62.5-11.1,94-15.1c24.1-3,47.2-13.5,71.6-15.9
						c20.7-2.1,40.3-9.2,60.2-15.4c19.4-6,39.3-10.3,59.2-10.6c14.5-0.2,28.6-1.5,42.8-3.8c24.8-3.9,49.2-10.1,73.7-15.2
						c27.2-5.6,52.5-17.6,79.6-23.2c23.2-4.7,45.8-13.3,69.4-17c11.2-1.8,22.3,0.1,33.6-2c21.6-4,43-9.3,64.5-13.3
						c33.5-6.3,65.9-16.3,98.5-25.5c48.5-13.7,97-26.7,146.6-34.7c5.6-0.9,11.2-2,16.5-3.9c18.5-6.4,38.1-7.6,56.6-13.2
						c20.6-6.2,41.8-7.7,62.2-14.8c22-7.6,44.3-15.4,67-19.3c31.4-5.4,61.9-17.6,94.1-16.6c3,0.1,6.3-0.5,9.2-1.6
						c20.9-8,43-9.2,64.5-13.3c15.4-3,31-5.2,46.3-9c35.3-8.8,70.1-21.2,105.7-26.9c57.1-9.1,112.9-25.7,170.2-32.6
						c23.8-2.9,46.7-9.9,69.7-16.3c25.4-7.1,50.4-15.8,76.6-19.2c8.1-1,16.4-1.8,24.1-4.4c28.2-9.5,57.5-13.1,86.1-20.3
						c28-7,56.5-12.4,84.4-19.5c30.9-7.9,61.7-8.6,92.6-11.1c18.6-1.5,37.2-4.1,55.4-10.2c16.1-5.4,32.2-11,49-13.5
						c16.1-2.4,32.1-5.8,48.2-8.7C2173.1,138.8,2171.4,138.7,2169.6,138.7z"/>
					<path class="st27" d="M498.3,413.3c6.4,1.1,13,2,19.6,2.4c4.2,0.3,9-0.4,11-5.5c0.3-0.7,0.4-1.4,0.5-2.1L498.3,413.3z"/>
					<path class="st28" d="M639.1,400c7.9-11.7,17.6-12.1,27.4-11.8c2.6,0.1,5,1.8,5.3,4.1c0.4,2.3-1.7,4.7-4.2,5.4
						C659,399.9,650.4,403.9,639.1,400L639.1,400z"/>
					<path class="st29" d="M187.7,464.4c-0.4,0.6-0.7,1.4-0.9,2.4c-0.6,4,2.8,5.3,5.7,5.5c11.8,0.8,23.1-3.7,34.3-6.8
						c-10.8-0.1-21.1,0.3-31.1-2.4L187.7,464.4L187.7,464.4z"/>
					<path class="st30" d="M109.9,496.8c-0.5,4.8-4.4,6.3-7.8,7.1c-4.5,1-4.4-3.1-4.4-5.9c-0.1-4.2,2.2-7.2,6.8-7.1
						C108,491,109.8,493.4,109.9,496.8L109.9,496.8z"/>
					<path class="st4" d="M292.4,471.8c4.2-1.2,8.2-1.6,11.6,1.4C299.9,474.5,295.8,475.5,292.4,471.8z"/>
					<path class="st31" d="M762,1178.3c0.3,2.8,0.7,5.6,1.2,8.4c10-4.6,20-9.3,30-14c-0.9-4.7-2.5-9.2-6.2-13.1
						c-20.5,7.8-42,10-63.2,13.8c-5.3,0.9-11.4,0.3-14.8,6.3c14-2.4,28-4.9,42-7.3C756.4,1171.4,761.4,1171.9,762,1178.3L762,1178.3
						z"/>
					<path class="st32" d="M947.7,1050.3c15.8-0.9,31.5-2,47-6.8c29.4-9.1,58.9-16.5,89.1-14c36-17.3,72.2-34.5,108.4-51.6
						c-7.2,0.2-14.3,1.2-21.3,3.5c-13.3,4.4-26.1,9-39.9,9.5c-1.3,0-1.9,0.4-1.6,0.9c1.1,2.2-2.3-0.7-0.4-0.9
						c13-3.5,23.2-11.1,33.8-18c17-10.9,35.2-18.3,55.1-15.5c6.2,0.9,12,0.9,17.6,0.1c13.3-6.2,26.5-12.4,39.8-18.5
						c1.5-1.2,2.9-2.4,4.3-3.6c6.2-5.4,12.1-11.1,20.5-13.1c15.1-3.6,28.7-11.8,43.4-16.7c10.7-7.9,22.2-13.5,34.8-17.9
						c10.8-3.8,23.1-6.3,29.7-17.9c-2.4-10.7-10.4-11.7-18.6-8c-9.4,4.3-18.9,6.4-28.7,7.8c-4.5,0.7-9,2.1-11.8,5.4
						c-14.8,17.7-36.7,18.1-55.8,23.8c-16,4.8-26.7,11.5-29.9,28.2c-12.9,5.8-26.4,9.9-39.9,13.8c-15.6-1.3-30.6,0.2-45.7,6.7
						c-12,5.2-24.5,10.4-37.9,10.9c-7.2,0.3-13.3,3.7-18.8,8.2c-7.7,6.3-16.3,10.1-26,10.3c-21.9,0.4-40.4,13.7-61.2,18.2
						c-2.7,0.6-5.9,3.1-7.3,5.6c-6.3,10.6-16,13.4-27.1,14.6c-9.3,1-18.6,3.5-27.9,4.4c-14.8,1.3-24.1,10.1-31.6,21.8
						C935,1048.9,935.7,1049.5,947.7,1050.3L947.7,1050.3z"/>
					<path class="st33" d="M376.7,827.3c-9.4-2.2-17.2-1.6-23-6.7c-3.5-3.1-5.4-6.7-2.3-11.2c3.3-4.9,8.3-6.3,12.9-3.2
						C371,810.5,375,817,376.7,827.3L376.7,827.3z"/>
					<path class="st34" d="M674.1,710.7c1.1,6-3.5,13.4-9.2,14c-6.3,0.6-10.3-2.8-11.8-8.6c-1.7-6.3,2.7-12.5,9-13.6
						C667.9,701.5,673,705,674.1,710.7L674.1,710.7z"/>
					<path class="st35" d="M960.6,587.1c6.1-6.4,13.3-6.8,20.9-4.8c3.7,3.8,8.3,6.9,10.7,13.3c-7.5,0.6-14.4-1.8-21.6,0.2
						C963.5,597.8,960.3,594,960.6,587.1L960.6,587.1z"/>
					<path class="st36" d="M1021.9,710.1c-5.3,3.8-11.1,0.4-16.5,2.2c-3.2,1.1-7.4,4.7-9.8,0.1c-2.1-4,0.3-8.4,3.1-11.9
						c3.1-3.9,7.2-5.5,11.6-3.2C1015.6,700.1,1020.5,703.5,1021.9,710.1L1021.9,710.1z"/>
					<path class="st37" d="M673,839.2c-7.6,3.9-14.5,2.7-21,4c-3.2,0.6-6.3,0-7.2-3.5c-0.8-3.1,0.7-6,2.9-8.3
						C654.7,823.9,661.9,825.9,673,839.2L673,839.2z"/>
					<path class="st38" d="M1588.2,486c-7.2-0.4-14-2.6-20.1,1.6c-2.2,1.5-4.5,2.7-5.9-0.5c-0.6-1.5-0.9-3.7-0.3-5.2
						c2.2-5.4,5.7-10.5,12-10.4C1582,471.7,1587.5,475.6,1588.2,486L1588.2,486z"/>
					<path class="st39" d="M1203.9,613.1c-5.2,3-10.1,3.6-14.8,3.4c-4.9-0.2-7.6-3.3-6.7-8.4c1-5.2,4.9-7,9.5-6.3
						C1197.5,602.8,1201.3,606.4,1203.9,613.1L1203.9,613.1z"/>
					<path class="st40" d="M68.7,1068.5c6.5-1.4,14.2,3.6,15.5,9.8c0.6,3-1.2,4.9-3.9,4.8c-5.6-0.3-10.1-3.3-14.4-6.6
						c-1.4-1.1-2.3-2.9-0.9-4.6C66.1,1070.4,67.7,1069.4,68.7,1068.5L68.7,1068.5z"/>
					<path class="st41" d="M1830.6,393.4c-5.5,3.8-10.8,2-15.8,0c-3-1.2-4.1-4.5-2.7-7.7c1.5-3.3,4.7-4.3,7.8-3.2
						C1825.1,384.3,1829.9,386.8,1830.6,393.4L1830.6,393.4z"/>
					<path class="st42" d="M2332.5,424.8c-14.6,13.6-32.8,21.6-50.4,29.3c-26.1,11.4-51.3,24.6-76.8,37.3
						c-13.1,6.5-26.5,11.8-41,13.7c-21.4,2.9-41.3,12.1-60.4,21.2c-26.4,12.7-54.4,19.9-80.6,32.4c-6.3,3-13.2,5-18.7,9
						c-18.8,13.8-40.3,21.8-61.6,28.7c-23.6,7.7-45.5,18.4-67.4,29.5c-10.9,5.5-22,10.1-34,10.6c-10.4,0.5-18.6,7.9-28.7,8.6
						c15.5-17.5,35.2-27.6,56.6-36.3c58-23.6,117.6-42.3,175.9-64.9c58.4-22.6,115.7-47.9,172.8-73.7
						C2255.6,453.3,2293.3,437.1,2332.5,424.8L2332.5,424.8z"/>
					<path class="st43" d="M2925.8,185.1c-11,10.1-26,7.1-38.4,13.5c-25.6,13.2-55,18.2-77.2,39.1c-7.6,7.1-18.3,9.3-27.8,11.5
						c-13.3,3.1-24.1,10.8-36.3,15.5c-36.4,14-69.1,36.9-107.4,46.2c-5.4,1.3-10.5,4.1-15.7,6.1c2.8-7,8.9-12.1,11.1-19.6
						c2.6-9.1,11.6-11.3,19-14.3c32.1-13,64.1-26.3,96.6-37.9c43.9-15.5,86.9-33.5,130.2-50.5C2895,189,2910.4,187.2,2925.8,185.1
						L2925.8,185.1z"/>
					<path class="st42" d="M1798.5,651.6c-4.3,6.2-11.5,7.4-17.5,10.5c-6.7,3.5-14.6,5.6-20.2,10.4c-16.4,14.3-35.7,18.2-55.8,20.6
						c-1.3-0.6-1.8-1.4-1.5-2.3c0.3-0.9,0.7-1.4,1.1-1.4c0.8-0.6,1.7-0.9,2.7-0.7c4.5-3.9,11.6-0.8,15.6-6.2
						C1747.6,671,1772.4,659.7,1798.5,651.6L1798.5,651.6z"/>
					<path class="st44" d="M1704.5,689.4c0.2,1.3,0.3,2.5,0.5,3.7c-22.7,8.7-45.2,17.6-66,30.6c-8.7,5.5-18.6,6.7-28.5,7.2
						C1640.1,712.8,1671.8,699.8,1704.5,689.4L1704.5,689.4z"/>
					<path class="st43" d="M2950.9,170c-7,7.2-14.5,13.5-24.9,14.9C2932.7,177,2940.3,171,2950.9,170z"/>
					<path class="st43" d="M2580.3,339.3c-4.6,5.8-10.1,10-17.7,10.4C2567.2,343.8,2572.7,339.7,2580.3,339.3z"/>
					<path class="st43" d="M2623,317.2c-3.1,5.9-8.6,6.1-14.1,6.3C2612.2,318,2617.8,317.9,2623,317.2z"/>
					<path class="st44" d="M1722.8,682.5c-3.6,6.5-9.9,5.4-15.6,6.2C1711.5,684.2,1717.1,683.3,1722.8,682.5z"/>
					<path class="st42" d="M1812.8,645.3c-3.1,6.1-8.8,5.9-14.2,6.2C1802.1,646.6,1807.4,645.7,1812.8,645.3z"/>
					<path class="st43" d="M2597.8,328.8c-2,4.7-5.8,5.9-10.4,5.8C2589.6,330.2,2593.4,328.9,2597.8,328.8z"/>
					<path class="st43" d="M2608.8,323.5c-2.4,4.4-6.5,5.1-10.9,5.1C2600.3,324,2604.3,323.3,2608.8,323.5z"/>
					<path class="st42" d="M2354.3,414.3c-2.5,4.6-6.6,5.2-11.1,5C2345.9,415,2349.8,414,2354.3,414.3z"/>
					<path class="st42" d="M2343.2,419.3c-2.1,4.9-6.2,5.7-10.7,5.5C2334.9,420.5,2338.8,419.3,2343.2,419.3z"/>
					<path class="st45" d="M1263.1,927.2c-10.7,13.1-24.1,17.5-39.9,13.8c9.5-13.7,23.5-16.5,38.4-16.9
						C1262.1,924.1,1262.6,926.2,1263.1,927.2L1263.1,927.2z"/>
					<path class="st46" d="M694.1,1141.8c20.3-6.7,41.5-6.4,62.1-11c-3.7,5.6-9.8,5-15.1,5.9c-16,2.7-32,5.2-47.9,7.8
						C693.2,1143.5,693.6,1142.6,694.1,1141.8L694.1,1141.8z"/>
					<path class="st47" d="M518,721.6c-5.4,3.2-10.3,3.8-15.1,2.4c-4-1.2-6.1-4.2-4.2-8.4c1.3-3.1,4.2-4.9,7.6-4
						C511.1,712.9,514.9,715.6,518,721.6L518,721.6z"/>
					<path class="st48" d="M84.8,541.6c-14,4-28.1,11-44.1-2.2C58.2,536.6,72.2,527.3,84.8,541.6z"/>
					<path d="M2884.9,14.1c-225.6,38.5-451.3,76.8-677,114.5c-314,52.5-628.1,104.3-942.5,151.5c-130.9,19.7-261.7,38.4-392.5,56.6
						c-27.9,4.6-55.9,9.2-83.8,13.8c-13,2.8-25.8,5.9-38.5,9.6c-0.5,0.3-0.9,0.6-1.4,0.9c-1.1-0.3-2.2-0.5-3.3-0.8
						c-7.1-0.2-14.7,0.4-22.3,1c-94.6,15.7-189.2,31.6-283.9,47.5c-105.5,20.9-212.3,37.2-318.3,55.3c-39.5,6.7-79.1,13-118.7,19
						v34.4c30.3-5.2,60.7-10.4,90.6-11c28.9-4.6,57.7-9,86.6-13.7c90.4-14.8,180.8-29.7,271.2-44.6c9.2-5.2,19.2-8.8,29.2-10.5
						l115.3-18.9c0-0.1,0-0.2,0-0.3c38.3-6.1,73.5-12.5,109.4-17.2c66.2-8.7,133.2-16.5,198.6-28.8c65.1-12.3,128.9-21,193.1-28.4
						c42.7-4.9,85.5-11.6,127.1-20.2c39-8,78-15.2,116.8-20.1c88.8-11.1,176.2-27.4,264.5-43.3c111.5-20,223-39.2,334.5-59.4
						c104.5-18.9,210.6-33.1,315.4-53.4c82.6-15.9,165.1-27.2,248.2-39.2c203.7-29.6,407.5-62.3,611.2-94.4H2884.9z"/>
					<path class="st32" d="M171.5,467.3c-9.9,2.5-19.6,2.8-29.5,2.4c-4.5-0.2-9.2,0.3-12.5,3.1c-17.7,14.8-39.1,11.1-58.8,13.2
						c-16.5,1.7-28.2,6.4-34.4,22.3c-11.1,2.7-22.4,4.2-33.7,5.4v19.5c0.3,0,0.7,0.1,1,0.1c14.1-3.7,28.2-7.3,42.3-10.9
						c1.6-0.9,3.3-1.8,4.9-2.8c7.1-4.2,13.8-8.7,22.5-9.1c15.4-0.8,30.1-6.4,45.4-8.4c11.9-5.8,24.2-9.2,37.2-11.2
						c11.2-1.7,23.7-2,32.3-12.2C187.7,467.6,180.1,465.1,171.5,467.3z"/>
				</g>
				<polygon class="st49" points="2.5,845.1 3106.3,14.1 3089.3,14.1 2.5,808.9 				"/>
				<path class="st49" d="M2.5,774.6L3113.3,14.1h-15.6C2066,255.9,1034.2,497.7,2.5,739.5V774.6z"/>
				<path class="st50" d="M2.5,596.9L3125.2,14.1h-28C2065.7,192.1,1034.1,370,2.5,548V596.9z"/>
				<path class="st50" d="M2.5,1310.3L3155,14.1h-5C2100.8,424.6,1051.7,835.1,2.5,1245.6V1310.3z"/>
			</g>
		</g>
	</g>
</g>
<path class="st51" d="M606,1263.7c-11.2-8.1-24.8-12.5-35-22.1c-1.5-1.4-3-2.9-4.3-4.4c-7-8-8.5-13.9-4.1-17.4
	c7.1-5.7,11.3,0.7,15.6,4.6c9.1,8.5,19.6,15,30.2,21.3c6.9,4.1,8.8,2.5,8.3-5.3c-0.7-11.9-0.8-12.3,12-14c5.6-0.8,8-2.6,8.6-8.4
	c1.8-17.8,4-35.7,6.3-53.4c0.6-5.1,1.8-10.1,2.9-15.1c0.6-2.6,2.2-5.2,5-4.8c2.8,0.3,3.9,3,4.3,5.7c2.1,16.9,6.5,33.3,10.7,49.7
	c2.9,11,6.3,22.1,20.8,25.4c3.1-4.3,5.6-9.4,5.6-14.9c0-14,4.7-27.4,4-41.4c-0.2-4.5,1.2-9.1,2.4-13.6c0.8-3.1,2.8-5.6,6.4-5.6
	c3.4,0,5.5,2.4,7.2,5.1c2,3.3,1.5,7,1.6,10.5c0.1,10.8,0,21.6,0.2,32.4c0.1,3.8-0.5,8,3,12.3c5-5.4,3-11.4,4.3-16.5
	c7.2-29.5,14-59,23.8-87.8c8.3-24.3,14.9-49.3,11.5-75.6c-0.5-3.5,0.1-6.6,3.9-6.9c3.6-0.3,5.4,2.7,6,5.9c0.9,5,2,10.2,2.1,15.3
	c0.6,24,7.3,47.9,2.2,72.2c-1,5-0.6,10.3-0.6,15.4c0.1,20.1-0.3,40.1-3.3,60c-1.8,1.7-1.1,5.7-4,5.9c-3.9,0.4-4.8-3.4-5.5-6.2
	c-4-14.6-5.1-29.6-3.5-44.5c1.6-15.2,2.5-30.5,4-44.4c-4.8,28-16.2,55.9-19.1,85.7c-1.4,14.8-2.5,29.7-4.6,44.5
	c-1.1,7.9,1.5,18.2-8.3,21.5c-10.3,3.5-13-7.5-19.1-14c-4.6,8.1-10.6,14-20.1,15c-1.6,0.1-3.2-0.2-4.7-0.8
	c-19.5-15.7-24.9-38.9-30.6-59.3c3.2,15.8,6.4,33.5,4.4,51.8c-0.2,1.6-0.7,3.2-1.3,4.7c-3.4,7.9-9.6,12.5-18.1,11.9
	C626.3,1263.2,616.1,1267,606,1263.7L606,1263.7z"/>
<path class="st52" d="M1206.4,1002.3c3.7,1.6,7.4,2.3,8.4-2.8c0.8-4,0.7-8.2,0.7-12.3c0-4.8,0.9-9.2,4.7-12.6c2.4-2.1,5-4.2,8.2-2.6
	c3.6,1.8,2.2,5,1.6,8c-3.6,18.9-3.5,19.1,8.7,30c6.8-3.6,6.8-12.2,12.1-16.9c4.6-4.1,8.6-8.8,13.2-13c2.8-2.6,5.5-7,10.4-3.7
	c4.3,2.9,2.6,6.8,1.7,11.1c-3,14.3,5.5,24.1,19.8,23.7c4.3,11,10.6,13.4,21.9,7.9c13.8-6.6,23.9,3.7,34.2,10.9
	c-0.3,3.6,0.2,7.4-1,10.6c-3,7.5-10.1,10-15.8,4.5c-6.3-6.2-11.9-4.5-18.1-2c-6.7,2.6-13.1,5.8-19.6,8.8
	c-11.1,5.3-20.1,4.7-27.4-4.4c-5.9-7.3-13.8-6.5-19.5-4.6c-13.2,4.4-20.3-0.9-26-11.5c-0.7-1.2-2.3-1.9-3.4-2.7
	c-5.2,0.8-5.4,6-8.3,8.7c-3,2.7-5.6,7.6-9.6,7.3c-16.1-1.2-32.3,9.6-48.1-0.2c-4.3-2.7-8.7,1.9-11.7,0.4
	c-12.8-6.3-21.8-2.7-30.5,7.8c-3.6,4.3-10.6,2.4-16-0.2c-6.9-3.4-13.7-6.7-20.6-10c3.1-5.2,2.9-10.7,1.3-16.4
	c-0.8-3-0.7-6.5,2.4-8.2c3.2-1.8,5.8,0.7,8.4,2.2c16.4,9.7,16.5,9.7,18.2-8.7c0.6-6.7,2.2-13.2,3.4-19.8c0.6-3.4,0.8-7.9,5.6-8
	c4.2-0.1,5.9,3.6,7.3,7c3.9,9.9,7,20,11.6,30.9c4.2-6.3,2.5-11.4,1.8-16.4c-0.6-4.6-2.1-9.2-1.1-13.8c1.4-6.1,0.6-15.8,8.1-16.1
	c6.1-0.3,4.5,9,5.9,14.2c2.9,10.9,3.7,22.3,7.8,32.3c-0.5-6-6.3-12.5-0.9-19.4c11.8,0,8.6,12.4,14.5,17.4c2.1,2.7,1.5,7.9,5.8,8
	c3.5,0.1,3.8-4.2,4.8-7c2.7-7.2,4.7-14.5,6.9-21.8c1.2-3.8,2.5-8.6,7.2-8.8c4.5-0.2,4.5,4.8,5.7,7.9
	C1202.1,1000.7,1203.2,1002.8,1206.4,1002.3L1206.4,1002.3z"/>
<path class="st53" d="M1609.1,924.9c2.8-1.8,2.4-3.4,1.7-5.1c-0.7-1.9-0.4-3.6,1.5-4.4c1.8-0.7,3.9-0.3,5,1.1
	c3.3,4.1,6.8,8.2,8.6,13.4c1.2,3.4,2.7,6.7,4.4,9.7c3,5.1,5.3,5,8.3-0.3c3.5-6,8.4-7.7,14.7-4.9c3.6-1.6,3.7-5.8,5.9-8.4
	c3.3-4.1,6.9-8,11.6-1.6c3.3,4.5,5.8,2.5,8.6-0.3c11.8-12.1,12.1-12.4,16.1-36.5c0.7-4,1.7-7.8,2.9-11.6c0.6-1.9,1.6-3.3,3.7-2.9
	c1.8,0.4,3.2,1.8,3.6,3.6c1.4,6.6,1.6,13.5-0.1,20c-2.6,9.8-1.7,19.4-1.5,30.3c11.2-4.2,20.3-12.6,32.6-11c2.7,3.1-0.3,4.9-1.8,6.7
	c-7.6,9.5-18.3,15.7-27,24c-5.4,5.1-11.5,3.6-16-2.5c-2.1-2.8-0.8-7.4-5.3-8.8c-3.3,2-3.7,6-5.8,8.8c-2.5,3.3-5.5,5.9-10.1,5.7
	c-4.5-0.2-8.9-0.1-12.6,3.4c-2.5,2.3-6,2.7-8.8,1.3c-4.5-2.2-7.6-0.8-10.7,2.5c-4.2,4.5-8.6,4-12.8-0.1c-1.3-1.2-2.8-3.2-4.2-3.2
	c-16.7,0.2-24.5-13.2-34.9-22.5c-0.6-0.5-1.6-0.6-2.5-0.9c-3,3,0.3,5.6,0.7,8.4c1,7.3,0,9-8,9.5c-3.4,0.2-4.5,1.9-6.3,3.7
	c-7.8,7.9-11.2,8.3-20.7,2c-6.7-4.4-13.2-9.1-19.3-14.4c-5.4-4.7-5.9-10.4-2.3-14.1c3.5-3.6,8.6-3.1,14.1,1.8
	c3.4,2.9,6.4,6.3,9.7,9.3c4.4,4,9,2.9,13.6,0.1c4.7-2.9,1.7-6.5,0.7-9.4c-4.1-11.4-2-23.1-2.4-34.6c-0.2-6,2.1-10.9,8.3-12.1
	c5.8-1.1,7.6,4.1,9.2,8.1C1587.4,903.3,1598.9,913.6,1609.1,924.9L1609.1,924.9z"/>
<path class="st54" d="M1206.4,1002.3c-0.4,2.4,0.8,5.8-1.8,7.1c-4.3,2.1-5.1-2.4-5.9-4.7c-1.4-3.7-1.7-7.8-2.7-13.4
	c-6.6,10.7-6.8,22.2-11.5,31.9c-2.2,4.6-0.7,13.1-8.6,12.3c-8.6-0.9-5.9-9.2-6.8-14.8c-5.8-9.6,1.8-17.4,3.5-26
	c0.9-4.7,5.7-9.4,0.4-13.9c-3.4-2.9-7.7-2.1-11.6-0.3c-5.7,2.6-6.3,7.5-5,12.9c0.7,3,0.9,6,0.3,9.1c-1.3,10.9,7.3,20.1,4.4,31.5
	c-12.4-16.5-14.1-36.4-17.3-55.9c-3.9,8.5-4.9,17.3-3.2,26.2c1.2,6.1,1,12.3,0.4,18.4c-0.3,3.2-1.8,6.2-5.5,6.3
	c-3.7,0.2-5.6-2.7-5.9-5.8c-1.1-12-9-21.8-10.5-33.6c-0.2-1.2-1.7-2.2-4.2-5.3c-1,12.2-4.6,21.9-4.4,32.5c0.1,5.9,2,13-6,15.8
	c-7.3,2.6-11.3-3-15.8-7.2c-2.2-2-3.8-5-7.6-5.4c-3.1,5,1.1,8.6,2.7,12.4c3.5,8.2-0.5,10.2-7.5,10.2c-16.4-8.6-16.6-24.9-18.1-40
	c-0.7-7.3,5.3-10.9,12.6-9c6.2,1.6,10.5,6.2,15.3,10.1c7.3,6.1,9.5,5.2,11.6-4.6c0.4-2,0.3-4.1,0.4-6.2c2.2-16.1-0.3-19.4-15.5-20.5
	c-15.2-1.2-29.6,1.2-43.1,8.4c-4.5,2.4-8.9,5.4-14.3,5.3c-5.2-0.1-10.9-0.6-7.4-8.5c18.3-11.2,37.4-19.4,59.6-16.4
	c3.5,0.5,7.2,0.1,10.8,0.1c5.2,0,7.3-2.7,7.2-7.7c-0.1-5.1-0.4-10.3,0.3-15.4c0.5-4.3,3.1-8,7.6-8.7c5.1-0.7,7.1,3.6,8.3,7.5
	c2.3,7.9,4.2,15.9,6.4,23.8c2.2,8.1,5.7,15.2,13.7,18.4c4.3-2.1,3.1-5.8,4-8.5c3.3-10.2,3.2-10.3,13.8-6.3c2.1,0.8,4,0.8,5.9-0.2
	c5.8-3,10.9-0.2,16.3,1.6c11.3,3.7,14.5,2.4,18.5-9.1c3.7-10.7,6.4-21.7,9.6-32.6c0.7-2.5,1.1-5.1,2.2-7.4c1.4-3,3.9-4.9,7.4-4.1
	c3.4,0.8,5.5,3.3,5.3,6.6c-0.2,3.5-1,7.1-2.1,10.5c-3.4,10.5-4.3,21.1-2.7,32c0.5,2.7,6.7,3.8,3.2,7.1
	C1202.7,978.8,1206.8,990.9,1206.4,1002.3L1206.4,1002.3z"/>
<path class="st55" d="M683.6,1254.1c11.6-3.3,20.6-9.2,22.1-23.4c6.2,5.6,6.8,12.8,11.1,17.8c2,2.3,4.1,5,7.6,4.4
	c4.4-0.8,5.6-4.4,5.5-8.1c-0.6-12.4,2.6-24.5,3.1-36.7c1.6-39.8,14.5-77,24.9-114.7c1.1,0,2.2,0.1,3.4,0.1c0,5.7,0,11.3,0,17
	c-0.1,6.2,0.8,12.6-0.5,18.5c-4.9,22.4-3.2,44.5,1.5,66.9c1.8-1.3,3.4-2.5,4.9-3.6c0.1,5.7-0.3,11.4,0.3,17c0.4,4.3,3.6,2,5.8,1.5
	c2.9,3.1,2.3,6.8,0.9,10c-5.3,11.5-0.8,22.8,0.2,34.3c-5.4,10-15,14.1-24.5,10.2c-12.8-5.3-24.8-3-37.5-1.8
	C701.9,1264.1,689.7,1267.9,683.6,1254.1L683.6,1254.1z"/>
<path class="st56" d="M773.3,1254.1c-8.4-10.4-7.8-21.7-3.5-33.3c1.2-3.3,3.5-6.3,3.3-10.1c5.2-10.4,10.5-20.9,16.7-33.3
	c3.8,7.5,2.3,13.6,1,19.6c-0.6,2.5-1.7,6,1.2,6.7c8.3,2,12,7.9,16.2,14.5c2.5,3.8,8.1,6.6,13.3,1.8c1.5-1.4,3.4-2.3,5.1-3.3
	c3.9-2.3,7.7-2.6,11.1,1c2.8,3,3,6.1,1.4,9.8c-1.8,4.1-5.2,7.7-4.8,13.5c5.7,2.4,11.7,1.2,17.6,0.7c7.7-0.7,8.6,3.5,7.8,9.4
	c-3,2.3-2.8,5.8-3.1,9.1c-2,4.2-5.4,5.3-8.5,2c-4.5-4.6-9.8-4.6-15.5-5.1c-8.5-0.8-32.9,0.4-40,2.8c-1.4-0.1-2.8-0.3-4.1-0.6
	c-3.9-1.4-8-1.6-12-2.6C775.3,1256,774.2,1255.2,773.3,1254.1L773.3,1254.1z"/>
<path class="st57" d="M1352,1030.1c-5-0.1-10.8,1.3-14.1-3.9c-4.7-7.5-11.3-5.4-17.8-4.4c-1.5,0.2-2.8,1.2-4.2,1.8
	c-12.9,5.4-19.5,1.3-20-12.3c0.6-5.7,1.9-11.2,6.1-15.5c1.9-1.9,4.2-3.2,6.9-2c3.1,1.3,2.7,4,2.1,6.5c-0.5,2-1.5,3.9-1.9,5.9
	c-1.1,5.8,0.7,9.6,7.3,7.5c7.6-2.5,15.3-1.4,23-1.9c2-0.1,5-0.7,6,0.3c6.5,6.7,14.1,3.6,22,2.4
	C1364.7,1022.9,1355,1023.2,1352,1030.1L1352,1030.1z"/>
<path class="st58" d="M606,1263.7c10-3,20.2-5.2,30.7-3.4c8.2,1.4,11.7-4.3,15.8-9.5c5.2,6.2,5.2,12.4,0,18.6
	c-10.5,9.9-22.3,6.5-34.1,3.2C615.5,1267.9,609.1,1268.1,606,1263.7L606,1263.7z"/>
<path class="st59" d="M652.5,1269.4c0-6.2,0-12.4,0-18.6c0.1-0.9,0.2-1.9,0.3-2.8c11.2-2.6,20,6.5,30.8,6l0,0
	c9.2,6.9,19.6,8.3,30.1,4.7c7.9-2.8,16.3,0.1,24-3.4c2.5-1.1,4.6,1.1,6.8,2.5c12.3,7.9,13.7,7.8,25.1-1.2c1.2-0.9,2.5-1.7,3.8-2.5
	c1,0.1,2,0.2,3,0.2c3.7,3,8.9-0.4,12.5,2.9l0,0c3.5,3.5,9-0.7,12.5,3c-5.5,5.8-12.8,1.9-19.1,3.7c-17.4,4.9-35.3,5.8-53.3,5.8
	c-18.4,0-37-1.9-55.3,2.5C666.7,1273.9,659.1,1273.6,652.5,1269.4L652.5,1269.4z"/>
<path class="st60" d="M801.3,1260.3c-4.3-0.6-9.1,1.4-12.5-3c9.5,0.1,15.9-6.2,22.5-11.6c4-3.3,6.7-3.9,9.6,1.2
	c3.8,6.7,10.3,9,17.1,6.7c6.5-2.2,9-0.5,11,5.5c1.3,4,4.8,2.5,7.7,1c-7.1,10.5-16.6,16.5-29.8,15.8c-6.5-0.3-10.4-4-13.1-9.1
	C811,1261.5,806.9,1259.6,801.3,1260.3L801.3,1260.3z"/>
<path class="st58" d="M683.6,1254c-9.3,3.7-18.1,4.8-25.3-4.3c-1-1.2-3.6-1.2-5.5-1.7c2-19.8-5.6-39.3-2.1-61.8
	c8.5,12.4,7.7,25.8,13.5,36.8C669.9,1233.9,676,1244.4,683.6,1254L683.6,1254z"/>
<g>
	<path class="st61" d="M257.7,431.7c2.2,1,4.6,1.9,6.6,3.1c6.5,4,12.9,8,22.2,2.5c1.4-0.8,3.4-0.5,5.2-0.1
		c6.3,1.4,11.3-0.6,14.4-3.4c4.4-3.9,9.8-4.7,15.4-2.7c8.5,3.1,13.3,0.8,18.6-3.1c3.3-2.4,7.7-4.1,9.1-7.4c2.2-2,3-4.2,0.2-6
		c-3.6-2.3-6.1,0.2-9,1.2c-1.2,1.9,3.9,5.5-4.6,5.7c-0.5-3-1-6-1.5-9.1c-5.8-5.1-1.6-11.4-4.8-16.8c-1.5-2.6-0.4-7-5.8-7
		c-6.2,0.1-4,4.4-4.1,7c-0.2,4.4-2.1,8.6-2.4,12.9c-0.2,2.7-2,5.1-7.2,5.5c-4.5,0.4-6.7-1.3-8.7-3.4c-1.1-1.3-2-2.6-3.3-3.8
		c-3.8-3.3-7.4-2.8-7.9,1c-0.8,6.2-4.7-3-5.6,0.6c-0.1,1.4-0.1,2.8-0.4,4.2c-0.5,2.3-2.7,1.6-4.8,1c-3.3,1.3-2.7,3.4-3,5.3
		c-0.4,2.9-1.8,4.1-7,2.7c-14.4-4-14.7-3.8-13.2,5.8C256.6,428.9,256.9,430.3,257.7,431.7L257.7,431.7z"/>
	<path class="st62" d="M284.7,408.5c4.2,2.4,0.5,6.3,4.6,9.3c6.4-3.1,1.5-7.6,4.2-11.4c2.9,1.8,3.7,4.2,5.1,6.3
		c1.8,2.7,3.8,5.5,9.6,5.2c6.6-0.4,11.6-3.6,12.2-7.9c1-6.6,3.5-13.1,1.1-20.6c5.6,2,6.3,4.4,6.4,6.9c0.2,4.1,0.5,8.1,0.6,12.2
		c0.1,2.4,1.6,3.9,5.7,3.9c-1.1-15.4-5.1-30.4-17.4-44.3c-2,14.3,1.8,28.8-4.5,43c-6.2-1.3-7.2-4.3-9.1-6.9
		c-4.2-5.8-8.5-11.6-13.9-17c-1.5-1.5-2.8-3-4.6-4.3c-1.8-1.4-4-2.7-7.1-1.7c-2.9,1-2.9,2.9-2.3,4.6c1.5,4.2,3.3,8.5,5,12.7
		C281.9,401.7,283.3,405.1,284.7,408.5L284.7,408.5z"/>
	<path class="st61" d="M207.8,424.4c0.1,1.6,0.1,3.3,0.2,4.9c2.1,1.1,6.1,2.3,5.9,3.3c-1.2,6.9,7.6,7.5,14.1,9.6
		c3.7,1.2,7.6,2.1,11.4,3.1c2.7,0.7,6.1,1.1,7.2-0.9c2-3.8,4.8-3.5,9-1.6c2.8,1.2,5.4,0.6,7.1-1c1.7-1.6,1.2-3.3-0.7-4.8
		c-2.7-2.1-6.4-3-10.5-3.8c-5.5-1.1-12-1.1-16.1-4.3C226.5,426.7,218.3,422.8,207.8,424.4L207.8,424.4z"/>
	<path class="st63" d="M257.7,431.7c4.9-3.6,2.1-7.4,0.1-11.1c5.6-0.9,7.2,1.7,10,2.9c2.6,1.1,4.8,2.9,8.4,1.6
		c3.1-1.2,3.6-3.2,3.4-5.3c-0.1-2-0.1-4-0.2-6c-1-3.2-3.3-5.8-8.5-8.2c-2.2,5.2,5.1,9.3,1.3,13.9c-7.1-1.2-12.5-4.4-18.5-6.8
		c-3.6-1.5-7.6-5-11.7-3c-5.2,2.5,0.9,5.6,1.9,8.5c-0.3,3.4,0.2,6.6,5.7,8.4C252.7,428,253.1,431.1,257.7,431.7L257.7,431.7z"/>
	<path class="st61" d="M351.6,420.6c4.9,1.7,2.2,5.3,4.8,8.2c12.7-2.9,20.8-9.5,31.4-14c3.9-1.4,5.4-3.8,6.7-6.3
		c0.7-1.4,0.9-2.9-1.3-3.9c-2.1-0.9-4.4-0.6-6.4,0.2c-6.3,2.5-10.6,6.3-16.3,9.2c-3.8,2-6.8,6-13.6,3.1
		C352.4,416.6,351,418,351.6,420.6L351.6,420.6z"/>
	<path class="st64" d="M351.6,420.6c1.3-1.4,3-2.6,5.4-3.4c1.8-5.3,7.3-9.9,8.5-15.4c0.4-2,1.5-3.9,0.6-5.9
		c-1.2-2.7-5.1-3.3-8.4-1.3c-3,1.8-4.4,4.3-6,6.7c-3.4,5-6.5,10-11.2,14.6c5.3-0.6,8.2,1,8.8,4.8C350,420.7,350.8,420.7,351.6,420.6
		L351.6,420.6z"/>
	<path class="st65" d="M412.1,422.6c-1.5-3.4-6.3-2.8-10.3-3.4c-10,0.7-18.1,4.2-25.7,7.8c-8.2,3.9-17,6.8-26.7,8.7
		c-13.3,2.6-24.5,7.6-37.1,12.6c5.7,2.2,9.3-1.1,13.3-0.8c2-1.8,5.4-2.2,8.3-2.9c19.5-5,39.1-10,57.3-16.8c2.3-0.8,5.2-1,7.9-1.4
		C403.1,424.7,409.6,426.3,412.1,422.6L412.1,422.6z"/>
</g>
</svg>
