<?xml version="1.0" encoding="UTF-8"?>
<svg id="b" data-name="Layer 2" xmlns="http://www.w3.org/2000/svg" width="680.154" height="252.006" viewBox="0 0 680.154 252.006">
  <defs>
    <style>
      .d {
        fill: #fff;
        opacity: .2;
      }

      .d, .e, .f {
        stroke-width: 0px;
      }

      .f {
        fill: #e9e7d2;
      }
    </style>
  </defs>
  <g id="c" data-name="b">
    <g>
      <path class="f" d="m28.707,247.507c-7.222,0-13.779-6.037-14.928-13.743-4.221-28.691-5.527-58.188-6.791-86.713-.49-11.075-.998-22.527-1.668-33.791-1.487-25.361-.642-51.04.175-75.872.112-3.406.224-6.812.331-10.22.088-2.529.999-5.045,1.962-7.708.745-2.061,1.513-4.184,1.996-6.517.024-.01.048-.02.072-.029.451-.182,1.012-.408,1.589-.716,8.354-4.454,19.458-4.8,22.662-4.8.847,0,1.35.021,1.404.024l.217.005c6.029,0,12.25-.044,18.687-.09,6.884-.049,14.003-.1,21.395-.1,8.912,0,16.913.077,24.462.234,5.928.124,10.218.269,12.751.434l.145.009,8.162-.003c12.989,0,25.697.077,38.37,1.004,9.165.692,19.166,1.028,30.565,1.028,10.071,0,20.272-.256,30.138-.504,6.194-.156,12.6-.317,18.895-.412.768-.011,1.537-.017,2.306-.017,8.42,0,17.057.668,25.41,1.314,8.544.661,17.38,1.345,26.191,1.345,2.346,0,4.642-.049,6.825-.146,3.596-.15,7.284-.238,10.85-.324,8.302-.198,16.886-.404,25.377-1.403,3.316-.389,6.866-.578,10.851-.578,5.216,0,10.59.329,15.787.646,5.332.326,10.845.663,16.336.663,11.904,0,23.97-.883,35.639-1.737,2.66-.195,5.318-.39,7.973-.574,7.079-.492,13.22-.721,19.326-.721,4.953,0,9.396.142,14.542.307,6.177.197,13.179.421,22.493.421,3.521,0,7.223-.032,11.004-.097,8.398-.144,16.899-.381,25.265-.708l5.56-.217-.166-.649c1.046-.12,2.085-.242,3.111-.362,6.425-.755,12.494-1.468,18.609-1.468,0,0,3.165.011,4.336.011,6.199,0,12.492-.06,18.577-.117,6.065-.057,12.338-.117,18.496-.117,14.609,0,25.774.344,36.203,1.115,4.235.315,8.841.462,14.495.462,3.189,0,6.422-.045,9.549-.089,1.578-.022,3.157-.044,4.735-.061l.536-.004c7.093,0,13.923,1.87,20.247,3.891,1.369.43,2.254,1.104,2.502,3.155.15,1.203.32,2.389.491,3.576.613,4.272,1.192,8.309.71,12.234-.546,4.804-.531,9.54-.433,13.948.093,8.558.275,17.312.452,25.776.392,18.777.797,38.192.249,57.194-.363,12.518.289,25.077.92,37.223.422,8.128.858,16.534.979,24.773.108,8.014-.155,15.888-.396,21.852-.106,2.789.017,5.507.135,8.136.229,5.045.444,9.81-.949,14.454-1.947,6.662-4.364,8.046-7.882,8.197l-5.518.206c-9.202.348-18.718.707-28.056.707-8.867,0-16.691-.326-23.919-.997-3.011-.266-6.196-.395-9.755-.395-4.434,0-8.903.201-13.226.395-3.806.171-7.742.347-11.574.381-.523.004-1.047.006-1.573.006-6.442,0-13.047-.312-19.435-.614-5.259-.249-10.697-.505-16.08-.592-17.254-.339-35.015-.688-52.495-.688-20.7,0-38.036.476-54.556,1.497-3.25.192-6.702.286-10.539.286-5.903,0-11.97-.227-17.836-.446-5.979-.224-12.161-.455-18.292-.455-3.397,0-6.495.069-9.47.211-4.762.224-9.9.324-16.657.324-2.73,0-5.461-.015-8.192-.03-2.747-.016-5.493-.031-8.238-.031-4.507,0-8.199.043-11.62.135-7.157.172-14.416.572-21.436.958-9.297.512-18.91,1.041-28.343,1.041-29.834,0-55.888.131-79.651.4-6.032.072-12.064.121-18.1.17-27.243.222-55.414.452-83.235,2.846-11.266.955-22.976,1.004-34.3,1.053-6.245.027-12.703.054-19.04.232-.424.018-.779.031-1.132.031-1.398,0-1.601-.226-1.797-.444-1.435-1.565-3.562-3.886-6.557-3.886-1.676,0-4.409.685-5.708,4.792-.5.056-1.001.085-1.5.085h-.001Z"/>
      <path class="e" d="m583.996,9c14.493,0,25.556.34,35.865,1.102,4.351.324,9.063.475,14.831.475,3.217,0,6.463-.046,9.602-.09,1.576-.022,3.153-.044,4.754-.061.156-.002.31-.003.465-.003,6.268,0,12.486,1.655,18.335,3.504.143,1.109.299,2.199.451,3.258.569,3.967,1.107,7.714.698,11.044l-.005.041-.005.041c-.57,5.014-.557,9.916-.456,14.467.094,8.616.276,17.365.453,25.825.391,18.719.795,38.076.25,56.963-.368,12.701.289,25.353.924,37.588.42,8.087.854,16.449.973,24.594.107,7.92-.154,15.711-.394,21.637-.113,2.964.015,5.777.138,8.497.22,4.854.409,9.046-.765,12.958l-.009.031-.009.031c-1.403,4.8-2.378,4.874-3.719,4.932-1.842.067-3.685.136-5.529.206-9.158.346-18.628.703-27.878.703-8.727,0-16.415-.32-23.542-.981-3.125-.276-6.44-.411-10.134-.411-4.534,0-9.056.203-13.428.399-3.939.177-7.66.344-11.404.377-.514.004-1.026.006-1.54.006-6.336,0-12.886-.309-19.221-.609-5.294-.25-10.768-.509-16.19-.596h-.079c-17.203-.34-34.993-.689-52.522-.689-20.795,0-38.218.478-54.808,1.504-3.173.188-6.538.279-10.287.279-5.819,0-11.842-.225-17.667-.443-6.02-.225-12.245-.458-18.46-.458-3.471,0-6.638.071-9.677.216-4.693.221-9.766.319-16.449.319-2.722,0-5.445-.015-8.168-.031-2.755-.016-5.51-.031-8.264-.031-4.548,0-8.278.043-11.714.135-7.24.174-14.534.576-21.588.964-9.236.508-18.786,1.033-28.095,1.033-29.837,0-55.907.131-79.707.401-6.021.072-12.155.122-18.088.17-27.327.223-55.584.454-83.565,2.861-11.092.94-22.71.99-33.946,1.038-6.271.027-12.756.054-19.146.234l-.069.002-.069.003c-.104.005-.207.009-.31.013-1.832-1.881-4.736-4.318-8.912-4.318-1.14,0-5.684.296-8.542,4.776-4.502-.682-8.389-4.743-9.141-9.788-4.189-28.472-5.49-57.851-6.748-86.264-.491-11.093-.999-22.563-1.671-33.853-1.475-25.162-.633-50.738.18-75.472.112-3.406.224-6.812.329-10.186.065-1.839.821-3.931,1.697-6.353.539-1.491,1.123-3.106,1.614-4.859,7.426-3.927,17.542-4.233,20.473-4.233.741,0,1.175.018,1.178.018,0,0,0,0,0,0l.222.011h.222c6.052,0,12.206-.044,18.722-.091,6.878-.049,13.99-.1,21.367-.1,8.877,0,16.845.076,24.361.233,5.867.122,10.09.265,12.553.425l.291.019h.534l3.837-.002h3.828s.132-.001.132-.001c12.888,0,25.494.076,37.996.99,9.288.701,19.4,1.042,30.913,1.042,10.128,0,20.358-.257,30.251-.506,6.183-.155,12.577-.316,18.847-.411.747-.011,1.492-.016,2.239-.016,8.247,0,16.415.632,25.063,1.301,8.63.667,17.554,1.358,26.538,1.358,2.412,0,4.775-.051,7-.149,3.568-.149,7.235-.236,10.782-.321,8.405-.201,17.096-.409,25.791-1.432,3.143-.368,6.521-.548,10.328-.548,5.079,0,10.147.31,15.512.638,5.399.33,10.983.671,16.612.671,12.07,0,24.22-.889,35.971-1.75,2.654-.194,5.305-.388,7.953-.572,6.975-.484,13.017-.71,19.014-.71,4.881,0,9.291.141,14.398.304,6.211.198,13.251.424,22.637.424,3.544,0,7.272-.033,11.081-.098,8.436-.144,16.97-.383,25.364-.71l11.09-.433-.266-1.054c5.567-.647,10.876-1.207,16.113-1.206.25,0,.5.001.75.004h.03s.03,0,.03,0c1.177.005,2.35.007,3.528.007,6.22,0,12.523-.06,18.618-.117,6.057-.057,12.319-.116,18.457-.116h0m0-9c-12.357,0-24.717.234-37.075.234-1.165,0-2.327-.002-3.492-.007-.282-.003-.564-.004-.846-.004-9.118,0-18.236,1.531-27.354,2.405.028.1.041.196.066.295-6.724.262-15.286.536-25.166.705-3.993.068-7.612.096-10.928.096-16.785,0-25.854-.728-37.035-.728-5.604,0-11.736.183-19.638.731-14.4,1-28.9,2.3-43.3,2.3-10.708,0-21.416-1.309-32.124-1.309-3.792,0-7.584.164-11.376.609-11.9,1.4-23.9,1.2-35.9,1.7-2.21.098-4.419.141-6.625.141-17.26,0-34.399-2.658-51.602-2.659-.791,0-1.581.006-2.373.017-16.336.248-32.634.916-48.964.916-10.061,0-20.134-.254-30.236-1.016-12.814-.938-25.747-1.016-38.673-1.016-2.601,0-5.199.003-7.798.003h-.242c-2.335-.152-6.283-.303-12.948-.442-8.514-.177-16.687-.235-24.548-.235-14.323,0-27.619.19-40.09.19,0,0-.589-.029-1.621-.029-4.189,0-15.683.479-24.779,5.329-1.5.8-3.5,1-3.8,3-.9,5.4-4,10.1-4.2,15.8C.428,55.827-.872,84.527.828,113.527c2.4,40.3,2.6,80.8,8.5,120.9,1.488,9.976,9.869,17.579,19.378,17.579,1.357,0,2.736-.155,4.122-.479.5-.2,1.3-.6,1.3-1,.33-2.499.971-3.397,1.788-3.397.915,0,2.05,1.129,3.212,2.397,1.471,1.635,3.277,1.933,5.143,1.933.417,0,.837-.015,1.257-.033,17.8-.5,35.9.2,53.6-1.3,33.7-2.9,67.4-2.6,101-3,26.5-.3,53.1-.4,79.6-.4,16.7,0,33.3-1.6,49.9-2,3.826-.103,7.661-.133,11.497-.133,5.474,0,10.954.062,16.431.062,5.632,0,11.258-.065,16.872-.329,3.084-.148,6.171-.207,9.254-.207,12.074,0,24.134.901,36.127.901,3.613,0,7.218-.082,10.818-.295,18.108-1.119,36.193-1.488,54.276-1.488,17.467,0,34.932.344,52.424.688,11.862.191,23.725,1.206,35.587,1.206.538,0,1.074-.002,1.613-.006,8.265-.073,16.533-.776,24.76-.776,3.12,0,6.233.101,9.34.376,8.113.753,16.229,1.016,24.335,1.016,11.276,0,22.536-.509,33.765-.916,7-.3,10.1-4.9,12-11.4,2.4-8,.7-15.8,1-23.7.3-7.4.5-14.7.4-22.1-.3-20.6-2.5-41.1-1.9-61.8.8-27.7-.4-55.5-.7-83.2-.1-4.5-.1-8.9.4-13.3.7-5.7-.5-11.3-1.2-16.9-.4-3.3-2.1-5.8-5.6-6.9-7.018-2.242-14.131-4.104-21.617-4.104-.195,0-.388.001-.583.004-4.75.05-9.5.15-14.237.15s-9.463-.1-14.163-.45c-12.177-.9-24.356-1.127-36.533-1.127h0Z"/>
    </g>
    <path class="d" d="m670.981,181.927c-.292-19.244-2.437-38.395-1.852-57.732.78-25.877-.39-51.847-.682-77.723-.097-4.204-.097-8.314.39-12.425.682-5.325-.487-10.556-1.17-15.787-.39-3.083-2.047-5.418-5.459-6.446-7.019-2.149-14.135-3.923-21.641-3.83-9.261.093-18.522.374-27.685-.28-25.053-1.775-50.106-.747-75.158-.841-9.163-.093-18.326,1.401-27.49,2.242.027.094.04.183.064.276-6.554.245-14.901.501-24.533.658-33.475.546-39.79-1.644-65.898.094-14.037.934-28.172,2.149-42.21,2.149-14.135,0-28.27-2.242-42.405-.654-11.6,1.308-23.298,1.121-34.996,1.588-19.789.841-39.383-2.616-59.074-2.335-25.735.374-51.373,1.775-77.205-.094-15.082-1.058-30.331-.945-45.537-.946-2.276-.142-6.125-.283-12.622-.413-23.42-.468-44.18-.042-63.01-.042,0,0-14.684-.696-25.735,4.951-1.462.747-3.412.934-3.704,2.803-.877,5.044-3.899,9.435-4.094,14.76-.877,26.904-2.145,53.715-.487,80.806,2.34,37.647,2.534,75.481,8.286,112.942,1.657,10.65,12.088,18.403,22.908,15.974.487-.187,1.267-.56,1.267-.934.682-4.951,2.73-3.176,4.874-.934,1.755,1.868,3.997,1.868,6.239,1.775,17.352-.467,34.996.187,52.25-1.214,32.851-2.709,65.703-2.429,98.456-2.803,25.833-.28,51.763-.374,77.595-.374,16.28,0,32.461-1.495,48.643-1.868,14.525-.374,29.147.28,43.672-.374,18.326-.841,36.653,1.401,54.785.374,34.703-2.055,69.309-1.401,104.013-.747,12.088.187,24.175,1.214,36.263,1.121,11.113-.094,22.226-1.308,33.241-.374,18.911,1.681,37.823.747,56.637.093,6.824-.28,9.846-4.577,11.698-10.65,2.34-7.473.682-14.76.975-22.14.292-6.913.487-13.732.39-20.645Zm-308.919-34.378c7.506-9.622,16.182-18.31,24.565-27.185,20.276-21.486,41.917-41.758,62.583-62.776,14.135-14.293,29.439-27.465,42.502-42.692.292-.28.292-.654.487-1.028-8.188,1.588-16.474,1.401-24.663,1.868-15.499.934-31.097-.747-46.499,1.682-2.924.467-6.044.094-9.066-.28,50.995-5.868,71.81-5.736,80.422-3.923,2.305.485,10.78,2.554,18.287-.24-.282,4.751-3.754,8.285-7.174,11.637-26.125,25.597-49.423,53.715-76.426,78.564-16.182,14.947-30.219,32.136-46.889,46.802-5.167,4.484-10.236,9.062-16.864,11.677-4.582,1.775-5.946.187-5.946-4.11,0-4.111,2.34-7.006,4.679-9.996Zm-59.367-93.791c2.145-1.308,4.387-2.242,6.239-2.055,6.629-.094,8.773,3.363,6.239,9.062-1.365,2.896-3.607,5.138-5.946,7.473-26.71,26.717-52.835,53.809-75.841,83.609-9.456,12.144-20.569,22.981-31.682,33.724-3.022,2.896-6.824,4.297-10.43,6.165-1.755.934-3.509,1.401-5.167.093-1.657-1.308-1.56-3.27-1.072-4.951,1.365-5.418,4.094-10.369,7.214-14.947,12.868-18.964,27.587-36.713,43.672-53.155,16.864-17.282,32.461-35.592,49.911-52.22,5.167-4.951,10.821-9.061,16.864-12.798Zm-54.2-7.567c5.361-5.699,9.846-12.051,15.5-17.563,4.289-4.204,9.358-5.885,15.597-7.193-1.365,6.352-4.679,11.117-7.799,15.694-10.236,15.694-24.37,28.025-38.7,40.17-1.267,1.121-2.729,3.83-4.972,2.149-2.437-1.868-.585-4.391.585-6.352,5.459-9.715,12.088-18.683,19.789-26.904ZM50.023,211.074c-3.997,3.363-7.701,7.1-12.868,8.875-4.387,2.335-5.556-1.121-6.336-3.737-1.267-4.297-1.755-8.875-2.73-13.265-.682-3.176,1.462-4.951,3.509-7.006,21.933-21.673,45.719-41.571,67.36-63.617,4.777-4.764,8.773-9.902,10.723-16.255.585-1.775,2.242-3.55.195-5.325-1.657-1.401-3.997-1.495-5.849-.747-3.509,1.495-6.824,3.456-10.236,5.138-13.258,11.397-26.515,22.7-37.823,35.966-8.871,10.463-21.153,17.282-31.194,26.531-1.17,1.027-2.535,2.335-4.192.841-1.657-1.401-1.462-3.363-.682-4.951,1.267-2.429,3.022-4.577,4.484-6.913-4.289-31.108-3.802-62.309-3.509-93.604.097-13.452,1.267-26.717,2.534-40.076.877-9.902,6.726-14.013,16.474-15.601,14.915-2.522,29.829-.841,44.744-1.682,7.266-.745,14.808-1.56,21.179-2.348,2.498,4.769-2.162,7.821-5.289,11.222-9.651,10.463-22.811,16.908-33.436,26.437-2.34,3.737-5.654,6.726-8.578,9.996-1.657,1.868-4.777,4.11-2.73,6.539,2.34,2.803,4.874-.374,6.726-1.682,11.503-8.221,22.811-16.628,34.216-24.942,9.651-7.1,18.911-14.48,27.587-22.607,1.56-1.495,3.119-1.588,4.972-1.588,6.141.094,12.283.094,18.424.094,3.119-1.121,6.141-2.242,9.261-3.27,1.462-.467,3.022-.841,3.997.467.877,1.121.585,2.616-.39,3.83-.585.747-1.267,1.495-2.047,2.149-22.616,20.552-43.672,42.598-66.482,62.87-14.135,12.518-25.93,27.278-40.65,39.329-.195,4.204,2.047,4.11,5.069,2.616,9.358-4.578,18.034-9.996,26.418-16.068,23.786-17.189,46.109-36.059,67.652-55.677,10.138-9.248,18.034-20.552,29.147-28.773.487-.374,1.072-.934,1.17-1.401,1.56-7.66,7.311-5.979,12.77-5.698,12.868.56,25.833.934,38.7,1.401,1.56.094,3.217-.561,4.874.654-.292,1.682-1.95,2.242-3.022,3.27-.78,8.594-8.773,12.518-13.842,18.03-6.824,7.38-14.72,14.106-22.226,21.112-11.6,10.837-21.836,22.981-33.144,34.004-14.232,13.919-26.32,29.613-40.747,43.346-14.135,13.452-27.49,27.558-41.917,40.73-11.015,10.089-20.764,21.579-32.266,31.388Zm609.942,3.456c-.877,9.529-8.383,14.48-18.034,12.798-4.874-.841-9.748-1.214-14.72-.561-12.673,1.775-25.443-.187-38.115.094-12.673.374-25.345-.374-37.628-2.616-19.886-3.643-39.675-1.495-59.464-1.495-28.465,0-57.027.654-85.491,1.214-17.839.374-35.678,1.214-53.517,1.308-17.449.093-34.801.374-52.25.374-13.745,0-27.587-1.588-41.235-.56-21.251,1.588-42.697-.654-63.85,3.55-9.163,1.775-19.301-1.308-28.757-.28-21.836,2.429-43.964.093-65.508,3.737-12.965,2.242-25.833-.841-38.603,1.495-1.267.187-3.412.561-3.509-1.308-.098-2.149-.098-4.764,3.119-5.605,5.459-1.401,11.015-.841,16.474-.467,4.484.28,8.968.934,13.453-.28-.78-4.204.975-7.567,3.899-10.65,17.157-18.123,35.678-34.751,52.348-53.248,9.163-10.276,19.106-19.991,28.66-29.987,2.34-2.522,4.874-4.858,8.091-6.259,2.242-1.028,5.069-2.896,7.311-.28,1.852,2.242,1.365,5.044-.292,7.193-4.094,5.418-7.799,11.21-12.77,15.788-14.427,13.452-27.88,27.838-42.112,41.477-10.723,10.369-19.204,22.607-30.707,32.229-.487.467-.487,1.401-.78,2.149,21.153-1.214,42.21-1.588,63.363-2.149,23.006-.654,45.719-3.923,68.725-4.671,25.053-.747,50.008,1.028,75.061.841,11.893-.187,23.786-.747,35.678-1.121,1.462-5.605,5.264-9.809,8.871-13.826,25.735-25.97,49.813-53.248,75.841-78.938,21.056-20.832,41.625-42.318,63.168-62.683,9.651-9.061,19.886-17.562,30.024-26.157,7.116-5.885,12.868-13.172,20.569-18.496,4.679-3.27,8.968-7.006,15.305-6.726,1.95.094,3.314.374,3.314,2.522,2.534.093,4.972.093,7.409.28,2.437.187,2.534,1.495,1.462,3.27,3.217.187,7.214-3.27,9.163-.187,2.145,3.55-1.657,6.539-4.289,8.968-14.525,13.546-28.66,27.558-43.964,40.45-12.478,10.463-21.738,24.008-34.313,34.564-.877.747-1.072,1.681-.682,2.709,7.116-2.335,11.99-7.847,17.547-12.238,23.103-18.496,46.791-36.433,66.97-58.106,5.459-5.885,12.575-10.089,17.839-16.255,1.462-1.682,3.412-1.962,5.556-2.055,12.185-.748,24.175.841,36.166,2.429,8.286,1.121,11.893,6.352,13.355,13.452.78,3.643,1.365,7.38.487,11.117,1.365,15.787,2.145,31.668,2.145,47.643,0,34.004-1.657,68.008,0,102.012.39,7.847-.098,15.694-.78,23.541Z"/>
  </g>
</svg>